{"glyphs":{"0":{"ha":665,"x_min":67,"x_max":597,"o":"m 332 -17 q 135 103 204 -17 q 67 447 67 224 q 135 787 67 669 q 332 904 204 904 q 528 787 460 904 q 597 447 597 669 q 528 103 597 224 q 332 -17 460 -17 m 332 36 q 480 140 425 36 q 535 447 535 243 q 480 751 535 651 q 332 851 425 851 q 185 751 240 851 q 129 447 129 651 q 185 140 129 243 q 332 36 240 36 z "},"1":{"ha":665,"x_min":117,"x_max":581,"o":"m 117 54 l 325 54 l 325 790 l 167 790 l 167 832 q 263 856 221 842 q 338 888 306 869 l 388 888 l 388 54 l 581 54 l 581 0 l 117 0 l 117 54 z "},"2":{"ha":665,"x_min":54,"x_max":601,"o":"m 57 39 q 249 238 167 150 q 385 399 331 326 q 467 534 440 472 q 494 654 494 596 q 448 794 494 738 q 301 851 401 851 q 188 818 240 851 q 94 735 135 785 l 54 774 q 165 867 104 829 q 307 904 225 904 q 492 836 426 904 q 557 656 557 768 q 528 523 557 589 q 446 384 499 457 q 317 228 393 311 q 150 49 242 146 q 224 53 186 51 q 299 56 263 56 l 601 56 l 601 0 l 57 0 l 57 39 z "},"3":{"ha":665,"x_min":40,"x_max":593,"o":"m 76 151 q 119 109 96 129 q 173 73 143 89 q 240 47 203 57 q 322 38 276 38 q 405 51 367 38 q 471 91 443 65 q 514 153 499 117 q 529 233 529 189 q 512 317 529 279 q 457 381 494 354 q 361 424 419 408 q 219 439 303 439 l 219 493 q 349 508 296 493 q 435 549 403 524 q 483 610 468 575 q 497 686 497 646 q 449 806 497 761 q 318 851 400 851 q 204 823 256 851 q 114 754 153 794 l 78 796 q 182 872 124 840 q 318 904 240 904 q 414 890 369 904 q 491 848 458 875 q 542 781 524 821 q 561 690 561 742 q 513 549 561 603 q 392 471 465 496 l 392 465 q 469 437 433 457 q 533 388 506 417 q 577 320 561 358 q 593 235 593 282 q 572 130 593 176 q 515 51 551 83 q 428 1 478 18 q 322 -17 379 -17 q 226 -6 269 -17 q 149 24 183 6 q 88 64 115 42 q 40 108 61 86 l 76 151 z "},"4":{"ha":665,"x_min":22,"x_max":622,"o":"m 431 318 l 431 643 q 432 719 431 674 q 436 796 433 765 l 431 796 q 396 742 414 768 q 358 685 378 715 l 97 318 l 431 318 m 622 265 l 490 265 l 490 0 l 431 0 l 431 265 l 22 265 l 22 301 l 435 888 l 490 888 l 490 318 l 622 318 l 622 265 z "},"5":{"ha":665,"x_min":36,"x_max":599,"o":"m 71 146 q 114 106 90 125 q 167 71 138 86 q 232 47 196 56 q 314 38 268 38 q 399 55 358 38 q 469 103 439 72 q 517 178 499 135 q 535 276 535 222 q 476 445 535 385 q 318 506 418 506 q 230 490 267 506 q 153 446 193 474 l 110 472 l 142 888 l 551 888 l 551 833 l 197 833 l 169 513 q 242 547 204 533 q 328 560 279 560 q 433 543 383 560 q 519 492 483 526 q 577 405 556 458 q 599 279 599 351 q 574 153 599 208 q 510 60 550 99 q 420 3 471 22 q 315 -17 369 -17 q 220 -6 263 -17 q 144 22 178 4 q 83 60 110 39 q 36 103 57 82 l 71 146 z "},"6":{"ha":665,"x_min":72,"x_max":606,"o":"m 364 36 q 435 53 403 36 q 492 101 468 71 q 529 173 515 132 q 543 261 543 214 q 532 349 543 308 q 498 420 521 390 q 438 467 475 450 q 351 483 401 483 q 247 453 304 483 q 136 350 190 424 q 156 222 140 279 q 200 123 172 164 q 269 59 228 82 q 364 36 310 36 m 549 776 q 481 831 519 813 q 399 850 442 850 q 299 828 346 850 q 215 754 251 806 q 158 619 179 703 q 135 413 136 535 q 238 503 181 469 q 358 536 296 536 q 541 466 476 536 q 606 261 606 396 q 586 149 606 200 q 533 62 567 99 q 456 4 500 25 q 363 -17 413 -17 q 150 92 228 -17 q 72 403 72 200 q 99 638 72 542 q 172 793 126 733 q 276 878 217 853 q 399 904 335 904 q 506 881 461 904 q 586 818 551 857 l 549 776 z "},"7":{"ha":665,"x_min":61,"x_max":607,"o":"m 261 0 q 284 247 267 135 q 333 458 301 358 q 414 648 365 557 q 529 833 463 739 l 61 833 l 61 888 l 607 888 l 607 851 q 476 649 528 746 q 392 451 424 551 q 347 240 361 350 q 328 0 333 131 l 261 0 l 261 0 z "},"8":{"ha":665,"x_min":56,"x_max":607,"o":"m 117 231 q 133 153 117 189 q 179 92 150 118 q 249 50 208 65 q 338 35 289 35 q 423 49 385 35 q 488 88 461 63 q 530 146 515 113 q 544 217 544 179 q 522 303 544 268 q 460 366 499 339 q 374 413 422 393 q 274 454 325 433 q 161 359 206 414 q 117 231 117 304 m 403 465 q 490 562 460 511 q 519 671 519 613 q 507 741 519 708 q 472 799 494 774 q 415 838 449 824 q 338 853 381 853 q 269 840 300 853 q 215 806 238 828 q 179 754 192 785 q 167 688 167 724 q 187 606 167 640 q 240 547 207 572 q 316 501 274 521 q 403 465 358 482 m 56 228 q 72 311 56 272 q 113 381 88 350 q 170 437 139 413 q 233 478 201 461 l 233 483 q 185 520 208 500 q 145 566 163 540 q 117 622 128 592 q 106 688 106 651 q 124 775 106 735 q 173 844 142 815 q 247 888 204 872 q 338 904 289 904 q 439 887 394 904 q 515 838 483 869 q 562 765 546 807 q 578 672 578 722 q 565 602 578 636 q 534 539 553 568 q 493 486 515 510 q 451 447 471 463 l 451 442 q 508 403 481 424 q 558 356 536 382 q 593 294 579 329 q 607 215 607 260 q 588 124 607 167 q 533 51 568 82 q 447 1 497 19 q 338 -17 397 -17 q 225 2 276 -17 q 136 53 174 21 q 77 131 99 86 q 56 228 56 175 z "},"9":{"ha":665,"x_min":60,"x_max":592,"o":"m 314 404 q 418 435 361 404 q 529 539 475 467 q 509 667 525 610 q 465 766 493 725 q 395 829 436 807 q 300 851 354 851 q 229 834 263 851 q 172 787 196 817 q 135 716 149 757 q 121 628 121 675 q 132 538 121 579 q 167 467 143 497 q 226 421 190 438 q 314 404 263 404 m 115 111 q 183 56 144 75 q 267 38 222 38 q 367 60 319 38 q 450 133 414 82 q 508 269 486 185 q 531 475 529 353 q 426 386 485 419 q 306 353 368 353 q 124 423 189 353 q 60 628 60 493 q 79 739 60 688 q 132 826 99 790 q 209 883 165 863 q 303 904 253 904 q 514 797 436 904 q 592 486 592 689 q 565 250 592 346 q 493 95 538 154 q 389 10 449 36 q 265 -17 329 -17 q 157 7 203 -17 q 78 69 111 31 l 115 111 z "},"\u0000":{"ha":0,"x_min":0,"x_max":0,"o":""},"\r":{"ha":276,"x_min":0,"x_max":0,"o":""}," ":{"ha":276,"x_min":0,"x_max":0,"o":""},"A":{"ha":731,"x_min":11,"x_max":719,"o":"m 528 368 l 469 539 q 417 696 442 621 q 368 856 392 771 l 363 856 q 314 696 339 771 q 261 539 289 621 l 203 368 l 528 368 m 546 314 l 183 314 l 75 0 l 11 0 l 333 915 l 397 915 l 719 0 l 653 0 l 546 314 z "},"B":{"ha":803,"x_min":135,"x_max":740,"o":"m 135 915 l 382 915 q 603 862 521 915 q 685 693 685 808 q 644 567 685 621 q 522 493 603 514 l 522 488 q 682 417 624 472 q 740 267 740 363 q 716 150 740 200 q 647 67 692 100 q 540 17 603 33 q 400 0 478 0 l 135 0 l 135 915 m 357 513 q 560 558 499 513 q 621 694 621 603 q 556 823 621 783 q 364 863 490 863 l 199 863 l 199 513 l 357 513 m 383 53 q 599 104 521 53 q 678 267 678 156 q 601 413 678 365 q 383 461 525 461 l 199 461 l 199 53 l 383 53 z "},"C":{"ha":783,"x_min":76,"x_max":732,"o":"m 76 460 q 105 656 76 568 q 185 805 133 743 q 308 899 236 867 q 468 932 381 932 q 608 899 547 932 q 706 822 669 865 l 667 781 q 581 848 631 822 q 468 874 531 874 q 333 844 393 874 q 230 762 272 815 q 165 632 188 708 q 143 460 143 556 q 165 287 143 364 q 229 156 188 210 q 330 72 271 101 q 463 42 389 42 q 588 69 533 42 q 693 154 643 97 l 732 114 q 614 18 679 53 q 460 -17 549 -17 q 304 17 375 -17 q 183 112 233 50 q 104 262 132 174 q 76 460 76 350 z "},"D":{"ha":839,"x_min":135,"x_max":763,"o":"m 135 915 l 347 915 q 531 883 453 915 q 661 792 610 851 q 738 649 713 732 q 763 461 763 565 q 738 272 763 357 q 661 126 713 186 q 532 33 610 65 q 349 0 454 0 l 135 0 l 135 915 m 340 54 q 501 84 433 54 q 611 168 568 114 q 675 297 654 222 q 696 461 696 371 q 675 624 696 550 q 611 750 654 697 q 501 832 568 803 q 340 861 433 861 l 199 861 l 199 54 l 340 54 z "},"E":{"ha":715,"x_min":135,"x_max":650,"o":"m 135 915 l 636 915 l 636 860 l 199 860 l 199 514 l 565 514 l 565 458 l 199 458 l 199 56 l 650 56 l 650 0 l 135 0 l 135 915 z "},"F":{"ha":663,"x_min":135,"x_max":633,"o":"m 135 915 l 633 915 l 633 860 l 199 860 l 199 496 l 567 496 l 567 440 l 199 440 l 199 0 l 135 0 l 135 915 z "},"G":{"ha":840,"x_min":76,"x_max":740,"o":"m 76 460 q 106 656 76 568 q 188 805 135 743 q 316 899 242 867 q 482 932 390 932 q 565 922 528 932 q 633 897 603 913 q 688 861 664 881 q 731 822 713 842 l 693 781 q 607 847 657 819 q 482 874 557 874 q 340 844 403 874 q 234 762 278 815 q 167 632 190 708 q 143 460 143 556 q 165 287 143 364 q 230 156 188 210 q 334 72 272 101 q 474 42 396 42 q 591 60 536 42 q 679 111 646 78 l 679 396 l 460 396 l 460 450 l 740 450 l 740 88 q 628 13 697 42 q 468 -17 560 -17 q 308 17 381 -17 q 185 112 236 50 q 105 262 133 174 q 76 460 76 350 z "},"H":{"ha":888,"x_min":135,"x_max":753,"o":"m 135 915 l 199 915 l 199 514 l 689 514 l 689 915 l 753 915 l 753 0 l 689 0 l 689 458 l 199 458 l 199 0 l 135 0 l 135 915 z "},"I":{"ha":333,"x_min":135,"x_max":199,"o":"m 135 915 l 199 915 l 199 0 l 135 0 l 135 915 z "},"J":{"ha":642,"x_min":57,"x_max":510,"o":"m 106 150 q 181 67 139 92 q 282 42 224 42 q 406 92 365 42 q 446 256 446 143 l 446 915 l 510 915 l 510 249 q 497 145 510 193 q 458 61 485 97 q 388 4 431 25 q 282 -17 344 -17 q 149 18 206 -17 q 57 118 92 53 l 106 150 z "},"K":{"ha":775,"x_min":135,"x_max":761,"o":"m 135 915 l 199 915 l 199 407 l 201 407 l 644 915 l 721 915 l 429 576 l 761 0 l 688 0 l 385 528 l 199 315 l 199 0 l 135 0 l 135 915 z "},"L":{"ha":649,"x_min":135,"x_max":621,"o":"m 135 915 l 199 915 l 199 56 l 621 56 l 621 0 l 135 0 l 135 915 z "},"M":{"ha":981,"x_min":135,"x_max":846,"o":"m 135 915 l 225 915 l 417 378 l 489 175 l 494 175 l 564 378 l 756 915 l 846 915 l 846 0 l 783 0 l 783 601 q 786 724 783 658 q 792 849 789 790 l 786 849 l 714 647 l 518 100 l 461 100 l 264 647 l 192 849 l 186 849 q 192 724 189 790 q 194 601 194 658 l 194 0 l 135 0 l 135 915 z "},"N":{"ha":883,"x_min":135,"x_max":749,"o":"m 135 915 l 201 915 l 588 269 l 690 88 l 696 88 q 690 221 693 154 q 688 354 688 288 l 688 915 l 749 915 l 749 0 l 682 0 l 296 646 l 193 828 l 188 828 q 193 698 190 761 q 196 568 196 635 l 196 0 l 135 0 l 135 915 z "},"O":{"ha":906,"x_min":76,"x_max":831,"o":"m 453 -17 q 301 17 371 -17 q 182 114 232 51 q 104 265 132 176 q 76 461 76 353 q 104 656 76 569 q 182 805 132 743 q 301 899 232 867 q 453 932 371 932 q 606 899 536 932 q 725 805 675 867 q 803 656 775 743 q 831 461 831 569 q 803 265 831 353 q 725 114 775 176 q 606 17 675 51 q 453 -17 536 -17 m 453 42 q 579 72 522 42 q 677 156 636 101 q 740 288 718 211 q 763 461 763 365 q 740 632 763 556 q 677 762 718 708 q 579 844 636 815 q 453 874 522 874 q 326 844 383 874 q 228 762 268 815 q 165 632 188 708 q 143 461 143 556 q 165 288 143 365 q 228 156 188 211 q 326 72 268 101 q 453 42 383 42 z "},"P":{"ha":776,"x_min":135,"x_max":711,"o":"m 135 915 l 385 915 q 522 902 461 915 q 624 858 582 889 q 689 779 667 828 q 711 660 711 731 q 625 459 711 525 q 385 393 539 393 l 199 393 l 199 0 l 135 0 l 135 915 m 369 447 q 578 497 510 447 q 646 660 646 547 q 628 756 646 718 q 577 818 611 794 q 491 851 543 842 q 369 861 439 861 l 199 861 l 199 447 l 369 447 z "},"Q":{"ha":906,"x_min":76,"x_max":833,"o":"m 143 461 q 165 287 143 365 q 228 153 188 208 q 326 68 268 99 q 453 38 383 38 q 579 68 522 38 q 677 153 636 99 q 740 287 718 208 q 763 461 763 365 q 740 632 763 556 q 677 762 718 708 q 579 844 636 815 q 453 874 522 874 q 326 844 383 874 q 228 762 268 815 q 165 632 188 708 q 143 461 143 556 m 833 -200 q 785 -210 815 -206 q 721 -215 756 -215 q 528 -158 606 -215 q 417 -15 451 -101 q 279 28 342 -8 q 172 127 217 65 q 101 274 126 189 q 76 461 76 358 q 104 656 76 569 q 182 805 132 743 q 301 899 232 867 q 453 932 371 932 q 606 899 536 932 q 725 805 675 867 q 803 656 775 743 q 831 461 831 569 q 806 274 831 358 q 735 127 781 189 q 627 28 690 65 q 488 -15 564 -8 q 580 -121 519 -85 q 726 -157 640 -157 q 780 -153 758 -157 q 819 -144 801 -150 l 833 -200 z "},"R":{"ha":778,"x_min":135,"x_max":715,"o":"m 381 474 q 567 523 503 474 q 632 674 632 572 q 567 819 632 776 q 381 861 501 861 l 199 861 l 199 474 l 381 474 m 642 0 l 393 421 l 199 421 l 199 0 l 135 0 l 135 915 l 397 915 q 521 902 465 915 q 615 860 576 889 q 676 785 654 831 q 697 674 697 739 q 634 501 697 564 q 463 425 571 439 l 715 0 l 642 0 z "},"S":{"ha":724,"x_min":64,"x_max":667,"o":"m 106 165 q 225 75 156 108 q 374 42 294 42 q 540 92 479 42 q 601 225 601 143 q 588 297 601 268 q 553 348 575 326 q 501 385 531 369 q 438 417 471 401 l 299 479 q 235 510 268 492 q 176 555 203 528 q 131 619 149 582 q 113 707 113 656 q 133 798 113 757 q 188 869 153 839 q 273 915 224 899 q 379 932 322 932 q 527 899 463 932 q 633 822 592 867 l 597 779 q 503 848 557 822 q 379 874 449 874 q 232 829 288 874 q 176 710 176 785 q 192 642 176 669 q 231 594 207 614 q 282 559 254 574 q 335 533 310 544 l 474 472 q 547 435 513 456 q 608 386 582 414 q 651 320 635 358 q 667 229 667 282 q 646 131 667 176 q 587 53 625 86 q 494 2 549 21 q 374 -17 440 -17 q 196 22 274 -17 q 64 121 118 60 l 106 165 z "},"T":{"ha":728,"x_min":40,"x_max":688,"o":"m 332 860 l 40 860 l 40 915 l 688 915 l 688 860 l 396 860 l 396 0 l 332 0 l 332 860 z "},"U":{"ha":881,"x_min":132,"x_max":749,"o":"m 132 915 l 196 915 l 196 358 q 216 206 196 267 q 269 109 236 146 q 347 57 303 72 q 439 42 390 42 q 534 57 489 42 q 613 109 579 72 q 668 206 647 146 q 689 358 689 267 l 689 915 l 749 915 l 749 351 q 722 174 749 244 q 653 60 696 103 q 554 1 610 18 q 439 -17 499 -17 q 325 1 381 -17 q 226 60 269 18 q 158 174 183 103 q 132 351 132 244 l 132 915 z "},"V":{"ha":682,"x_min":6,"x_max":676,"o":"m 6 915 l 74 915 l 243 381 q 291 227 269 297 q 340 74 313 157 l 346 74 q 372 153 360 115 q 394 227 383 190 q 417 301 406 264 q 442 381 429 339 l 611 915 l 676 915 l 376 0 l 308 0 l 6 915 z "},"W":{"ha":1069,"x_min":39,"x_max":1028,"o":"m 39 915 l 106 915 l 221 376 q 252 227 236 301 q 283 78 268 153 l 289 78 q 323 227 306 153 q 360 376 340 301 l 503 915 l 568 915 l 711 376 q 748 227 731 301 q 785 78 765 153 l 790 78 q 820 227 806 153 q 850 376 835 301 l 965 915 l 1028 915 l 824 0 l 753 0 l 586 628 q 561 731 574 682 q 538 835 549 781 l 532 835 q 507 731 521 781 q 481 628 493 682 l 317 0 l 247 0 l 39 915 z "},"X":{"ha":669,"x_min":24,"x_max":646,"o":"m 299 474 l 43 915 l 113 915 l 263 646 q 298 586 282 614 q 338 521 314 558 l 343 521 q 377 586 363 558 q 411 646 392 614 l 561 915 l 626 915 l 371 471 l 646 0 l 576 0 l 417 281 q 377 350 397 315 q 332 426 357 385 l 326 426 q 286 350 304 385 q 249 281 268 315 l 89 0 l 24 0 l 299 474 z "},"Y":{"ha":621,"x_min":4,"x_max":617,"o":"m 278 371 l 4 915 l 72 915 l 211 629 q 258 531 235 579 q 308 432 281 482 l 314 432 q 365 531 340 482 q 413 629 390 579 l 551 915 l 617 915 l 342 371 l 342 0 l 278 0 l 278 371 z "},"Z":{"ha":747,"x_min":69,"x_max":681,"o":"m 69 38 l 596 860 l 115 860 l 115 915 l 676 915 l 676 878 l 149 56 l 681 56 l 681 0 l 69 0 l 69 38 z "},"a":{"ha":693,"x_min":90,"x_max":582,"o":"m 90 167 q 194 335 90 276 q 521 418 299 393 q 516 494 522 456 q 492 562 510 532 q 444 610 475 592 q 364 629 413 629 q 240 603 296 629 q 151 551 185 576 l 124 597 q 167 625 142 610 q 224 653 193 640 q 293 674 256 665 q 371 683 331 683 q 471 663 431 683 q 536 608 511 643 q 572 527 561 574 q 582 426 582 481 l 582 0 l 531 0 l 524 86 l 521 86 q 410 15 469 46 q 285 -17 351 -17 q 210 -6 244 -17 q 148 28 175 6 q 106 85 121 50 q 90 167 90 119 m 154 169 q 196 67 154 97 q 294 36 238 36 q 406 64 353 36 q 521 144 458 92 l 521 371 q 348 340 418 358 q 235 297 278 322 q 173 240 192 272 q 154 169 154 208 z "},"b":{"ha":756,"x_min":128,"x_max":683,"o":"m 128 999 l 189 999 l 189 710 l 186 579 q 296 653 238 622 q 417 683 354 683 q 617 591 550 683 q 683 343 683 499 q 660 192 683 258 q 595 78 636 125 q 501 8 554 32 q 389 -17 447 -17 q 288 5 340 -17 q 189 63 236 26 l 186 63 l 179 0 l 128 0 l 128 999 m 189 124 q 296 57 244 76 q 386 38 347 38 q 479 60 436 38 q 553 122 522 82 q 601 219 583 163 q 618 343 618 275 q 606 457 618 404 q 569 548 594 510 q 504 608 544 586 q 407 629 464 629 q 303 601 357 629 q 189 519 249 572 l 189 124 z "},"c":{"ha":624,"x_min":72,"x_max":588,"o":"m 72 332 q 97 481 72 415 q 164 592 122 547 q 260 660 206 636 q 376 683 315 683 q 492 658 446 683 q 572 601 539 633 l 536 558 q 465 609 504 589 q 378 629 426 629 q 283 608 326 629 q 206 547 239 586 q 155 453 174 507 q 136 332 136 399 q 153 213 136 267 q 202 119 171 158 q 278 59 233 81 q 378 38 324 38 q 476 60 431 38 q 556 114 521 82 l 588 72 q 492 8 544 33 q 375 -17 439 -17 q 255 7 310 -17 q 159 75 200 31 q 95 184 118 119 q 72 332 72 249 z "},"d":{"ha":756,"x_min":72,"x_max":628,"o":"m 72 332 q 96 478 72 413 q 160 589 119 543 q 255 659 201 635 q 368 683 308 683 q 474 662 429 683 q 569 601 519 640 l 567 724 l 567 999 l 628 999 l 628 0 l 575 0 l 569 86 l 565 86 q 470 15 525 46 q 349 -17 415 -17 q 147 73 222 -17 q 72 332 72 163 m 138 332 q 152 211 138 265 q 194 119 167 157 q 263 59 222 81 q 357 38 304 38 q 463 66 413 38 q 567 147 514 94 l 567 543 q 467 610 514 590 q 372 629 421 629 q 279 606 322 629 q 205 544 236 583 q 156 449 174 504 q 138 332 138 394 z "},"e":{"ha":671,"x_min":72,"x_max":618,"o":"m 72 332 q 97 479 72 414 q 162 590 121 544 q 255 659 203 635 q 363 683 307 683 q 550 603 482 683 q 618 375 618 522 q 618 350 618 363 q 615 325 618 338 l 135 325 q 154 209 136 263 q 205 117 172 156 q 283 58 238 79 q 386 36 329 36 q 484 52 440 36 q 565 96 528 68 l 590 49 q 502 4 550 25 q 381 -17 454 -17 q 260 7 317 -17 q 163 76 204 31 q 97 185 121 121 q 72 332 72 250 m 560 372 q 507 566 560 501 q 364 631 454 631 q 282 613 321 631 q 212 561 243 594 q 160 480 181 528 q 135 372 140 432 l 560 372 z "},"f":{"ha":365,"x_min":46,"x_max":400,"o":"m 383 943 q 342 958 363 954 q 303 963 322 963 q 224 923 250 963 q 199 811 199 883 l 199 667 l 353 667 l 353 614 l 199 614 l 199 0 l 138 0 l 138 614 l 46 614 l 46 661 l 138 667 l 138 815 q 181 965 138 915 q 303 1015 224 1015 q 400 993 351 1015 l 383 943 z "},"g":{"ha":676,"x_min":72,"x_max":661,"o":"m 131 -131 q 188 -232 131 -193 q 353 -271 246 -271 q 454 -256 408 -271 q 532 -218 500 -242 q 581 -165 564 -194 q 599 -103 599 -135 q 559 -24 599 -47 q 444 -1 519 -1 l 301 -1 q 267 1 290 -1 q 218 10 244 3 q 151 -58 172 -22 q 131 -131 131 -94 m 72 -136 q 99 -50 72 -92 q 171 25 125 -8 l 171 31 q 129 72 146 46 q 113 138 113 99 q 138 213 113 182 q 185 260 163 244 l 185 265 q 127 340 153 293 q 101 449 101 388 q 119 543 101 500 q 169 617 138 586 q 244 666 201 649 q 336 683 288 683 q 386 678 364 683 q 424 667 408 674 l 650 667 l 650 615 l 494 615 q 547 544 526 588 q 568 447 568 500 q 550 353 568 396 q 501 278 532 310 q 427 230 469 247 q 336 213 385 213 q 278 219 308 213 q 225 240 249 226 q 187 200 203 222 q 171 144 171 178 q 197 83 171 108 q 299 57 224 57 l 442 57 q 608 20 554 57 q 661 -96 661 -17 q 639 -180 661 -139 q 576 -252 617 -221 q 476 -302 535 -283 q 346 -321 418 -321 q 146 -271 219 -321 q 72 -136 72 -221 m 336 261 q 402 274 371 261 q 457 313 433 288 q 494 372 481 338 q 508 449 508 407 q 494 525 508 490 q 458 583 481 560 q 403 620 435 607 q 336 633 371 633 q 269 620 300 633 q 214 583 238 607 q 176 526 190 560 q 163 449 163 492 q 176 372 163 407 q 215 313 190 338 q 270 274 239 288 q 336 261 301 261 z "},"h":{"ha":733,"x_min":128,"x_max":621,"o":"m 128 999 l 189 999 l 189 710 l 189 563 q 296 649 242 615 q 419 683 350 683 q 572 621 524 683 q 621 428 621 558 l 621 0 l 560 0 l 560 419 q 524 577 560 526 q 407 628 489 628 q 299 597 347 628 q 189 503 250 565 l 189 0 l 128 0 l 128 999 z "},"i":{"ha":318,"x_min":104,"x_max":215,"o":"m 160 828 q 120 843 136 828 q 104 882 104 858 q 120 923 104 908 q 160 938 136 938 q 199 923 183 938 q 215 882 215 908 q 199 843 215 858 q 160 828 183 828 m 128 667 l 189 667 l 189 0 l 128 0 l 128 667 z "},"j":{"ha":318,"x_min":-46,"x_max":217,"o":"m 128 667 l 190 667 l 190 -124 q 154 -270 190 -222 q 40 -318 118 -318 q -7 -313 17 -318 q -46 -301 -31 -308 l -31 -251 q 1 -260 -18 -256 q 39 -265 19 -265 q 111 -224 94 -265 q 128 -119 128 -183 l 128 667 m 160 828 q 121 843 138 828 q 104 882 104 858 q 121 923 104 908 q 160 938 138 938 q 200 923 183 938 q 217 882 217 908 q 200 843 217 858 q 160 828 183 828 z "},"k":{"ha":644,"x_min":128,"x_max":628,"o":"m 128 999 l 189 999 l 189 263 l 192 263 l 521 667 l 592 667 l 375 403 l 628 0 l 560 0 l 339 357 l 189 182 l 189 0 l 128 0 l 128 999 z "},"l":{"ha":329,"x_min":128,"x_max":254,"o":"m 128 999 l 189 999 l 189 81 q 197 48 189 58 q 218 38 206 38 q 227 38 222 38 q 243 40 232 38 l 254 -10 q 235 -15 244 -12 q 210 -17 225 -17 q 128 89 128 -17 l 128 999 z "},"m":{"ha":1128,"x_min":128,"x_max":1011,"o":"m 128 667 l 181 667 l 186 564 l 190 564 q 290 649 235 615 q 400 683 344 683 q 524 647 481 683 q 585 547 567 610 q 698 647 643 610 q 811 683 753 683 q 1011 428 1011 683 l 1011 0 l 949 0 l 949 419 q 913 577 949 526 q 800 628 876 628 q 600 503 710 628 l 600 0 l 539 0 l 539 419 q 503 577 539 526 q 389 628 467 628 q 189 503 299 628 l 189 0 l 128 0 l 128 667 z "},"n":{"ha":739,"x_min":128,"x_max":621,"o":"m 128 667 l 181 667 l 186 564 l 190 564 q 296 649 242 615 q 419 683 350 683 q 572 621 524 683 q 621 428 621 558 l 621 0 l 560 0 l 560 419 q 524 577 560 526 q 407 628 489 628 q 299 597 347 628 q 189 503 250 565 l 189 0 l 128 0 l 128 667 z "},"o":{"ha":743,"x_min":72,"x_max":671,"o":"m 72 332 q 97 481 72 415 q 162 592 121 547 q 257 660 203 636 q 371 683 311 683 q 485 660 431 683 q 581 592 540 636 q 647 481 622 547 q 671 332 671 415 q 647 184 671 249 q 581 75 622 119 q 485 7 540 31 q 371 -17 431 -17 q 257 7 311 -17 q 162 75 203 31 q 97 184 121 119 q 72 332 72 249 m 136 332 q 154 213 136 267 q 203 119 172 158 q 278 59 235 81 q 371 38 321 38 q 465 59 421 38 q 540 119 508 81 q 589 213 571 158 q 607 332 607 267 q 589 453 607 399 q 540 547 571 507 q 465 608 508 586 q 371 629 421 629 q 278 608 321 629 q 203 547 235 586 q 154 453 172 507 q 136 332 136 399 z "},"p":{"ha":756,"x_min":128,"x_max":683,"o":"m 189 -58 l 189 -301 l 128 -301 l 128 667 l 181 667 l 186 583 l 190 583 q 297 653 239 622 q 417 683 354 683 q 617 591 550 683 q 683 343 683 499 q 660 192 683 258 q 595 78 636 125 q 501 8 554 32 q 389 -17 447 -17 q 292 5 342 -17 q 189 65 242 26 l 189 -58 m 189 124 q 297 57 247 76 q 386 38 347 38 q 479 60 436 38 q 553 122 522 82 q 601 219 583 163 q 618 343 618 275 q 606 457 618 404 q 569 548 594 510 q 504 608 544 586 q 407 629 464 629 q 303 601 357 629 q 189 519 250 572 l 189 124 z "},"q":{"ha":746,"x_min":72,"x_max":628,"o":"m 72 332 q 96 478 72 413 q 160 589 119 543 q 255 659 201 635 q 368 683 308 683 q 474 663 429 683 q 567 606 519 642 l 569 606 l 576 667 l 628 667 l 628 -301 l 567 -301 l 567 -44 l 569 85 q 470 14 525 44 q 349 -17 415 -17 q 147 73 222 -17 q 72 332 72 163 m 138 332 q 152 211 138 265 q 194 119 167 157 q 263 59 222 81 q 357 38 304 38 q 463 66 413 38 q 567 147 514 94 l 567 543 q 467 610 514 590 q 372 629 421 629 q 279 606 322 629 q 205 544 236 583 q 156 449 174 504 q 138 332 138 394 z "},"r":{"ha":440,"x_min":128,"x_max":446,"o":"m 128 667 l 181 667 l 186 543 l 190 543 q 272 644 224 606 q 379 683 319 683 q 414 681 399 683 q 446 669 429 678 l 432 614 q 403 623 415 621 q 371 625 390 625 q 277 587 326 625 q 189 454 228 549 l 189 0 l 128 0 l 128 667 z "},"s":{"ha":563,"x_min":44,"x_max":514,"o":"m 81 121 q 172 60 124 85 q 293 36 221 36 q 412 76 372 36 q 451 168 451 115 q 437 222 451 199 q 399 263 422 246 q 347 292 375 279 q 289 315 318 304 q 213 344 251 329 q 144 381 175 360 q 95 433 114 403 q 76 506 76 463 q 90 574 76 542 q 132 631 104 607 q 199 669 160 656 q 292 683 239 683 q 395 664 344 683 q 482 614 446 644 l 449 571 q 378 613 415 596 q 289 631 340 631 q 222 620 250 631 q 176 593 194 610 q 148 554 157 576 q 139 510 139 532 q 152 460 139 481 q 188 425 165 440 q 238 398 210 410 q 296 375 267 386 q 374 344 335 360 q 444 307 413 329 q 494 252 475 285 q 514 171 514 219 q 499 99 514 133 q 456 40 485 65 q 385 -1 426 14 q 289 -17 343 -17 q 151 10 214 -17 q 44 75 89 38 l 81 121 z "},"t":{"ha":433,"x_min":39,"x_max":418,"o":"m 143 614 l 39 614 l 39 661 l 144 667 l 153 860 l 206 860 l 206 667 l 399 667 l 399 614 l 206 614 l 206 179 q 210 122 206 147 q 228 77 215 96 q 262 48 240 58 q 318 38 283 38 q 360 44 338 38 q 401 58 383 50 l 418 8 q 360 -10 389 -3 q 310 -17 331 -17 q 229 -2 261 -17 q 178 39 197 13 q 151 103 158 65 q 143 185 143 140 l 143 614 z "},"u":{"ha":735,"x_min":118,"x_max":607,"o":"m 118 667 l 179 667 l 179 247 q 215 90 179 140 q 331 39 250 39 q 439 72 390 39 q 546 175 488 104 l 546 667 l 607 667 l 607 0 l 556 0 l 549 111 l 546 111 q 443 18 497 53 q 319 -17 389 -17 q 167 46 215 -17 q 118 239 118 108 l 118 667 z "},"v":{"ha":603,"x_min":17,"x_max":586,"o":"m 17 667 l 83 667 l 233 249 q 267 151 249 200 q 300 57 285 103 l 306 57 q 340 151 322 103 q 374 249 357 200 l 524 667 l 586 667 l 339 0 l 267 0 l 17 667 z "},"w":{"ha":951,"x_min":33,"x_max":918,"o":"m 33 667 l 100 667 l 219 235 q 243 145 232 189 q 265 57 254 101 l 271 57 q 294 145 282 101 q 319 235 307 189 l 440 667 l 514 667 l 635 235 q 660 145 647 189 q 685 57 672 101 l 690 57 q 714 145 701 101 q 738 235 726 189 l 856 667 l 918 667 l 726 0 l 646 0 l 529 414 q 503 509 514 463 q 478 604 493 556 l 472 604 q 448 508 461 556 q 419 411 435 460 l 304 0 l 231 0 l 33 667 z "},"x":{"ha":565,"x_min":19,"x_max":546,"o":"m 246 349 l 38 667 l 106 667 l 214 497 q 248 442 231 469 q 285 388 265 415 l 290 388 q 324 442 308 415 q 358 497 340 469 l 463 667 l 526 667 l 319 343 l 546 0 l 478 0 l 360 182 q 321 244 340 214 q 281 304 301 275 l 275 304 q 237 244 256 275 q 199 182 218 214 l 85 0 l 19 0 l 246 349 z "},"y":{"ha":606,"x_min":17,"x_max":589,"o":"m 47 -236 q 72 -244 58 -240 q 101 -247 86 -247 q 206 -197 164 -247 q 272 -71 247 -147 l 290 -12 l 17 667 l 83 667 l 244 247 q 278 156 260 206 q 317 61 297 106 l 322 61 q 353 156 338 106 q 383 247 369 206 l 526 667 l 589 667 l 325 -83 q 291 -165 311 -125 q 244 -235 271 -204 q 181 -285 217 -267 q 101 -304 146 -304 q 33 -290 64 -304 l 47 -236 l 47 -236 z "},"z":{"ha":561,"x_min":38,"x_max":525,"o":"m 38 33 l 432 614 l 81 614 l 81 667 l 511 667 l 511 635 l 118 54 l 525 54 l 525 0 l 38 0 l 38 33 z "},"À":{"ha":731,"x_min":11,"x_max":719,"o":"m 528 368 l 469 539 q 417 696 442 621 q 368 856 392 771 l 363 856 q 314 696 339 771 q 261 539 289 621 l 203 368 l 528 368 m 546 314 l 183 314 l 75 0 l 11 0 l 333 915 l 397 915 l 719 0 l 653 0 l 546 314 m 208 1132 l 289 1132 l 417 985 l 361 985 l 208 1132 z "},"Á":{"ha":731,"x_min":11,"x_max":719,"o":"m 528 368 l 469 539 q 417 696 442 621 q 368 856 392 771 l 363 856 q 314 696 339 771 q 261 539 289 621 l 203 368 l 528 368 m 546 314 l 183 314 l 75 0 l 11 0 l 333 915 l 397 915 l 719 0 l 653 0 l 546 314 m 369 985 l 314 985 l 442 1132 l 522 1132 l 369 985 z "},"Â":{"ha":731,"x_min":11,"x_max":719,"o":"m 528 368 l 469 539 q 417 696 442 621 q 368 856 392 771 l 363 856 q 314 696 339 771 q 261 539 289 621 l 203 368 l 528 368 m 546 314 l 183 314 l 75 0 l 11 0 l 333 915 l 397 915 l 719 0 l 653 0 l 546 314 m 203 985 l 336 1132 l 394 1132 l 528 985 l 472 985 l 368 1085 l 363 1085 l 258 985 l 203 985 z "},"Ã":{"ha":731,"x_min":11,"x_max":719,"o":"m 528 368 l 469 539 q 417 696 442 621 q 368 856 392 771 l 363 856 q 314 696 339 771 q 261 539 289 621 l 203 368 l 528 368 m 546 314 l 183 314 l 75 0 l 11 0 l 333 915 l 397 915 l 719 0 l 653 0 l 546 314 m 447 994 q 398 1007 419 994 q 358 1034 376 1019 q 321 1061 339 1049 q 282 1074 303 1074 q 244 1052 260 1074 q 225 994 229 1031 l 185 994 q 193 1041 186 1018 q 213 1082 200 1064 q 242 1111 225 1100 q 283 1122 260 1122 q 332 1110 311 1122 q 372 1083 353 1097 q 409 1056 390 1068 q 449 1044 428 1044 q 486 1065 471 1044 q 506 1122 501 1086 l 546 1122 q 538 1076 544 1099 q 518 1035 531 1054 q 488 1006 506 1017 q 447 994 471 994 z "},"Ä":{"ha":731,"x_min":11,"x_max":719,"o":"m 528 368 l 469 539 q 417 696 442 621 q 368 856 392 771 l 363 856 q 314 696 339 771 q 261 539 289 621 l 203 368 l 528 368 m 546 314 l 183 314 l 75 0 l 11 0 l 333 915 l 397 915 l 719 0 l 653 0 l 546 314 m 256 1007 q 219 1020 233 1007 q 206 1057 206 1033 q 219 1094 206 1081 q 256 1108 233 1108 q 292 1094 278 1108 q 307 1057 307 1081 q 292 1020 307 1033 q 256 1007 278 1007 m 475 1007 q 438 1020 453 1007 q 424 1057 424 1033 q 438 1094 424 1081 q 475 1108 453 1108 q 511 1094 497 1108 q 525 1057 525 1081 q 511 1020 525 1033 q 475 1007 497 1007 z "},"Ā":{"ha":731,"x_min":11,"x_max":719,"o":"m 528 368 l 469 539 q 417 696 442 621 q 368 856 392 771 l 363 856 q 314 696 339 771 q 261 539 289 621 l 203 368 l 528 368 m 546 314 l 183 314 l 75 0 l 11 0 l 333 915 l 397 915 l 719 0 l 653 0 l 546 314 m 207 1069 l 524 1069 l 524 1019 l 207 1019 l 207 1069 z "},"Ă":{"ha":731,"x_min":11,"x_max":719,"o":"m 528 368 l 469 539 q 417 696 442 621 q 368 856 392 771 l 363 856 q 314 696 339 771 q 261 539 289 621 l 203 368 l 528 368 m 546 314 l 183 314 l 75 0 l 11 0 l 333 915 l 397 915 l 719 0 l 653 0 l 546 314 m 365 988 q 297 1001 325 988 q 249 1036 268 1015 q 219 1083 229 1057 q 206 1132 208 1108 l 251 1132 q 284 1064 257 1096 q 365 1032 311 1032 q 412 1041 392 1032 q 446 1064 432 1050 q 468 1096 460 1078 q 479 1132 476 1114 l 525 1132 q 512 1083 522 1108 q 482 1036 501 1057 q 433 1001 463 1015 q 365 988 404 988 z "},"Å":{"ha":731,"x_min":11,"x_max":719,"o":"m 528 368 l 469 539 q 417 696 442 621 q 368 856 392 771 l 363 856 q 314 696 339 771 q 261 539 289 621 l 203 368 l 528 368 m 546 314 l 183 314 l 75 0 l 11 0 l 333 915 l 397 915 l 719 0 l 653 0 l 546 314 m 365 972 q 284 1003 317 972 q 251 1086 251 1033 q 284 1169 251 1138 q 365 1200 317 1200 q 446 1169 413 1200 q 479 1086 479 1138 q 446 1003 479 1033 q 365 972 413 972 m 365 1008 q 415 1028 393 1008 q 436 1086 436 1047 q 415 1143 436 1122 q 365 1164 393 1164 q 314 1143 335 1164 q 293 1086 293 1122 q 314 1028 293 1047 q 365 1008 335 1008 z "},"Ǎ":{"ha":731,"x_min":11,"x_max":719,"o":"m 528 368 l 469 539 q 417 696 442 621 q 368 856 392 771 l 363 856 q 314 696 339 771 q 261 539 289 621 l 203 368 l 528 368 m 546 314 l 183 314 l 75 0 l 11 0 l 333 915 l 397 915 l 719 0 l 653 0 l 546 314 m 528 1132 l 394 985 l 336 985 l 203 1132 l 258 1132 l 363 1032 l 368 1032 l 472 1132 l 528 1132 z "},"Ạ":{"ha":731,"x_min":11,"x_max":719,"o":"m 528 368 l 469 539 q 417 696 442 621 q 368 856 392 771 l 363 856 q 314 696 339 771 q 261 539 289 621 l 203 368 l 528 368 m 546 314 l 183 314 l 75 0 l 11 0 l 333 915 l 397 915 l 719 0 l 653 0 l 546 314 m 365 -269 q 327 -254 342 -269 q 313 -212 313 -239 q 327 -174 313 -189 q 365 -158 342 -158 q 403 -174 389 -158 q 418 -212 418 -189 q 403 -254 418 -239 q 365 -269 389 -269 z "},"Ả":{"ha":731,"x_min":11,"x_max":719,"o":"m 528 368 l 469 539 q 417 696 442 621 q 368 856 392 771 l 363 856 q 314 696 339 771 q 261 539 289 621 l 203 368 l 528 368 m 546 314 l 183 314 l 75 0 l 11 0 l 333 915 l 397 915 l 719 0 l 653 0 l 546 314 m 321 1013 q 383 1041 358 1024 q 408 1088 408 1058 q 290 1154 408 1150 l 296 1199 q 361 1191 331 1197 q 415 1172 392 1185 q 451 1141 438 1160 q 464 1096 464 1122 q 453 1049 464 1068 q 423 1015 442 1029 q 381 992 404 1001 q 332 975 357 982 l 321 1013 z "},"Ấ":{"ha":731,"x_min":11,"x_max":719,"o":"m 528 368 l 469 539 q 417 696 442 621 q 368 856 392 771 l 363 856 q 314 696 339 771 q 261 539 289 621 l 203 368 l 528 368 m 546 314 l 183 314 l 75 0 l 11 0 l 333 915 l 397 915 l 719 0 l 653 0 l 546 314 m 574 1217 l 640 1217 l 521 1069 l 475 1069 l 574 1217 m 338 1124 l 393 1124 l 519 985 l 465 985 l 368 1076 l 363 1076 l 265 985 l 211 985 l 338 1124 z "},"Ầ":{"ha":731,"x_min":11,"x_max":719,"o":"m 528 368 l 469 539 q 417 696 442 621 q 368 856 392 771 l 363 856 q 314 696 339 771 q 261 539 289 621 l 203 368 l 528 368 m 546 314 l 183 314 l 75 0 l 11 0 l 333 915 l 397 915 l 719 0 l 653 0 l 546 314 m 576 1069 l 531 1069 l 411 1217 l 476 1217 l 576 1069 m 338 1124 l 393 1124 l 519 985 l 465 985 l 368 1076 l 363 1076 l 265 985 l 211 985 l 338 1124 z "},"Ẩ":{"ha":731,"x_min":11,"x_max":719,"o":"m 528 368 l 469 539 q 417 696 442 621 q 368 856 392 771 l 363 856 q 314 696 339 771 q 261 539 289 621 l 203 368 l 528 368 m 546 314 l 183 314 l 75 0 l 11 0 l 333 915 l 397 915 l 719 0 l 653 0 l 546 314 m 493 1089 q 543 1110 522 1096 q 564 1147 564 1124 q 538 1191 564 1179 q 463 1206 513 1203 l 469 1249 q 574 1224 532 1246 q 617 1154 617 1203 q 607 1113 617 1131 q 581 1083 597 1096 q 546 1063 565 1071 q 507 1051 526 1056 l 493 1089 m 338 1124 l 393 1124 l 519 985 l 465 985 l 368 1076 l 363 1076 l 265 985 l 211 985 l 338 1124 z "},"Ẫ":{"ha":731,"x_min":11,"x_max":719,"o":"m 528 368 l 469 539 q 417 696 442 621 q 368 856 392 771 l 363 856 q 314 696 339 771 q 261 539 289 621 l 203 368 l 528 368 m 546 314 l 183 314 l 75 0 l 11 0 l 333 915 l 397 915 l 719 0 l 653 0 l 546 314 m 338 1124 l 393 1124 l 519 985 l 465 985 l 368 1076 l 363 1076 l 265 985 l 211 985 l 338 1124 m 196 1171 q 203 1210 197 1190 q 222 1247 210 1231 q 252 1273 235 1263 q 294 1283 269 1283 q 338 1273 319 1283 q 373 1249 357 1263 q 403 1226 389 1236 q 436 1215 418 1215 q 475 1233 460 1215 q 494 1283 490 1251 l 535 1283 q 527 1244 533 1264 q 508 1208 521 1224 q 478 1181 496 1192 q 436 1171 461 1171 q 392 1181 411 1171 q 358 1205 374 1192 q 327 1228 342 1218 q 294 1239 313 1239 q 256 1221 271 1239 q 236 1171 240 1203 l 196 1171 z "},"Ậ":{"ha":731,"x_min":11,"x_max":719,"o":"m 528 368 l 469 539 q 417 696 442 621 q 368 856 392 771 l 363 856 q 314 696 339 771 q 261 539 289 621 l 203 368 l 528 368 m 546 314 l 183 314 l 75 0 l 11 0 l 333 915 l 397 915 l 719 0 l 653 0 l 546 314 m 203 985 l 336 1132 l 394 1132 l 528 985 l 472 985 l 368 1085 l 363 1085 l 258 985 l 203 985 m 365 -269 q 327 -254 342 -269 q 313 -212 313 -239 q 327 -174 313 -189 q 365 -158 342 -158 q 403 -174 389 -158 q 418 -212 418 -189 q 403 -254 418 -239 q 365 -269 389 -269 z "},"Ắ":{"ha":731,"x_min":11,"x_max":719,"o":"m 528 368 l 469 539 q 417 696 442 621 q 368 856 392 771 l 363 856 q 314 696 339 771 q 261 539 289 621 l 203 368 l 528 368 m 546 314 l 183 314 l 75 0 l 11 0 l 333 915 l 397 915 l 719 0 l 653 0 l 546 314 m 426 1244 l 494 1244 l 363 1110 l 317 1110 l 426 1244 m 365 988 q 300 1001 328 988 q 253 1034 272 1014 q 222 1078 233 1054 q 208 1126 211 1103 l 251 1126 q 286 1060 260 1090 q 365 1031 313 1031 q 444 1060 418 1031 q 479 1126 471 1090 l 522 1126 q 508 1078 519 1103 q 478 1034 497 1054 q 431 1001 458 1014 q 365 988 403 988 z "},"Ằ":{"ha":731,"x_min":11,"x_max":719,"o":"m 528 368 l 469 539 q 417 696 442 621 q 368 856 392 771 l 363 856 q 314 696 339 771 q 261 539 289 621 l 203 368 l 528 368 m 546 314 l 183 314 l 75 0 l 11 0 l 333 915 l 397 915 l 719 0 l 653 0 l 546 314 m 414 1110 l 368 1110 l 236 1244 l 304 1244 l 414 1110 m 365 988 q 300 1001 328 988 q 253 1034 272 1014 q 222 1078 233 1054 q 208 1126 211 1103 l 251 1126 q 286 1060 260 1090 q 365 1031 313 1031 q 444 1060 418 1031 q 479 1126 471 1090 l 522 1126 q 508 1078 519 1103 q 478 1034 497 1054 q 431 1001 458 1014 q 365 988 403 988 z "},"Ẳ":{"ha":731,"x_min":11,"x_max":719,"o":"m 528 368 l 469 539 q 417 696 442 621 q 368 856 392 771 l 363 856 q 314 696 339 771 q 261 539 289 621 l 203 368 l 528 368 m 546 314 l 183 314 l 75 0 l 11 0 l 333 915 l 397 915 l 719 0 l 653 0 l 546 314 m 328 1144 q 378 1166 357 1153 q 399 1203 399 1179 q 373 1247 399 1235 q 297 1263 347 1260 l 304 1304 q 409 1281 367 1301 q 451 1210 451 1260 q 442 1169 451 1186 q 416 1140 432 1151 q 381 1120 400 1128 q 342 1107 361 1113 l 328 1144 m 365 988 q 300 1001 328 988 q 253 1034 272 1014 q 222 1078 233 1054 q 208 1126 211 1103 l 251 1126 q 286 1060 260 1090 q 365 1031 313 1031 q 444 1060 418 1031 q 479 1126 471 1090 l 522 1126 q 508 1078 519 1103 q 478 1034 497 1054 q 431 1001 458 1014 q 365 988 403 988 z "},"Ẵ":{"ha":731,"x_min":11,"x_max":719,"o":"m 528 368 l 469 539 q 417 696 442 621 q 368 856 392 771 l 363 856 q 314 696 339 771 q 261 539 289 621 l 203 368 l 528 368 m 546 314 l 183 314 l 75 0 l 11 0 l 333 915 l 397 915 l 719 0 l 653 0 l 546 314 m 365 988 q 300 1001 328 988 q 253 1034 272 1014 q 222 1078 233 1054 q 208 1126 211 1103 l 251 1126 q 286 1060 260 1090 q 365 1031 313 1031 q 444 1060 418 1031 q 479 1126 471 1090 l 522 1126 q 508 1078 519 1103 q 478 1034 497 1054 q 431 1001 458 1014 q 365 988 403 988 m 196 1171 q 203 1210 197 1190 q 222 1247 210 1231 q 252 1273 235 1263 q 294 1283 269 1283 q 338 1273 319 1283 q 373 1249 357 1263 q 403 1226 389 1236 q 436 1215 418 1215 q 475 1233 460 1215 q 494 1283 490 1251 l 535 1283 q 527 1244 533 1264 q 508 1208 521 1224 q 478 1181 496 1192 q 436 1171 461 1171 q 392 1181 411 1171 q 358 1205 374 1192 q 327 1228 342 1218 q 294 1239 313 1239 q 256 1221 271 1239 q 236 1171 240 1203 l 196 1171 z "},"Ặ":{"ha":731,"x_min":11,"x_max":719,"o":"m 528 368 l 469 539 q 417 696 442 621 q 368 856 392 771 l 363 856 q 314 696 339 771 q 261 539 289 621 l 203 368 l 528 368 m 546 314 l 183 314 l 75 0 l 11 0 l 333 915 l 397 915 l 719 0 l 653 0 l 546 314 m 365 988 q 297 1001 325 988 q 249 1036 268 1015 q 219 1083 229 1057 q 206 1132 208 1108 l 251 1132 q 284 1064 257 1096 q 365 1032 311 1032 q 412 1041 392 1032 q 446 1064 432 1050 q 468 1096 460 1078 q 479 1132 476 1114 l 525 1132 q 512 1083 522 1108 q 482 1036 501 1057 q 433 1001 463 1015 q 365 988 404 988 m 365 -269 q 327 -254 342 -269 q 313 -212 313 -239 q 327 -174 313 -189 q 365 -158 342 -158 q 403 -174 389 -158 q 418 -212 418 -189 q 403 -254 418 -239 q 365 -269 389 -269 z "},"Ą":{"ha":731,"x_min":11,"x_max":769,"o":"m 528 368 l 469 539 q 417 696 442 621 q 368 856 392 771 l 363 856 q 314 696 339 771 q 261 539 289 621 l 203 368 l 528 368 m 769 -251 q 728 -275 754 -265 q 679 -285 703 -285 q 597 -257 631 -285 q 563 -171 563 -229 q 571 -119 563 -144 q 593 -72 579 -94 q 625 -31 607 -50 q 661 0 643 -12 l 653 0 l 546 314 l 183 314 l 75 0 l 11 0 l 333 915 l 397 915 l 719 0 q 647 -73 676 -28 q 617 -161 617 -118 q 638 -215 617 -197 q 688 -233 660 -233 q 747 -214 722 -233 l 769 -251 z "},"Æ":{"ha":1124,"x_min":29,"x_max":1058,"o":"m 571 354 l 571 860 l 565 860 q 480 702 522 782 q 393 539 438 622 l 292 354 l 571 354 m 1058 56 l 1058 0 l 571 0 l 571 301 l 263 301 l 97 0 l 29 0 l 536 915 l 1044 915 l 1044 860 l 635 860 l 635 514 l 975 514 l 975 458 l 635 458 l 635 56 l 1058 56 z "},"Ç":{"ha":783,"x_min":76,"x_max":732,"o":"m 76 460 q 105 656 76 568 q 185 805 133 743 q 308 899 236 867 q 468 932 381 932 q 608 899 547 932 q 706 822 669 865 l 667 781 q 581 848 631 822 q 468 874 531 874 q 333 844 393 874 q 230 762 272 815 q 165 632 188 708 q 143 460 143 556 q 165 287 143 364 q 229 156 188 210 q 330 72 271 101 q 463 42 389 42 q 588 69 533 42 q 693 154 643 97 l 732 114 q 614 18 679 53 q 460 -17 549 -17 q 304 17 375 -17 q 183 112 233 50 q 104 262 132 174 q 76 460 76 350 m 460 3 l 508 3 l 468 -75 q 526 -108 501 -86 q 551 -171 551 -129 q 537 -219 551 -199 q 498 -253 522 -239 q 442 -276 474 -267 q 378 -289 411 -285 l 368 -247 q 462 -222 426 -239 q 497 -176 497 -206 q 471 -129 497 -144 q 404 -103 444 -114 l 460 3 z "},"Ć":{"ha":783,"x_min":76,"x_max":732,"o":"m 76 460 q 105 656 76 568 q 185 805 133 743 q 308 899 236 867 q 468 932 381 932 q 608 899 547 932 q 706 822 669 865 l 667 781 q 581 848 631 822 q 468 874 531 874 q 333 844 393 874 q 230 762 272 815 q 165 632 188 708 q 143 460 143 556 q 165 287 143 364 q 229 156 188 210 q 330 72 271 101 q 463 42 389 42 q 588 69 533 42 q 693 154 643 97 l 732 114 q 614 18 679 53 q 460 -17 549 -17 q 304 17 375 -17 q 183 112 233 50 q 104 262 132 174 q 76 460 76 350 m 453 985 l 397 985 l 525 1132 l 606 1132 l 453 985 z "},"Ĉ":{"ha":783,"x_min":76,"x_max":732,"o":"m 76 460 q 105 656 76 568 q 185 805 133 743 q 308 899 236 867 q 468 932 381 932 q 608 899 547 932 q 706 822 669 865 l 667 781 q 581 848 631 822 q 468 874 531 874 q 333 844 393 874 q 230 762 272 815 q 165 632 188 708 q 143 460 143 556 q 165 287 143 364 q 229 156 188 210 q 330 72 271 101 q 463 42 389 42 q 588 69 533 42 q 693 154 643 97 l 732 114 q 614 18 679 53 q 460 -17 549 -17 q 304 17 375 -17 q 183 112 233 50 q 104 262 132 174 q 76 460 76 350 m 286 985 l 419 1132 l 478 1132 l 611 985 l 556 985 l 451 1085 l 446 1085 l 342 985 l 286 985 z "},"Č":{"ha":783,"x_min":76,"x_max":732,"o":"m 76 460 q 105 656 76 568 q 185 805 133 743 q 308 899 236 867 q 468 932 381 932 q 608 899 547 932 q 706 822 669 865 l 667 781 q 581 848 631 822 q 468 874 531 874 q 333 844 393 874 q 230 762 272 815 q 165 632 188 708 q 143 460 143 556 q 165 287 143 364 q 229 156 188 210 q 330 72 271 101 q 463 42 389 42 q 588 69 533 42 q 693 154 643 97 l 732 114 q 614 18 679 53 q 460 -17 549 -17 q 304 17 375 -17 q 183 112 233 50 q 104 262 132 174 q 76 460 76 350 m 611 1132 l 478 985 l 419 985 l 286 1132 l 342 1132 l 446 1032 l 451 1032 l 556 1132 l 611 1132 z "},"Ċ":{"ha":783,"x_min":76,"x_max":732,"o":"m 76 460 q 105 656 76 568 q 185 805 133 743 q 308 899 236 867 q 468 932 381 932 q 608 899 547 932 q 706 822 669 865 l 667 781 q 581 848 631 822 q 468 874 531 874 q 333 844 393 874 q 230 762 272 815 q 165 632 188 708 q 143 460 143 556 q 165 287 143 364 q 229 156 188 210 q 330 72 271 101 q 463 42 389 42 q 588 69 533 42 q 693 154 643 97 l 732 114 q 614 18 679 53 q 460 -17 549 -17 q 304 17 375 -17 q 183 112 233 50 q 104 262 132 174 q 76 460 76 350 m 449 1001 q 409 1017 425 1001 q 393 1058 393 1032 q 409 1097 393 1082 q 449 1113 425 1113 q 488 1097 472 1113 q 504 1058 504 1082 q 488 1017 504 1032 q 449 1001 472 1001 z "},"Ď":{"ha":839,"x_min":135,"x_max":763,"o":"m 135 915 l 347 915 q 531 883 453 915 q 661 792 610 851 q 738 649 713 732 q 763 461 763 565 q 738 272 763 357 q 661 126 713 186 q 532 33 610 65 q 349 0 454 0 l 135 0 l 135 915 m 340 54 q 501 84 433 54 q 611 168 568 114 q 675 297 654 222 q 696 461 696 371 q 675 624 696 550 q 611 750 654 697 q 501 832 568 803 q 340 861 433 861 l 199 861 l 199 54 l 340 54 m 582 1132 l 449 985 l 390 985 l 257 1132 l 313 1132 l 417 1032 l 422 1032 l 526 1132 l 582 1132 z "},"Ḍ":{"ha":839,"x_min":135,"x_max":763,"o":"m 135 915 l 347 915 q 531 883 453 915 q 661 792 610 851 q 738 649 713 732 q 763 461 763 565 q 738 272 763 357 q 661 126 713 186 q 532 33 610 65 q 349 0 454 0 l 135 0 l 135 915 m 340 54 q 501 84 433 54 q 611 168 568 114 q 675 297 654 222 q 696 461 696 371 q 675 624 696 550 q 611 750 654 697 q 501 832 568 803 q 340 861 433 861 l 199 861 l 199 54 l 340 54 m 417 -269 q 378 -254 393 -269 q 364 -212 364 -239 q 378 -174 364 -189 q 417 -158 393 -158 q 455 -174 440 -158 q 469 -212 469 -189 q 455 -254 469 -239 q 417 -269 440 -269 z "},"Ḏ":{"ha":839,"x_min":135,"x_max":763,"o":"m 135 915 l 347 915 q 531 883 453 915 q 661 792 610 851 q 738 649 713 732 q 763 461 763 565 q 738 272 763 357 q 661 126 713 186 q 532 33 610 65 q 349 0 454 0 l 135 0 l 135 915 m 340 54 q 501 84 433 54 q 611 168 568 114 q 675 297 654 222 q 696 461 696 371 q 675 624 696 550 q 611 750 654 697 q 501 832 568 803 q 340 861 433 861 l 199 861 l 199 54 l 340 54 m 574 -222 l 257 -222 l 257 -172 l 574 -172 l 574 -222 z "},"Đ":{"ha":868,"x_min":51,"x_max":792,"o":"m 369 54 q 529 84 463 54 q 640 168 596 114 q 704 297 683 222 q 725 461 725 371 q 704 624 725 550 q 640 750 683 697 q 529 832 596 803 q 369 861 463 861 l 228 861 l 228 507 l 454 507 l 454 461 l 228 461 l 228 54 l 369 54 m 375 915 q 559 883 481 915 q 690 792 638 851 q 767 649 742 732 q 792 461 792 565 q 767 272 792 357 q 690 126 742 186 q 560 33 639 65 q 376 0 482 0 l 164 0 l 164 461 l 51 461 l 51 504 l 164 507 l 164 915 l 375 915 z "},"È":{"ha":715,"x_min":135,"x_max":650,"o":"m 135 915 l 636 915 l 636 860 l 199 860 l 199 514 l 565 514 l 565 458 l 199 458 l 199 56 l 650 56 l 650 0 l 135 0 l 135 915 m 235 1132 l 315 1132 l 443 985 l 388 985 l 235 1132 z "},"É":{"ha":715,"x_min":135,"x_max":650,"o":"m 135 915 l 636 915 l 636 860 l 199 860 l 199 514 l 565 514 l 565 458 l 199 458 l 199 56 l 650 56 l 650 0 l 135 0 l 135 915 m 396 985 l 340 985 l 468 1132 l 549 1132 l 396 985 z "},"Ê":{"ha":715,"x_min":135,"x_max":650,"o":"m 135 915 l 636 915 l 636 860 l 199 860 l 199 514 l 565 514 l 565 458 l 199 458 l 199 56 l 650 56 l 650 0 l 135 0 l 135 915 m 229 985 l 363 1132 l 421 1132 l 554 985 l 499 985 l 394 1085 l 389 1085 l 285 985 l 229 985 z "},"Ě":{"ha":715,"x_min":135,"x_max":650,"o":"m 135 915 l 636 915 l 636 860 l 199 860 l 199 514 l 565 514 l 565 458 l 199 458 l 199 56 l 650 56 l 650 0 l 135 0 l 135 915 m 554 1132 l 421 985 l 363 985 l 229 1132 l 285 1132 l 389 1032 l 394 1032 l 499 1132 l 554 1132 z "},"Ë":{"ha":715,"x_min":135,"x_max":650,"o":"m 135 915 l 636 915 l 636 860 l 199 860 l 199 514 l 565 514 l 565 458 l 199 458 l 199 56 l 650 56 l 650 0 l 135 0 l 135 915 m 282 1007 q 246 1020 260 1007 q 232 1057 232 1033 q 246 1094 232 1081 q 282 1108 260 1108 q 319 1094 304 1108 q 333 1057 333 1081 q 319 1020 333 1033 q 282 1007 304 1007 m 501 1007 q 465 1020 479 1007 q 450 1057 450 1033 q 465 1094 450 1081 q 501 1108 479 1108 q 538 1094 524 1108 q 551 1057 551 1081 q 538 1020 551 1033 q 501 1007 524 1007 z "},"Ē":{"ha":715,"x_min":135,"x_max":650,"o":"m 135 915 l 636 915 l 636 860 l 199 860 l 199 514 l 565 514 l 565 458 l 199 458 l 199 56 l 650 56 l 650 0 l 135 0 l 135 915 m 233 1069 l 550 1069 l 550 1019 l 233 1019 l 233 1069 z "},"Ĕ":{"ha":715,"x_min":135,"x_max":650,"o":"m 135 915 l 636 915 l 636 860 l 199 860 l 199 514 l 565 514 l 565 458 l 199 458 l 199 56 l 650 56 l 650 0 l 135 0 l 135 915 m 392 988 q 323 1001 351 988 q 275 1036 294 1015 q 245 1083 256 1057 q 232 1132 235 1108 l 278 1132 q 310 1064 283 1096 q 392 1032 338 1032 q 438 1041 418 1032 q 472 1064 458 1050 q 494 1096 486 1078 q 506 1132 503 1114 l 551 1132 q 538 1083 549 1108 q 508 1036 528 1057 q 460 1001 489 1015 q 392 988 431 988 z "},"Ė":{"ha":715,"x_min":135,"x_max":650,"o":"m 135 915 l 636 915 l 636 860 l 199 860 l 199 514 l 565 514 l 565 458 l 199 458 l 199 56 l 650 56 l 650 0 l 135 0 l 135 915 m 392 1001 q 352 1017 368 1001 q 336 1058 336 1032 q 352 1097 336 1082 q 392 1113 368 1113 q 431 1097 415 1113 q 447 1058 447 1082 q 431 1017 447 1032 q 392 1001 415 1001 z "},"Ẹ":{"ha":715,"x_min":135,"x_max":650,"o":"m 135 915 l 636 915 l 636 860 l 199 860 l 199 514 l 565 514 l 565 458 l 199 458 l 199 56 l 650 56 l 650 0 l 135 0 l 135 915 m 411 -269 q 373 -254 388 -269 q 358 -212 358 -239 q 373 -174 358 -189 q 411 -158 388 -158 q 449 -174 435 -158 q 464 -212 464 -189 q 449 -254 464 -239 q 411 -269 435 -269 z "},"Ẻ":{"ha":715,"x_min":135,"x_max":650,"o":"m 135 915 l 636 915 l 636 860 l 199 860 l 199 514 l 565 514 l 565 458 l 199 458 l 199 56 l 650 56 l 650 0 l 135 0 l 135 915 m 347 1013 q 410 1041 385 1024 q 435 1088 435 1058 q 317 1154 435 1150 l 322 1199 q 388 1191 357 1197 q 441 1172 418 1185 q 477 1141 464 1160 q 490 1096 490 1122 q 479 1049 490 1068 q 449 1015 468 1029 q 407 992 431 1001 q 358 975 383 982 l 347 1013 z "},"Ẽ":{"ha":715,"x_min":135,"x_max":650,"o":"m 135 915 l 636 915 l 636 860 l 199 860 l 199 514 l 565 514 l 565 458 l 199 458 l 199 56 l 650 56 l 650 0 l 135 0 l 135 915 m 474 994 q 424 1007 446 994 q 384 1034 403 1019 q 347 1061 365 1049 q 308 1074 329 1074 q 271 1052 286 1074 q 251 994 256 1031 l 211 994 q 219 1041 213 1018 q 239 1082 226 1064 q 269 1111 251 1100 q 310 1122 286 1122 q 358 1110 338 1122 q 398 1083 379 1097 q 435 1056 417 1068 q 475 1044 454 1044 q 513 1065 497 1044 q 532 1122 528 1086 l 572 1122 q 564 1076 571 1099 q 544 1035 557 1054 q 515 1006 532 1017 q 474 994 497 994 z "},"Ế":{"ha":715,"x_min":135,"x_max":667,"o":"m 135 915 l 636 915 l 636 860 l 199 860 l 199 514 l 565 514 l 565 458 l 199 458 l 199 56 l 650 56 l 650 0 l 135 0 l 135 915 m 600 1217 l 667 1217 l 547 1069 l 501 1069 l 600 1217 m 364 1124 l 419 1124 l 546 985 l 492 985 l 394 1076 l 389 1076 l 292 985 l 238 985 l 364 1124 z "},"Ề":{"ha":715,"x_min":135,"x_max":650,"o":"m 135 915 l 636 915 l 636 860 l 199 860 l 199 514 l 565 514 l 565 458 l 199 458 l 199 56 l 650 56 l 650 0 l 135 0 l 135 915 m 603 1069 l 557 1069 l 438 1217 l 503 1217 l 603 1069 m 364 1124 l 419 1124 l 546 985 l 492 985 l 394 1076 l 389 1076 l 292 985 l 238 985 l 364 1124 z "},"Ể":{"ha":715,"x_min":135,"x_max":650,"o":"m 135 915 l 636 915 l 636 860 l 199 860 l 199 514 l 565 514 l 565 458 l 199 458 l 199 56 l 650 56 l 650 0 l 135 0 l 135 915 m 519 1089 q 569 1110 549 1096 q 590 1147 590 1124 q 565 1191 590 1179 q 489 1206 539 1203 l 496 1249 q 601 1224 558 1246 q 643 1154 643 1203 q 633 1113 643 1131 q 608 1083 624 1096 q 572 1063 592 1071 q 533 1051 553 1056 l 519 1089 m 364 1124 l 419 1124 l 546 985 l 492 985 l 394 1076 l 389 1076 l 292 985 l 238 985 l 364 1124 z "},"Ễ":{"ha":715,"x_min":135,"x_max":650,"o":"m 135 915 l 636 915 l 636 860 l 199 860 l 199 514 l 565 514 l 565 458 l 199 458 l 199 56 l 650 56 l 650 0 l 135 0 l 135 915 m 364 1124 l 419 1124 l 546 985 l 492 985 l 394 1076 l 389 1076 l 292 985 l 238 985 l 364 1124 m 222 1171 q 230 1210 224 1190 q 249 1247 236 1231 q 278 1273 261 1263 q 321 1283 296 1283 q 365 1273 346 1283 q 399 1249 383 1263 q 430 1226 415 1236 q 463 1215 444 1215 q 501 1233 486 1215 q 521 1283 517 1251 l 561 1283 q 553 1244 560 1264 q 535 1208 547 1224 q 505 1181 522 1192 q 463 1171 488 1171 q 419 1181 438 1171 q 384 1205 400 1192 q 353 1228 368 1218 q 321 1239 339 1239 q 282 1221 297 1239 q 263 1171 267 1203 l 222 1171 z "},"Ệ":{"ha":715,"x_min":135,"x_max":650,"o":"m 135 915 l 636 915 l 636 860 l 199 860 l 199 514 l 565 514 l 565 458 l 199 458 l 199 56 l 650 56 l 650 0 l 135 0 l 135 915 m 229 985 l 363 1132 l 421 1132 l 554 985 l 499 985 l 394 1085 l 389 1085 l 285 985 l 229 985 m 411 -269 q 373 -254 388 -269 q 358 -212 358 -239 q 373 -174 358 -189 q 411 -158 388 -158 q 449 -174 435 -158 q 464 -212 464 -189 q 449 -254 464 -239 q 411 -269 435 -269 z "},"Ę":{"ha":715,"x_min":135,"x_max":668,"o":"m 135 915 l 636 915 l 636 860 l 199 860 l 199 514 l 565 514 l 565 458 l 199 458 l 199 56 l 650 56 l 650 0 l 646 0 q 599 -19 622 -4 q 558 -55 576 -33 q 527 -103 539 -76 q 515 -161 515 -131 q 537 -215 515 -197 q 585 -233 558 -233 q 644 -214 619 -233 l 668 -251 q 626 -275 651 -265 q 576 -285 600 -285 q 494 -257 528 -285 q 460 -171 460 -229 q 490 -72 460 -117 q 561 0 521 -26 l 135 0 l 135 915 z "},"Ĝ":{"ha":840,"x_min":76,"x_max":740,"o":"m 76 460 q 106 656 76 568 q 188 805 135 743 q 316 899 242 867 q 482 932 390 932 q 565 922 528 932 q 633 897 603 913 q 688 861 664 881 q 731 822 713 842 l 693 781 q 607 847 657 819 q 482 874 557 874 q 340 844 403 874 q 234 762 278 815 q 167 632 190 708 q 143 460 143 556 q 165 287 143 364 q 230 156 188 210 q 334 72 272 101 q 474 42 396 42 q 591 60 536 42 q 679 111 646 78 l 679 396 l 460 396 l 460 450 l 740 450 l 740 88 q 628 13 697 42 q 468 -17 560 -17 q 308 17 381 -17 q 185 112 236 50 q 105 262 133 174 q 76 460 76 350 m 318 985 l 451 1132 l 510 1132 l 643 985 l 588 985 l 483 1085 l 478 1085 l 374 985 l 318 985 z "},"Ğ":{"ha":840,"x_min":76,"x_max":740,"o":"m 76 460 q 106 656 76 568 q 188 805 135 743 q 316 899 242 867 q 482 932 390 932 q 565 922 528 932 q 633 897 603 913 q 688 861 664 881 q 731 822 713 842 l 693 781 q 607 847 657 819 q 482 874 557 874 q 340 844 403 874 q 234 762 278 815 q 167 632 190 708 q 143 460 143 556 q 165 287 143 364 q 230 156 188 210 q 334 72 272 101 q 474 42 396 42 q 591 60 536 42 q 679 111 646 78 l 679 396 l 460 396 l 460 450 l 740 450 l 740 88 q 628 13 697 42 q 468 -17 560 -17 q 308 17 381 -17 q 185 112 236 50 q 105 262 133 174 q 76 460 76 350 m 481 988 q 412 1001 440 988 q 364 1036 383 1015 q 334 1083 344 1057 q 321 1132 324 1108 l 367 1132 q 399 1064 372 1096 q 481 1032 426 1032 q 527 1041 507 1032 q 561 1064 547 1050 q 583 1096 575 1078 q 594 1132 592 1114 l 640 1132 q 627 1083 638 1108 q 597 1036 617 1057 q 549 1001 578 1015 q 481 988 519 988 z "},"Ġ":{"ha":840,"x_min":76,"x_max":740,"o":"m 76 460 q 106 656 76 568 q 188 805 135 743 q 316 899 242 867 q 482 932 390 932 q 565 922 528 932 q 633 897 603 913 q 688 861 664 881 q 731 822 713 842 l 693 781 q 607 847 657 819 q 482 874 557 874 q 340 844 403 874 q 234 762 278 815 q 167 632 190 708 q 143 460 143 556 q 165 287 143 364 q 230 156 188 210 q 334 72 272 101 q 474 42 396 42 q 591 60 536 42 q 679 111 646 78 l 679 396 l 460 396 l 460 450 l 740 450 l 740 88 q 628 13 697 42 q 468 -17 560 -17 q 308 17 381 -17 q 185 112 236 50 q 105 262 133 174 q 76 460 76 350 m 481 1001 q 441 1017 457 1001 q 425 1058 425 1032 q 441 1097 425 1082 q 481 1113 457 1113 q 520 1097 504 1113 q 536 1058 536 1082 q 520 1017 536 1032 q 481 1001 504 1001 z "},"Ģ":{"ha":840,"x_min":76,"x_max":740,"o":"m 76 460 q 106 656 76 568 q 188 805 135 743 q 316 899 242 867 q 482 932 390 932 q 565 922 528 932 q 633 897 603 913 q 688 861 664 881 q 731 822 713 842 l 693 781 q 607 847 657 819 q 482 874 557 874 q 340 844 403 874 q 234 762 278 815 q 167 632 190 708 q 143 460 143 556 q 165 287 143 364 q 230 156 188 210 q 334 72 272 101 q 474 42 396 42 q 591 60 536 42 q 679 111 646 78 l 679 396 l 460 396 l 460 450 l 740 450 l 740 88 q 628 13 697 42 q 468 -17 560 -17 q 308 17 381 -17 q 185 112 236 50 q 105 262 133 174 q 76 460 76 350 m 438 -71 q 524 -106 494 -82 q 553 -172 553 -129 q 538 -220 553 -200 q 499 -254 524 -240 q 444 -277 475 -268 q 379 -290 413 -286 l 369 -249 q 463 -224 428 -240 q 499 -179 499 -207 q 474 -133 499 -147 q 419 -111 450 -118 l 438 -71 l 438 -71 z "},"Ǧ":{"ha":840,"x_min":76,"x_max":740,"o":"m 76 460 q 106 656 76 568 q 188 805 135 743 q 316 899 242 867 q 482 932 390 932 q 565 922 528 932 q 633 897 603 913 q 688 861 664 881 q 731 822 713 842 l 693 781 q 607 847 657 819 q 482 874 557 874 q 340 844 403 874 q 234 762 278 815 q 167 632 190 708 q 143 460 143 556 q 165 287 143 364 q 230 156 188 210 q 334 72 272 101 q 474 42 396 42 q 591 60 536 42 q 679 111 646 78 l 679 396 l 460 396 l 460 450 l 740 450 l 740 88 q 628 13 697 42 q 468 -17 560 -17 q 308 17 381 -17 q 185 112 236 50 q 105 262 133 174 q 76 460 76 350 m 643 1132 l 510 985 l 451 985 l 318 1132 l 374 1132 l 478 1032 l 483 1032 l 588 1132 l 643 1132 z "},"Ḡ":{"ha":840,"x_min":76,"x_max":740,"o":"m 76 460 q 106 656 76 568 q 188 805 135 743 q 316 899 242 867 q 482 932 390 932 q 565 922 528 932 q 633 897 603 913 q 688 861 664 881 q 731 822 713 842 l 693 781 q 607 847 657 819 q 482 874 557 874 q 340 844 403 874 q 234 762 278 815 q 167 632 190 708 q 143 460 143 556 q 165 287 143 364 q 230 156 188 210 q 334 72 272 101 q 474 42 396 42 q 591 60 536 42 q 679 111 646 78 l 679 396 l 460 396 l 460 450 l 740 450 l 740 88 q 628 13 697 42 q 468 -17 560 -17 q 308 17 381 -17 q 185 112 236 50 q 105 262 133 174 q 76 460 76 350 m 322 1069 l 639 1069 l 639 1019 l 322 1019 l 322 1069 z "},"Ĥ":{"ha":888,"x_min":135,"x_max":753,"o":"m 135 915 l 199 915 l 199 514 l 689 514 l 689 915 l 753 915 l 753 0 l 689 0 l 689 458 l 199 458 l 199 0 l 135 0 l 135 915 m 281 985 l 414 1132 l 472 1132 l 606 985 l 550 985 l 446 1085 l 440 1085 l 336 985 l 281 985 z "},"Ḥ":{"ha":888,"x_min":135,"x_max":753,"o":"m 135 915 l 199 915 l 199 514 l 689 514 l 689 915 l 753 915 l 753 0 l 689 0 l 689 458 l 199 458 l 199 0 l 135 0 l 135 915 m 443 -269 q 405 -254 419 -269 q 390 -212 390 -239 q 405 -174 390 -189 q 443 -158 419 -158 q 481 -174 467 -158 q 496 -212 496 -189 q 481 -254 496 -239 q 443 -269 467 -269 z "},"Ḫ":{"ha":888,"x_min":135,"x_max":753,"o":"m 135 915 l 199 915 l 199 514 l 689 514 l 689 915 l 753 915 l 753 0 l 689 0 l 689 458 l 199 458 l 199 0 l 135 0 l 135 915 m 443 -282 q 370 -266 400 -282 q 321 -226 340 -250 q 291 -172 301 -201 q 278 -117 281 -143 l 324 -117 q 335 -160 326 -139 q 359 -199 344 -182 q 394 -226 374 -215 q 443 -236 415 -236 q 492 -226 471 -236 q 527 -199 513 -215 q 551 -160 542 -182 q 563 -117 560 -139 l 608 -117 q 595 -172 606 -143 q 565 -226 585 -201 q 516 -266 546 -250 q 443 -282 486 -282 z "},"Ħ":{"ha":933,"x_min":50,"x_max":882,"o":"m 717 688 l 226 688 l 226 514 l 717 514 l 717 688 m 882 688 l 781 688 l 781 0 l 717 0 l 717 458 l 226 458 l 226 0 l 163 0 l 163 688 l 50 688 l 50 728 l 163 733 l 163 915 l 226 915 l 226 733 l 717 733 l 717 915 l 781 915 l 781 733 l 882 733 l 882 688 z "},"Ì":{"ha":333,"x_min":10,"x_max":218,"o":"m 135 915 l 199 915 l 199 0 l 135 0 l 135 915 m 10 1132 l 90 1132 l 218 985 l 163 985 l 10 1132 z "},"Í":{"ha":333,"x_min":115,"x_max":324,"o":"m 135 915 l 199 915 l 199 0 l 135 0 l 135 915 m 171 985 l 115 985 l 243 1132 l 324 1132 l 171 985 z "},"Î":{"ha":333,"x_min":4,"x_max":329,"o":"m 135 915 l 199 915 l 199 0 l 135 0 l 135 915 m 4 985 l 138 1132 l 196 1132 l 329 985 l 274 985 l 169 1085 l 164 1085 l 60 985 l 4 985 z "},"Ĩ":{"ha":333,"x_min":-14,"x_max":347,"o":"m 135 915 l 199 915 l 199 0 l 135 0 l 135 915 m 249 994 q 199 1007 221 994 q 159 1034 178 1019 q 122 1061 140 1049 q 83 1074 104 1074 q 46 1052 61 1074 q 26 994 31 1031 l -14 994 q -6 1041 -12 1018 q 14 1082 1 1064 q 44 1111 26 1100 q 85 1122 61 1122 q 133 1110 113 1122 q 173 1083 154 1097 q 210 1056 192 1068 q 250 1044 229 1044 q 288 1065 272 1044 q 307 1122 303 1086 l 347 1122 q 339 1076 346 1099 q 319 1035 332 1054 q 290 1006 307 1017 q 249 994 272 994 z "},"Ï":{"ha":333,"x_min":7,"x_max":326,"o":"m 135 915 l 199 915 l 199 0 l 135 0 l 135 915 m 57 1007 q 21 1020 35 1007 q 7 1057 7 1033 q 21 1094 7 1081 q 57 1108 35 1108 q 94 1094 79 1108 q 108 1057 108 1081 q 94 1020 108 1033 q 57 1007 79 1007 m 276 1007 q 240 1020 254 1007 q 225 1057 225 1033 q 240 1094 225 1081 q 276 1108 254 1108 q 313 1094 299 1108 q 326 1057 326 1081 q 313 1020 326 1033 q 276 1007 299 1007 z "},"Ī":{"ha":333,"x_min":8,"x_max":325,"o":"m 135 915 l 199 915 l 199 0 l 135 0 l 135 915 m 8 1069 l 325 1069 l 325 1019 l 8 1019 l 8 1069 z "},"İ":{"ha":333,"x_min":111,"x_max":222,"o":"m 135 915 l 199 915 l 199 0 l 135 0 l 135 915 m 167 1001 q 127 1017 143 1001 q 111 1058 111 1032 q 127 1097 111 1082 q 167 1113 143 1113 q 206 1097 190 1113 q 222 1058 222 1082 q 206 1017 222 1032 q 167 1001 190 1001 z "},"Ǐ":{"ha":333,"x_min":4,"x_max":329,"o":"m 135 915 l 199 915 l 199 0 l 135 0 l 135 915 m 329 1132 l 196 985 l 138 985 l 4 1132 l 60 1132 l 164 1032 l 169 1032 l 274 1132 l 329 1132 z "},"Ỉ":{"ha":333,"x_min":92,"x_max":265,"o":"m 135 915 l 199 915 l 199 0 l 135 0 l 135 915 m 122 1013 q 185 1041 160 1024 q 210 1088 210 1058 q 92 1154 210 1150 l 97 1199 q 163 1191 132 1197 q 216 1172 193 1185 q 252 1141 239 1160 q 265 1096 265 1122 q 254 1049 265 1068 q 224 1015 243 1029 q 182 992 206 1001 q 133 975 158 982 l 122 1013 z "},"Ị":{"ha":333,"x_min":115,"x_max":221,"o":"m 135 915 l 199 915 l 199 0 l 135 0 l 135 915 m 168 -269 q 130 -254 144 -269 q 115 -212 115 -239 q 130 -174 115 -189 q 168 -158 144 -158 q 206 -174 192 -158 q 221 -212 221 -189 q 206 -254 221 -239 q 168 -269 192 -269 z "},"Į":{"ha":333,"x_min":61,"x_max":268,"o":"m 135 915 l 199 915 l 199 0 q 139 -78 163 -40 q 115 -161 115 -115 q 138 -215 115 -197 q 186 -233 160 -233 q 246 -214 221 -233 l 268 -251 q 227 -275 253 -265 q 178 -285 201 -285 q 95 -257 129 -285 q 61 -171 61 -229 q 86 -75 61 -114 q 147 0 111 -36 l 135 0 l 135 915 z "},"Ĵ":{"ha":642,"x_min":57,"x_max":635,"o":"m 106 150 q 181 67 139 92 q 282 42 224 42 q 406 92 365 42 q 446 256 446 143 l 446 915 l 510 915 l 510 249 q 497 145 510 193 q 458 61 485 97 q 388 4 431 25 q 282 -17 344 -17 q 149 18 206 -17 q 57 118 92 53 l 106 150 m 310 985 l 443 1132 l 501 1132 l 635 985 l 579 985 l 475 1085 l 469 1085 l 365 985 l 310 985 z "},"Ķ":{"ha":775,"x_min":135,"x_max":761,"o":"m 135 915 l 199 915 l 199 407 l 201 407 l 644 915 l 721 915 l 429 576 l 761 0 l 688 0 l 385 528 l 199 315 l 199 0 l 135 0 l 135 915 m 413 -71 q 499 -106 469 -82 q 528 -172 528 -129 q 513 -220 528 -200 q 474 -254 499 -240 q 419 -277 450 -268 q 354 -290 388 -286 l 344 -249 q 438 -224 403 -240 q 474 -179 474 -207 q 449 -133 474 -147 q 394 -111 425 -118 l 413 -71 l 413 -71 z "},"Ĺ":{"ha":649,"x_min":118,"x_max":621,"o":"m 135 915 l 199 915 l 199 56 l 621 56 l 621 0 l 135 0 l 135 915 m 174 985 l 118 985 l 246 1132 l 326 1132 l 174 985 z "},"Ľ":{"ha":649,"x_min":135,"x_max":621,"o":"m 135 915 l 199 915 l 199 56 l 621 56 l 621 0 l 135 0 l 135 915 m 447 719 l 443 1006 l 496 1006 l 496 936 l 485 719 l 447 719 z "},"Ļ":{"ha":649,"x_min":135,"x_max":621,"o":"m 135 915 l 199 915 l 199 56 l 621 56 l 621 0 l 135 0 l 135 915 m 363 -71 q 449 -106 419 -82 q 478 -172 478 -129 q 463 -220 478 -200 q 424 -254 449 -240 q 369 -277 400 -268 q 304 -290 338 -286 l 294 -249 q 388 -224 353 -240 q 424 -179 424 -207 q 399 -133 424 -147 q 344 -111 375 -118 l 363 -71 l 363 -71 z "},"Ŀ":{"ha":649,"x_min":135,"x_max":621,"o":"m 135 915 l 199 915 l 199 56 l 621 56 l 621 0 l 135 0 l 135 915 m 438 449 q 456 496 438 479 q 497 513 474 513 q 538 496 521 513 q 556 449 556 479 q 538 403 556 419 q 497 386 521 386 q 456 403 474 386 q 438 449 438 419 z "},"Ḷ":{"ha":649,"x_min":135,"x_max":621,"o":"m 135 915 l 199 915 l 199 56 l 621 56 l 621 0 l 135 0 l 135 915 m 397 -269 q 359 -254 374 -269 q 344 -212 344 -239 q 359 -174 344 -189 q 397 -158 374 -158 q 435 -174 421 -158 q 450 -212 450 -189 q 435 -254 450 -239 q 397 -269 421 -269 z "},"Ḹ":{"ha":649,"x_min":11,"x_max":621,"o":"m 135 915 l 199 915 l 199 56 l 621 56 l 621 0 l 135 0 l 135 915 m 11 1069 l 328 1069 l 328 1019 l 11 1019 l 11 1069 m 397 -269 q 359 -254 374 -269 q 344 -212 344 -239 q 359 -174 344 -189 q 397 -158 374 -158 q 435 -174 421 -158 q 450 -212 450 -189 q 435 -254 450 -239 q 397 -269 421 -269 z "},"Ḻ":{"ha":649,"x_min":135,"x_max":621,"o":"m 135 915 l 199 915 l 199 56 l 621 56 l 621 0 l 135 0 l 135 915 m 554 -222 l 238 -222 l 238 -172 l 554 -172 l 554 -222 z "},"Ł":{"ha":650,"x_min":19,"x_max":626,"o":"m 626 56 l 626 0 l 142 0 l 142 357 l 19 292 l 19 347 l 142 414 l 142 915 l 206 915 l 206 443 l 474 582 l 474 526 l 206 388 l 206 56 l 626 56 z "},"Ṃ":{"ha":981,"x_min":135,"x_max":846,"o":"m 135 915 l 225 915 l 417 378 l 489 175 l 494 175 l 564 378 l 756 915 l 846 915 l 846 0 l 783 0 l 783 601 q 786 724 783 658 q 792 849 789 790 l 786 849 l 714 647 l 518 100 l 461 100 l 264 647 l 192 849 l 186 849 q 192 724 189 790 q 194 601 194 658 l 194 0 l 135 0 l 135 915 m 492 -269 q 453 -254 468 -269 q 439 -212 439 -239 q 453 -174 439 -189 q 492 -158 468 -158 q 530 -174 515 -158 q 544 -212 544 -189 q 530 -254 544 -239 q 492 -269 515 -269 z "},"Ń":{"ha":883,"x_min":135,"x_max":749,"o":"m 135 915 l 201 915 l 588 269 l 690 88 l 696 88 q 690 221 693 154 q 688 354 688 288 l 688 915 l 749 915 l 749 0 l 682 0 l 296 646 l 193 828 l 188 828 q 193 698 190 761 q 196 568 196 635 l 196 0 l 135 0 l 135 915 m 453 985 l 397 985 l 525 1132 l 606 1132 l 453 985 z "},"Ň":{"ha":883,"x_min":135,"x_max":749,"o":"m 135 915 l 201 915 l 588 269 l 690 88 l 696 88 q 690 221 693 154 q 688 354 688 288 l 688 915 l 749 915 l 749 0 l 682 0 l 296 646 l 193 828 l 188 828 q 193 698 190 761 q 196 568 196 635 l 196 0 l 135 0 l 135 915 m 611 1132 l 478 985 l 419 985 l 286 1132 l 342 1132 l 446 1032 l 451 1032 l 556 1132 l 611 1132 z "},"Ñ":{"ha":883,"x_min":135,"x_max":749,"o":"m 135 915 l 201 915 l 588 269 l 690 88 l 696 88 q 690 221 693 154 q 688 354 688 288 l 688 915 l 749 915 l 749 0 l 682 0 l 296 646 l 193 828 l 188 828 q 193 698 190 761 q 196 568 196 635 l 196 0 l 135 0 l 135 915 m 531 994 q 481 1007 503 994 q 441 1034 460 1019 q 404 1061 422 1049 q 365 1074 386 1074 q 328 1052 343 1074 q 308 994 313 1031 l 268 994 q 276 1041 269 1018 q 296 1082 283 1064 q 326 1111 308 1100 q 367 1122 343 1122 q 415 1110 394 1122 q 455 1083 436 1097 q 492 1056 474 1068 q 532 1044 511 1044 q 569 1065 554 1044 q 589 1122 585 1086 l 629 1122 q 621 1076 628 1099 q 601 1035 614 1054 q 572 1006 589 1017 q 531 994 554 994 z "},"Ņ":{"ha":883,"x_min":135,"x_max":749,"o":"m 135 915 l 201 915 l 588 269 l 690 88 l 696 88 q 690 221 693 154 q 688 354 688 288 l 688 915 l 749 915 l 749 0 l 682 0 l 296 646 l 193 828 l 188 828 q 193 698 190 761 q 196 568 196 635 l 196 0 l 135 0 l 135 915 m 408 -71 q 494 -106 465 -82 q 524 -172 524 -129 q 509 -220 524 -200 q 470 -254 494 -240 q 415 -277 446 -268 q 350 -290 383 -286 l 340 -249 q 434 -224 399 -240 q 469 -179 469 -207 q 445 -133 469 -147 q 390 -111 421 -118 l 408 -71 l 408 -71 z "},"Ṅ":{"ha":883,"x_min":135,"x_max":749,"o":"m 135 915 l 201 915 l 588 269 l 690 88 l 696 88 q 690 221 693 154 q 688 354 688 288 l 688 915 l 749 915 l 749 0 l 682 0 l 296 646 l 193 828 l 188 828 q 193 698 190 761 q 196 568 196 635 l 196 0 l 135 0 l 135 915 m 449 1001 q 409 1017 425 1001 q 393 1058 393 1032 q 409 1097 393 1082 q 449 1113 425 1113 q 488 1097 472 1113 q 504 1058 504 1082 q 488 1017 504 1032 q 449 1001 472 1001 z "},"Ṇ":{"ha":883,"x_min":135,"x_max":749,"o":"m 135 915 l 201 915 l 588 269 l 690 88 l 696 88 q 690 221 693 154 q 688 354 688 288 l 688 915 l 749 915 l 749 0 l 682 0 l 296 646 l 193 828 l 188 828 q 193 698 190 761 q 196 568 196 635 l 196 0 l 135 0 l 135 915 m 443 -269 q 405 -254 419 -269 q 390 -212 390 -239 q 405 -174 390 -189 q 443 -158 419 -158 q 481 -174 467 -158 q 496 -212 496 -189 q 481 -254 496 -239 q 443 -269 467 -269 z "},"Ṉ":{"ha":883,"x_min":135,"x_max":749,"o":"m 135 915 l 201 915 l 588 269 l 690 88 l 696 88 q 690 221 693 154 q 688 354 688 288 l 688 915 l 749 915 l 749 0 l 682 0 l 296 646 l 193 828 l 188 828 q 193 698 190 761 q 196 568 196 635 l 196 0 l 135 0 l 135 915 m 600 -222 l 283 -222 l 283 -172 l 600 -172 l 600 -222 z "},"Ò":{"ha":906,"x_min":76,"x_max":831,"o":"m 453 -17 q 301 17 371 -17 q 182 114 232 51 q 104 265 132 176 q 76 461 76 353 q 104 656 76 569 q 182 805 132 743 q 301 899 232 867 q 453 932 371 932 q 606 899 536 932 q 725 805 675 867 q 803 656 775 743 q 831 461 831 569 q 803 265 831 353 q 725 114 775 176 q 606 17 675 51 q 453 -17 536 -17 m 453 42 q 579 72 522 42 q 677 156 636 101 q 740 288 718 211 q 763 461 763 365 q 740 632 763 556 q 677 762 718 708 q 579 844 636 815 q 453 874 522 874 q 326 844 383 874 q 228 762 268 815 q 165 632 188 708 q 143 461 143 556 q 165 288 143 365 q 228 156 188 211 q 326 72 268 101 q 453 42 383 42 m 296 1132 l 376 1132 l 504 985 l 449 985 l 296 1132 z "},"Ó":{"ha":906,"x_min":76,"x_max":831,"o":"m 453 -17 q 301 17 371 -17 q 182 114 232 51 q 104 265 132 176 q 76 461 76 353 q 104 656 76 569 q 182 805 132 743 q 301 899 232 867 q 453 932 371 932 q 606 899 536 932 q 725 805 675 867 q 803 656 775 743 q 831 461 831 569 q 803 265 831 353 q 725 114 775 176 q 606 17 675 51 q 453 -17 536 -17 m 453 42 q 579 72 522 42 q 677 156 636 101 q 740 288 718 211 q 763 461 763 365 q 740 632 763 556 q 677 762 718 708 q 579 844 636 815 q 453 874 522 874 q 326 844 383 874 q 228 762 268 815 q 165 632 188 708 q 143 461 143 556 q 165 288 143 365 q 228 156 188 211 q 326 72 268 101 q 453 42 383 42 m 457 985 l 401 985 l 529 1132 l 610 1132 l 457 985 z "},"Ô":{"ha":906,"x_min":76,"x_max":831,"o":"m 453 -17 q 301 17 371 -17 q 182 114 232 51 q 104 265 132 176 q 76 461 76 353 q 104 656 76 569 q 182 805 132 743 q 301 899 232 867 q 453 932 371 932 q 606 899 536 932 q 725 805 675 867 q 803 656 775 743 q 831 461 831 569 q 803 265 831 353 q 725 114 775 176 q 606 17 675 51 q 453 -17 536 -17 m 453 42 q 579 72 522 42 q 677 156 636 101 q 740 288 718 211 q 763 461 763 365 q 740 632 763 556 q 677 762 718 708 q 579 844 636 815 q 453 874 522 874 q 326 844 383 874 q 228 762 268 815 q 165 632 188 708 q 143 461 143 556 q 165 288 143 365 q 228 156 188 211 q 326 72 268 101 q 453 42 383 42 m 290 985 l 424 1132 l 482 1132 l 615 985 l 560 985 l 456 1085 l 450 1085 l 346 985 l 290 985 z "},"Õ":{"ha":906,"x_min":76,"x_max":831,"o":"m 453 -17 q 301 17 371 -17 q 182 114 232 51 q 104 265 132 176 q 76 461 76 353 q 104 656 76 569 q 182 805 132 743 q 301 899 232 867 q 453 932 371 932 q 606 899 536 932 q 725 805 675 867 q 803 656 775 743 q 831 461 831 569 q 803 265 831 353 q 725 114 775 176 q 606 17 675 51 q 453 -17 536 -17 m 453 42 q 579 72 522 42 q 677 156 636 101 q 740 288 718 211 q 763 461 763 365 q 740 632 763 556 q 677 762 718 708 q 579 844 636 815 q 453 874 522 874 q 326 844 383 874 q 228 762 268 815 q 165 632 188 708 q 143 461 143 556 q 165 288 143 365 q 228 156 188 211 q 326 72 268 101 q 453 42 383 42 m 535 994 q 485 1007 507 994 q 445 1034 464 1019 q 408 1061 426 1049 q 369 1074 390 1074 q 332 1052 347 1074 q 313 994 317 1031 l 272 994 q 281 1041 274 1018 q 300 1082 288 1064 q 330 1111 313 1100 q 371 1122 347 1122 q 419 1110 399 1122 q 459 1083 440 1097 q 497 1056 478 1068 q 536 1044 515 1044 q 574 1065 558 1044 q 593 1122 589 1086 l 633 1122 q 625 1076 632 1099 q 606 1035 618 1054 q 576 1006 593 1017 q 535 994 558 994 z "},"Ö":{"ha":906,"x_min":76,"x_max":831,"o":"m 453 -17 q 301 17 371 -17 q 182 114 232 51 q 104 265 132 176 q 76 461 76 353 q 104 656 76 569 q 182 805 132 743 q 301 899 232 867 q 453 932 371 932 q 606 899 536 932 q 725 805 675 867 q 803 656 775 743 q 831 461 831 569 q 803 265 831 353 q 725 114 775 176 q 606 17 675 51 q 453 -17 536 -17 m 453 42 q 579 72 522 42 q 677 156 636 101 q 740 288 718 211 q 763 461 763 365 q 740 632 763 556 q 677 762 718 708 q 579 844 636 815 q 453 874 522 874 q 326 844 383 874 q 228 762 268 815 q 165 632 188 708 q 143 461 143 556 q 165 288 143 365 q 228 156 188 211 q 326 72 268 101 q 453 42 383 42 m 343 1007 q 307 1020 321 1007 q 293 1057 293 1033 q 307 1094 293 1081 q 343 1108 321 1108 q 380 1094 365 1108 q 394 1057 394 1081 q 380 1020 394 1033 q 343 1007 365 1007 m 563 1007 q 526 1020 540 1007 q 511 1057 511 1033 q 526 1094 511 1081 q 563 1108 540 1108 q 599 1094 585 1108 q 613 1057 613 1081 q 599 1020 613 1033 q 563 1007 585 1007 z "},"Ō":{"ha":906,"x_min":76,"x_max":831,"o":"m 453 -17 q 301 17 371 -17 q 182 114 232 51 q 104 265 132 176 q 76 461 76 353 q 104 656 76 569 q 182 805 132 743 q 301 899 232 867 q 453 932 371 932 q 606 899 536 932 q 725 805 675 867 q 803 656 775 743 q 831 461 831 569 q 803 265 831 353 q 725 114 775 176 q 606 17 675 51 q 453 -17 536 -17 m 453 42 q 579 72 522 42 q 677 156 636 101 q 740 288 718 211 q 763 461 763 365 q 740 632 763 556 q 677 762 718 708 q 579 844 636 815 q 453 874 522 874 q 326 844 383 874 q 228 762 268 815 q 165 632 188 708 q 143 461 143 556 q 165 288 143 365 q 228 156 188 211 q 326 72 268 101 q 453 42 383 42 m 294 1069 l 611 1069 l 611 1019 l 294 1019 l 294 1069 z "},"Ő":{"ha":906,"x_min":76,"x_max":831,"o":"m 453 -17 q 301 17 371 -17 q 182 114 232 51 q 104 265 132 176 q 76 461 76 353 q 104 656 76 569 q 182 805 132 743 q 301 899 232 867 q 453 932 371 932 q 606 899 536 932 q 725 805 675 867 q 803 656 775 743 q 831 461 831 569 q 803 265 831 353 q 725 114 775 176 q 606 17 675 51 q 453 -17 536 -17 m 453 42 q 579 72 522 42 q 677 156 636 101 q 740 288 718 211 q 763 461 763 365 q 740 632 763 556 q 677 762 718 708 q 579 844 636 815 q 453 874 522 874 q 326 844 383 874 q 228 762 268 815 q 165 632 188 708 q 143 461 143 556 q 165 288 143 365 q 228 156 188 211 q 326 72 268 101 q 453 42 383 42 m 325 985 l 418 1132 l 486 1132 l 375 985 l 325 985 m 619 1132 l 688 1132 l 576 985 l 526 985 l 619 1132 z "},"Ǒ":{"ha":906,"x_min":76,"x_max":831,"o":"m 453 -17 q 301 17 371 -17 q 182 114 232 51 q 104 265 132 176 q 76 461 76 353 q 104 656 76 569 q 182 805 132 743 q 301 899 232 867 q 453 932 371 932 q 606 899 536 932 q 725 805 675 867 q 803 656 775 743 q 831 461 831 569 q 803 265 831 353 q 725 114 775 176 q 606 17 675 51 q 453 -17 536 -17 m 453 42 q 579 72 522 42 q 677 156 636 101 q 740 288 718 211 q 763 461 763 365 q 740 632 763 556 q 677 762 718 708 q 579 844 636 815 q 453 874 522 874 q 326 844 383 874 q 228 762 268 815 q 165 632 188 708 q 143 461 143 556 q 165 288 143 365 q 228 156 188 211 q 326 72 268 101 q 453 42 383 42 m 615 1132 l 482 985 l 424 985 l 290 1132 l 346 1132 l 450 1032 l 456 1032 l 560 1132 l 615 1132 z "},"Ọ":{"ha":906,"x_min":76,"x_max":831,"o":"m 453 -17 q 301 17 371 -17 q 182 114 232 51 q 104 265 132 176 q 76 461 76 353 q 104 656 76 569 q 182 805 132 743 q 301 899 232 867 q 453 932 371 932 q 606 899 536 932 q 725 805 675 867 q 803 656 775 743 q 831 461 831 569 q 803 265 831 353 q 725 114 775 176 q 606 17 675 51 q 453 -17 536 -17 m 453 42 q 579 72 522 42 q 677 156 636 101 q 740 288 718 211 q 763 461 763 365 q 740 632 763 556 q 677 762 718 708 q 579 844 636 815 q 453 874 522 874 q 326 844 383 874 q 228 762 268 815 q 165 632 188 708 q 143 461 143 556 q 165 288 143 365 q 228 156 188 211 q 326 72 268 101 q 453 42 383 42 m 453 -269 q 415 -254 429 -269 q 400 -212 400 -239 q 415 -174 400 -189 q 453 -158 429 -158 q 491 -174 476 -158 q 506 -212 506 -189 q 491 -254 506 -239 q 453 -269 476 -269 z "},"Ỏ":{"ha":906,"x_min":76,"x_max":831,"o":"m 453 -17 q 301 17 371 -17 q 182 114 232 51 q 104 265 132 176 q 76 461 76 353 q 104 656 76 569 q 182 805 132 743 q 301 899 232 867 q 453 932 371 932 q 606 899 536 932 q 725 805 675 867 q 803 656 775 743 q 831 461 831 569 q 803 265 831 353 q 725 114 775 176 q 606 17 675 51 q 453 -17 536 -17 m 453 42 q 579 72 522 42 q 677 156 636 101 q 740 288 718 211 q 763 461 763 365 q 740 632 763 556 q 677 762 718 708 q 579 844 636 815 q 453 874 522 874 q 326 844 383 874 q 228 762 268 815 q 165 632 188 708 q 143 461 143 556 q 165 288 143 365 q 228 156 188 211 q 326 72 268 101 q 453 42 383 42 m 408 1013 q 471 1041 446 1024 q 496 1088 496 1058 q 378 1154 496 1150 l 383 1199 q 449 1191 418 1197 q 502 1172 479 1185 q 538 1141 525 1160 q 551 1096 551 1122 q 540 1049 551 1068 q 510 1015 529 1029 q 468 992 492 1001 q 419 975 444 982 l 408 1013 z "},"Ố":{"ha":906,"x_min":76,"x_max":831,"o":"m 453 -17 q 301 17 371 -17 q 182 114 232 51 q 104 265 132 176 q 76 461 76 353 q 104 656 76 569 q 182 805 132 743 q 301 899 232 867 q 453 932 371 932 q 606 899 536 932 q 725 805 675 867 q 803 656 775 743 q 831 461 831 569 q 803 265 831 353 q 725 114 775 176 q 606 17 675 51 q 453 -17 536 -17 m 453 42 q 579 72 522 42 q 677 156 636 101 q 740 288 718 211 q 763 461 763 365 q 740 632 763 556 q 677 762 718 708 q 579 844 636 815 q 453 874 522 874 q 326 844 383 874 q 228 762 268 815 q 165 632 188 708 q 143 461 143 556 q 165 288 143 365 q 228 156 188 211 q 326 72 268 101 q 453 42 383 42 m 661 1217 l 728 1217 l 608 1069 l 563 1069 l 661 1217 m 425 1124 l 481 1124 l 607 985 l 553 985 l 456 1076 l 450 1076 l 353 985 l 299 985 l 425 1124 z "},"Ồ":{"ha":906,"x_min":76,"x_max":831,"o":"m 453 -17 q 301 17 371 -17 q 182 114 232 51 q 104 265 132 176 q 76 461 76 353 q 104 656 76 569 q 182 805 132 743 q 301 899 232 867 q 453 932 371 932 q 606 899 536 932 q 725 805 675 867 q 803 656 775 743 q 831 461 831 569 q 803 265 831 353 q 725 114 775 176 q 606 17 675 51 q 453 -17 536 -17 m 453 42 q 579 72 522 42 q 677 156 636 101 q 740 288 718 211 q 763 461 763 365 q 740 632 763 556 q 677 762 718 708 q 579 844 636 815 q 453 874 522 874 q 326 844 383 874 q 228 762 268 815 q 165 632 188 708 q 143 461 143 556 q 165 288 143 365 q 228 156 188 211 q 326 72 268 101 q 453 42 383 42 m 664 1069 l 618 1069 l 499 1217 l 564 1217 l 664 1069 m 425 1124 l 481 1124 l 607 985 l 553 985 l 456 1076 l 450 1076 l 353 985 l 299 985 l 425 1124 z "},"Ổ":{"ha":906,"x_min":76,"x_max":831,"o":"m 453 -17 q 301 17 371 -17 q 182 114 232 51 q 104 265 132 176 q 76 461 76 353 q 104 656 76 569 q 182 805 132 743 q 301 899 232 867 q 453 932 371 932 q 606 899 536 932 q 725 805 675 867 q 803 656 775 743 q 831 461 831 569 q 803 265 831 353 q 725 114 775 176 q 606 17 675 51 q 453 -17 536 -17 m 453 42 q 579 72 522 42 q 677 156 636 101 q 740 288 718 211 q 763 461 763 365 q 740 632 763 556 q 677 762 718 708 q 579 844 636 815 q 453 874 522 874 q 326 844 383 874 q 228 762 268 815 q 165 632 188 708 q 143 461 143 556 q 165 288 143 365 q 228 156 188 211 q 326 72 268 101 q 453 42 383 42 m 581 1089 q 631 1110 610 1096 q 651 1147 651 1124 q 626 1191 651 1179 q 550 1206 600 1203 l 557 1249 q 662 1224 619 1246 q 704 1154 704 1203 q 694 1113 704 1131 q 669 1083 685 1096 q 633 1063 653 1071 q 594 1051 614 1056 l 581 1089 m 425 1124 l 481 1124 l 607 985 l 553 985 l 456 1076 l 450 1076 l 353 985 l 299 985 l 425 1124 z "},"Ỗ":{"ha":906,"x_min":76,"x_max":831,"o":"m 453 -17 q 301 17 371 -17 q 182 114 232 51 q 104 265 132 176 q 76 461 76 353 q 104 656 76 569 q 182 805 132 743 q 301 899 232 867 q 453 932 371 932 q 606 899 536 932 q 725 805 675 867 q 803 656 775 743 q 831 461 831 569 q 803 265 831 353 q 725 114 775 176 q 606 17 675 51 q 453 -17 536 -17 m 453 42 q 579 72 522 42 q 677 156 636 101 q 740 288 718 211 q 763 461 763 365 q 740 632 763 556 q 677 762 718 708 q 579 844 636 815 q 453 874 522 874 q 326 844 383 874 q 228 762 268 815 q 165 632 188 708 q 143 461 143 556 q 165 288 143 365 q 228 156 188 211 q 326 72 268 101 q 453 42 383 42 m 425 1124 l 481 1124 l 607 985 l 553 985 l 456 1076 l 450 1076 l 353 985 l 299 985 l 425 1124 m 283 1171 q 291 1210 285 1190 q 310 1247 297 1231 q 340 1273 322 1263 q 382 1283 357 1283 q 426 1273 407 1283 q 460 1249 444 1263 q 491 1226 476 1236 q 524 1215 506 1215 q 563 1233 547 1215 q 582 1283 578 1251 l 622 1283 q 615 1244 621 1264 q 596 1208 608 1224 q 566 1181 583 1192 q 524 1171 549 1171 q 480 1181 499 1171 q 445 1205 461 1192 q 415 1228 429 1218 q 382 1239 400 1239 q 343 1221 358 1239 q 324 1171 328 1203 l 283 1171 z "},"Ộ":{"ha":906,"x_min":76,"x_max":831,"o":"m 453 -17 q 301 17 371 -17 q 182 114 232 51 q 104 265 132 176 q 76 461 76 353 q 104 656 76 569 q 182 805 132 743 q 301 899 232 867 q 453 932 371 932 q 606 899 536 932 q 725 805 675 867 q 803 656 775 743 q 831 461 831 569 q 803 265 831 353 q 725 114 775 176 q 606 17 675 51 q 453 -17 536 -17 m 453 42 q 579 72 522 42 q 677 156 636 101 q 740 288 718 211 q 763 461 763 365 q 740 632 763 556 q 677 762 718 708 q 579 844 636 815 q 453 874 522 874 q 326 844 383 874 q 228 762 268 815 q 165 632 188 708 q 143 461 143 556 q 165 288 143 365 q 228 156 188 211 q 326 72 268 101 q 453 42 383 42 m 290 985 l 424 1132 l 482 1132 l 615 985 l 560 985 l 456 1085 l 450 1085 l 346 985 l 290 985 m 453 -269 q 415 -254 429 -269 q 400 -212 400 -239 q 415 -174 400 -189 q 453 -158 429 -158 q 491 -174 476 -158 q 506 -212 506 -189 q 491 -254 506 -239 q 453 -269 476 -269 z "},"Ø":{"ha":906,"x_min":78,"x_max":835,"o":"m 246 140 q 340 67 286 93 q 458 42 393 42 q 585 72 528 42 q 683 156 642 101 q 746 288 724 211 q 768 461 768 365 q 749 619 768 549 q 696 743 731 690 l 246 140 m 664 785 q 572 851 624 828 q 458 874 521 874 q 331 844 389 874 q 233 762 274 815 q 171 632 193 708 q 149 461 149 556 q 166 306 149 376 q 215 183 183 236 l 664 785 m 736 796 q 809 650 783 735 q 835 461 835 565 q 807 265 835 353 q 729 114 779 176 q 610 17 679 51 q 458 -17 540 -17 q 319 10 383 -17 q 207 89 256 38 l 117 -32 l 78 -1 l 175 129 q 106 275 131 192 q 81 461 81 358 q 108 656 81 569 q 186 805 136 743 q 306 899 236 867 q 458 932 375 932 q 592 907 531 932 q 701 835 653 882 l 786 947 l 826 917 l 736 796 z "},"Œ":{"ha":1157,"x_min":76,"x_max":1092,"o":"m 76 461 q 103 649 76 565 q 185 792 131 732 q 322 883 240 851 q 511 915 403 915 l 1078 915 l 1078 860 l 668 860 l 668 514 l 1008 514 l 1008 458 l 668 458 l 668 56 l 1092 56 l 1092 0 l 510 0 q 320 33 401 0 q 185 126 239 65 q 103 272 131 186 q 76 461 76 357 m 143 461 q 165 297 143 371 q 234 168 188 222 q 351 84 281 114 q 517 54 421 54 l 604 54 l 604 861 l 517 861 q 351 832 421 861 q 234 751 281 803 q 165 624 188 699 q 143 461 143 550 z "},"Ơ":{"ha":906,"x_min":81,"x_max":835,"o":"m 458 42 q 585 72 528 42 q 683 156 642 101 q 746 288 724 211 q 768 461 768 365 q 746 632 768 556 q 683 762 724 708 q 585 844 642 815 q 458 874 528 874 q 331 844 389 874 q 233 762 274 815 q 171 632 193 708 q 149 461 149 556 q 171 288 149 365 q 233 156 193 211 q 331 72 274 101 q 458 42 389 42 m 792 1064 q 811 1026 804 1044 q 818 988 818 1008 q 782 900 818 932 q 682 853 746 868 q 794 693 753 793 q 835 461 835 593 q 807 265 835 353 q 729 114 779 176 q 610 17 679 51 q 458 -17 540 -17 q 306 17 375 -17 q 186 114 236 51 q 108 265 136 176 q 81 461 81 353 q 108 656 81 569 q 186 805 136 743 q 306 899 236 867 q 458 932 375 932 q 631 888 554 932 q 763 983 763 906 q 743 1038 763 1007 l 792 1064 z "},"Ớ":{"ha":906,"x_min":81,"x_max":835,"o":"m 458 42 q 585 72 528 42 q 683 156 642 101 q 746 288 724 211 q 768 461 768 365 q 746 632 768 556 q 683 762 724 708 q 585 844 642 815 q 458 874 528 874 q 331 844 389 874 q 233 762 274 815 q 171 632 193 708 q 149 461 149 556 q 171 288 149 365 q 233 156 193 211 q 331 72 274 101 q 458 42 389 42 m 792 1064 q 811 1026 804 1044 q 818 988 818 1008 q 782 900 818 932 q 682 853 746 868 q 794 693 753 793 q 835 461 835 593 q 807 265 835 353 q 729 114 779 176 q 610 17 679 51 q 458 -17 540 -17 q 306 17 375 -17 q 186 114 236 51 q 108 265 136 176 q 81 461 81 353 q 108 656 81 569 q 186 805 136 743 q 306 899 236 867 q 458 932 375 932 q 631 888 554 932 q 763 983 763 906 q 743 1038 763 1007 l 792 1064 m 457 985 l 401 985 l 529 1132 l 610 1132 l 457 985 z "},"Ờ":{"ha":906,"x_min":81,"x_max":835,"o":"m 458 42 q 585 72 528 42 q 683 156 642 101 q 746 288 724 211 q 768 461 768 365 q 746 632 768 556 q 683 762 724 708 q 585 844 642 815 q 458 874 528 874 q 331 844 389 874 q 233 762 274 815 q 171 632 193 708 q 149 461 149 556 q 171 288 149 365 q 233 156 193 211 q 331 72 274 101 q 458 42 389 42 m 792 1064 q 811 1026 804 1044 q 818 988 818 1008 q 782 900 818 932 q 682 853 746 868 q 794 693 753 793 q 835 461 835 593 q 807 265 835 353 q 729 114 779 176 q 610 17 679 51 q 458 -17 540 -17 q 306 17 375 -17 q 186 114 236 51 q 108 265 136 176 q 81 461 81 353 q 108 656 81 569 q 186 805 136 743 q 306 899 236 867 q 458 932 375 932 q 631 888 554 932 q 763 983 763 906 q 743 1038 763 1007 l 792 1064 m 296 1132 l 376 1132 l 504 985 l 449 985 l 296 1132 z "},"Ở":{"ha":906,"x_min":81,"x_max":835,"o":"m 458 42 q 585 72 528 42 q 683 156 642 101 q 746 288 724 211 q 768 461 768 365 q 746 632 768 556 q 683 762 724 708 q 585 844 642 815 q 458 874 528 874 q 331 844 389 874 q 233 762 274 815 q 171 632 193 708 q 149 461 149 556 q 171 288 149 365 q 233 156 193 211 q 331 72 274 101 q 458 42 389 42 m 792 1064 q 811 1026 804 1044 q 818 988 818 1008 q 782 900 818 932 q 682 853 746 868 q 794 693 753 793 q 835 461 835 593 q 807 265 835 353 q 729 114 779 176 q 610 17 679 51 q 458 -17 540 -17 q 306 17 375 -17 q 186 114 236 51 q 108 265 136 176 q 81 461 81 353 q 108 656 81 569 q 186 805 136 743 q 306 899 236 867 q 458 932 375 932 q 631 888 554 932 q 763 983 763 906 q 743 1038 763 1007 l 792 1064 m 408 1013 q 471 1041 446 1024 q 496 1088 496 1058 q 378 1154 496 1150 l 383 1199 q 449 1191 418 1197 q 502 1172 479 1185 q 538 1141 525 1160 q 551 1096 551 1122 q 540 1049 551 1068 q 510 1015 529 1029 q 468 992 492 1001 q 419 975 444 982 l 408 1013 z "},"Ỡ":{"ha":906,"x_min":81,"x_max":835,"o":"m 458 42 q 585 72 528 42 q 683 156 642 101 q 746 288 724 211 q 768 461 768 365 q 746 632 768 556 q 683 762 724 708 q 585 844 642 815 q 458 874 528 874 q 331 844 389 874 q 233 762 274 815 q 171 632 193 708 q 149 461 149 556 q 171 288 149 365 q 233 156 193 211 q 331 72 274 101 q 458 42 389 42 m 792 1064 q 811 1026 804 1044 q 818 988 818 1008 q 782 900 818 932 q 682 853 746 868 q 794 693 753 793 q 835 461 835 593 q 807 265 835 353 q 729 114 779 176 q 610 17 679 51 q 458 -17 540 -17 q 306 17 375 -17 q 186 114 236 51 q 108 265 136 176 q 81 461 81 353 q 108 656 81 569 q 186 805 136 743 q 306 899 236 867 q 458 932 375 932 q 631 888 554 932 q 763 983 763 906 q 743 1038 763 1007 l 792 1064 m 535 994 q 485 1007 507 994 q 445 1034 464 1019 q 408 1061 426 1049 q 369 1074 390 1074 q 332 1052 347 1074 q 313 994 317 1031 l 272 994 q 281 1041 274 1018 q 300 1082 288 1064 q 330 1111 313 1100 q 371 1122 347 1122 q 419 1110 399 1122 q 459 1083 440 1097 q 497 1056 478 1068 q 536 1044 515 1044 q 574 1065 558 1044 q 593 1122 589 1086 l 633 1122 q 625 1076 632 1099 q 606 1035 618 1054 q 576 1006 593 1017 q 535 994 558 994 z "},"Ợ":{"ha":906,"x_min":81,"x_max":835,"o":"m 458 42 q 585 72 528 42 q 683 156 642 101 q 746 288 724 211 q 768 461 768 365 q 746 632 768 556 q 683 762 724 708 q 585 844 642 815 q 458 874 528 874 q 331 844 389 874 q 233 762 274 815 q 171 632 193 708 q 149 461 149 556 q 171 288 149 365 q 233 156 193 211 q 331 72 274 101 q 458 42 389 42 m 792 1064 q 811 1026 804 1044 q 818 988 818 1008 q 782 900 818 932 q 682 853 746 868 q 794 693 753 793 q 835 461 835 593 q 807 265 835 353 q 729 114 779 176 q 610 17 679 51 q 458 -17 540 -17 q 306 17 375 -17 q 186 114 236 51 q 108 265 136 176 q 81 461 81 353 q 108 656 81 569 q 186 805 136 743 q 306 899 236 867 q 458 932 375 932 q 631 888 554 932 q 763 983 763 906 q 743 1038 763 1007 l 792 1064 m 453 -269 q 415 -254 429 -269 q 400 -212 400 -239 q 415 -174 400 -189 q 453 -158 429 -158 q 491 -174 476 -158 q 506 -212 506 -189 q 491 -254 506 -239 q 453 -269 476 -269 z "},"Ǫ":{"ha":906,"x_min":76,"x_max":831,"o":"m 379 -171 q 401 -89 379 -129 q 464 -17 424 -49 q 302 17 374 -17 q 181 114 231 51 q 103 265 131 176 q 76 461 76 353 q 104 656 76 569 q 182 805 132 743 q 301 899 232 867 q 453 932 371 932 q 606 899 536 932 q 725 805 675 867 q 803 656 775 743 q 831 461 831 569 q 758 165 831 278 q 549 -11 686 51 q 462 -81 489 -37 q 435 -161 435 -124 q 456 -215 435 -197 q 504 -233 478 -233 q 564 -214 539 -233 l 588 -251 q 545 -275 571 -265 q 496 -285 519 -285 q 413 -257 447 -285 q 379 -171 379 -229 m 453 42 q 579 72 522 42 q 677 156 636 101 q 740 288 718 211 q 763 461 763 365 q 740 632 763 556 q 677 762 718 708 q 579 844 636 815 q 453 874 522 874 q 326 844 383 874 q 228 762 268 815 q 165 632 188 708 q 143 461 143 556 q 165 288 143 365 q 228 156 188 211 q 326 72 268 101 q 453 42 383 42 z "},"Ŕ":{"ha":778,"x_min":135,"x_max":715,"o":"m 381 474 q 567 523 503 474 q 632 674 632 572 q 567 819 632 776 q 381 861 501 861 l 199 861 l 199 474 l 381 474 m 642 0 l 393 421 l 199 421 l 199 0 l 135 0 l 135 915 l 397 915 q 521 902 465 915 q 615 860 576 889 q 676 785 654 831 q 697 674 697 739 q 634 501 697 564 q 463 425 571 439 l 715 0 l 642 0 m 400 985 l 344 985 l 472 1132 l 553 1132 l 400 985 z "},"Ř":{"ha":778,"x_min":135,"x_max":715,"o":"m 381 474 q 567 523 503 474 q 632 674 632 572 q 567 819 632 776 q 381 861 501 861 l 199 861 l 199 474 l 381 474 m 642 0 l 393 421 l 199 421 l 199 0 l 135 0 l 135 915 l 397 915 q 521 902 465 915 q 615 860 576 889 q 676 785 654 831 q 697 674 697 739 q 634 501 697 564 q 463 425 571 439 l 715 0 l 642 0 m 558 1132 l 425 985 l 367 985 l 233 1132 l 289 1132 l 393 1032 l 399 1032 l 503 1132 l 558 1132 z "},"Ŗ":{"ha":778,"x_min":135,"x_max":715,"o":"m 381 474 q 567 523 503 474 q 632 674 632 572 q 567 819 632 776 q 381 861 501 861 l 199 861 l 199 474 l 381 474 m 642 0 l 393 421 l 199 421 l 199 0 l 135 0 l 135 915 l 397 915 q 521 902 465 915 q 615 860 576 889 q 676 785 654 831 q 697 674 697 739 q 634 501 697 564 q 463 425 571 439 l 715 0 l 642 0 m 381 -71 q 467 -106 438 -82 q 496 -172 496 -129 q 481 -220 496 -200 q 442 -254 467 -240 q 387 -277 418 -268 q 322 -290 356 -286 l 313 -249 q 406 -224 371 -240 q 442 -179 442 -207 q 417 -133 442 -147 q 363 -111 393 -118 l 381 -71 l 381 -71 z "},"Ṛ":{"ha":778,"x_min":135,"x_max":715,"o":"m 381 474 q 567 523 503 474 q 632 674 632 572 q 567 819 632 776 q 381 861 501 861 l 199 861 l 199 474 l 381 474 m 642 0 l 393 421 l 199 421 l 199 0 l 135 0 l 135 915 l 397 915 q 521 902 465 915 q 615 860 576 889 q 676 785 654 831 q 697 674 697 739 q 634 501 697 564 q 463 425 571 439 l 715 0 l 642 0 m 415 -269 q 377 -254 392 -269 q 363 -212 363 -239 q 377 -174 363 -189 q 415 -158 392 -158 q 453 -174 439 -158 q 468 -212 468 -189 q 453 -254 468 -239 q 415 -269 439 -269 z "},"Ṝ":{"ha":778,"x_min":135,"x_max":715,"o":"m 381 474 q 567 523 503 474 q 632 674 632 572 q 567 819 632 776 q 381 861 501 861 l 199 861 l 199 474 l 381 474 m 642 0 l 393 421 l 199 421 l 199 0 l 135 0 l 135 915 l 397 915 q 521 902 465 915 q 615 860 576 889 q 676 785 654 831 q 697 674 697 739 q 634 501 697 564 q 463 425 571 439 l 715 0 l 642 0 m 238 1069 l 554 1069 l 554 1019 l 238 1019 l 238 1069 m 415 -269 q 377 -254 392 -269 q 363 -212 363 -239 q 377 -174 363 -189 q 415 -158 392 -158 q 453 -174 439 -158 q 468 -212 468 -189 q 453 -254 468 -239 q 415 -269 439 -269 z "},"Ṟ":{"ha":778,"x_min":135,"x_max":715,"o":"m 381 474 q 567 523 503 474 q 632 674 632 572 q 567 819 632 776 q 381 861 501 861 l 199 861 l 199 474 l 381 474 m 642 0 l 393 421 l 199 421 l 199 0 l 135 0 l 135 915 l 397 915 q 521 902 465 915 q 615 860 576 889 q 676 785 654 831 q 697 674 697 739 q 634 501 697 564 q 463 425 571 439 l 715 0 l 642 0 m 572 -222 l 256 -222 l 256 -172 l 572 -172 l 572 -222 z "},"Ś":{"ha":724,"x_min":64,"x_max":667,"o":"m 106 165 q 225 75 156 108 q 374 42 294 42 q 540 92 479 42 q 601 225 601 143 q 588 297 601 268 q 553 348 575 326 q 501 385 531 369 q 438 417 471 401 l 299 479 q 235 510 268 492 q 176 555 203 528 q 131 619 149 582 q 113 707 113 656 q 133 798 113 757 q 188 869 153 839 q 273 915 224 899 q 379 932 322 932 q 527 899 463 932 q 633 822 592 867 l 597 779 q 503 848 557 822 q 379 874 449 874 q 232 829 288 874 q 176 710 176 785 q 192 642 176 669 q 231 594 207 614 q 282 559 254 574 q 335 533 310 544 l 474 472 q 547 435 513 456 q 608 386 582 414 q 651 320 635 358 q 667 229 667 282 q 646 131 667 176 q 587 53 625 86 q 494 2 549 21 q 374 -17 440 -17 q 196 22 274 -17 q 64 121 118 60 l 106 165 m 381 985 l 325 985 l 453 1132 l 533 1132 l 381 985 z "},"Ŝ":{"ha":724,"x_min":64,"x_max":667,"o":"m 106 165 q 225 75 156 108 q 374 42 294 42 q 540 92 479 42 q 601 225 601 143 q 588 297 601 268 q 553 348 575 326 q 501 385 531 369 q 438 417 471 401 l 299 479 q 235 510 268 492 q 176 555 203 528 q 131 619 149 582 q 113 707 113 656 q 133 798 113 757 q 188 869 153 839 q 273 915 224 899 q 379 932 322 932 q 527 899 463 932 q 633 822 592 867 l 597 779 q 503 848 557 822 q 379 874 449 874 q 232 829 288 874 q 176 710 176 785 q 192 642 176 669 q 231 594 207 614 q 282 559 254 574 q 335 533 310 544 l 474 472 q 547 435 513 456 q 608 386 582 414 q 651 320 635 358 q 667 229 667 282 q 646 131 667 176 q 587 53 625 86 q 494 2 549 21 q 374 -17 440 -17 q 196 22 274 -17 q 64 121 118 60 l 106 165 m 214 985 l 347 1132 l 406 1132 l 539 985 l 483 985 l 379 1085 l 374 1085 l 269 985 l 214 985 z "},"Š":{"ha":724,"x_min":64,"x_max":667,"o":"m 106 165 q 225 75 156 108 q 374 42 294 42 q 540 92 479 42 q 601 225 601 143 q 588 297 601 268 q 553 348 575 326 q 501 385 531 369 q 438 417 471 401 l 299 479 q 235 510 268 492 q 176 555 203 528 q 131 619 149 582 q 113 707 113 656 q 133 798 113 757 q 188 869 153 839 q 273 915 224 899 q 379 932 322 932 q 527 899 463 932 q 633 822 592 867 l 597 779 q 503 848 557 822 q 379 874 449 874 q 232 829 288 874 q 176 710 176 785 q 192 642 176 669 q 231 594 207 614 q 282 559 254 574 q 335 533 310 544 l 474 472 q 547 435 513 456 q 608 386 582 414 q 651 320 635 358 q 667 229 667 282 q 646 131 667 176 q 587 53 625 86 q 494 2 549 21 q 374 -17 440 -17 q 196 22 274 -17 q 64 121 118 60 l 106 165 m 539 1132 l 406 985 l 347 985 l 214 1132 l 269 1132 l 374 1032 l 379 1032 l 483 1132 l 539 1132 z "},"Ş":{"ha":724,"x_min":64,"x_max":667,"o":"m 106 165 q 225 75 156 108 q 374 42 294 42 q 540 92 479 42 q 601 225 601 143 q 588 297 601 268 q 553 348 575 326 q 501 385 531 369 q 438 417 471 401 l 299 479 q 235 510 268 492 q 176 555 203 528 q 131 619 149 582 q 113 707 113 656 q 133 798 113 757 q 188 869 153 839 q 273 915 224 899 q 379 932 322 932 q 527 899 463 932 q 633 822 592 867 l 597 779 q 503 848 557 822 q 379 874 449 874 q 232 829 288 874 q 176 710 176 785 q 192 642 176 669 q 231 594 207 614 q 282 559 254 574 q 335 533 310 544 l 474 472 q 547 435 513 456 q 608 386 582 414 q 651 320 635 358 q 667 229 667 282 q 646 131 667 176 q 587 53 625 86 q 494 2 549 21 q 374 -17 440 -17 q 196 22 274 -17 q 64 121 118 60 l 106 165 m 361 3 l 410 3 l 369 -75 q 428 -108 403 -86 q 453 -171 453 -129 q 438 -219 453 -199 q 399 -253 424 -239 q 344 -276 375 -267 q 279 -289 313 -285 l 269 -247 q 363 -222 328 -239 q 399 -176 399 -206 q 372 -129 399 -144 q 306 -103 346 -114 l 361 3 z "},"Ș":{"ha":724,"x_min":64,"x_max":667,"o":"m 106 165 q 225 75 156 108 q 374 42 294 42 q 540 92 479 42 q 601 225 601 143 q 588 297 601 268 q 553 348 575 326 q 501 385 531 369 q 438 417 471 401 l 299 479 q 235 510 268 492 q 176 555 203 528 q 131 619 149 582 q 113 707 113 656 q 133 798 113 757 q 188 869 153 839 q 273 915 224 899 q 379 932 322 932 q 527 899 463 932 q 633 822 592 867 l 597 779 q 503 848 557 822 q 379 874 449 874 q 232 829 288 874 q 176 710 176 785 q 192 642 176 669 q 231 594 207 614 q 282 559 254 574 q 335 533 310 544 l 474 472 q 547 435 513 456 q 608 386 582 414 q 651 320 635 358 q 667 229 667 282 q 646 131 667 176 q 587 53 625 86 q 494 2 549 21 q 374 -17 440 -17 q 196 22 274 -17 q 64 121 118 60 l 106 165 m 338 -71 q 424 -106 394 -82 q 453 -172 453 -129 q 438 -220 453 -200 q 399 -254 424 -240 q 344 -277 375 -268 q 279 -290 313 -286 l 269 -249 q 363 -224 328 -240 q 399 -179 399 -207 q 374 -133 399 -147 q 319 -111 350 -118 l 338 -71 l 338 -71 z "},"Ṡ":{"ha":724,"x_min":64,"x_max":667,"o":"m 106 165 q 225 75 156 108 q 374 42 294 42 q 540 92 479 42 q 601 225 601 143 q 588 297 601 268 q 553 348 575 326 q 501 385 531 369 q 438 417 471 401 l 299 479 q 235 510 268 492 q 176 555 203 528 q 131 619 149 582 q 113 707 113 656 q 133 798 113 757 q 188 869 153 839 q 273 915 224 899 q 379 932 322 932 q 527 899 463 932 q 633 822 592 867 l 597 779 q 503 848 557 822 q 379 874 449 874 q 232 829 288 874 q 176 710 176 785 q 192 642 176 669 q 231 594 207 614 q 282 559 254 574 q 335 533 310 544 l 474 472 q 547 435 513 456 q 608 386 582 414 q 651 320 635 358 q 667 229 667 282 q 646 131 667 176 q 587 53 625 86 q 494 2 549 21 q 374 -17 440 -17 q 196 22 274 -17 q 64 121 118 60 l 106 165 m 376 1001 q 337 1017 353 1001 q 321 1058 321 1032 q 337 1097 321 1082 q 376 1113 353 1113 q 416 1097 400 1113 q 432 1058 432 1082 q 416 1017 432 1032 q 376 1001 400 1001 z "},"Ṣ":{"ha":724,"x_min":64,"x_max":667,"o":"m 106 165 q 225 75 156 108 q 374 42 294 42 q 540 92 479 42 q 601 225 601 143 q 588 297 601 268 q 553 348 575 326 q 501 385 531 369 q 438 417 471 401 l 299 479 q 235 510 268 492 q 176 555 203 528 q 131 619 149 582 q 113 707 113 656 q 133 798 113 757 q 188 869 153 839 q 273 915 224 899 q 379 932 322 932 q 527 899 463 932 q 633 822 592 867 l 597 779 q 503 848 557 822 q 379 874 449 874 q 232 829 288 874 q 176 710 176 785 q 192 642 176 669 q 231 594 207 614 q 282 559 254 574 q 335 533 310 544 l 474 472 q 547 435 513 456 q 608 386 582 414 q 651 320 635 358 q 667 229 667 282 q 646 131 667 176 q 587 53 625 86 q 494 2 549 21 q 374 -17 440 -17 q 196 22 274 -17 q 64 121 118 60 l 106 165 m 372 -269 q 334 -254 349 -269 q 319 -212 319 -239 q 334 -174 319 -189 q 372 -158 349 -158 q 410 -174 396 -158 q 425 -212 425 -189 q 410 -254 425 -239 q 372 -269 396 -269 z "},"ẞ":{"ha":894,"x_min":136,"x_max":832,"o":"m 136 586 q 160 734 136 669 q 229 842 185 799 q 335 909 274 886 q 471 932 396 932 q 641 880 575 932 q 747 740 707 828 l 531 504 q 673 465 615 490 q 766 403 731 439 q 817 324 801 368 q 832 232 832 281 q 813 133 832 179 q 760 54 794 88 q 680 2 726 21 q 578 -17 633 -17 q 440 12 504 -17 q 332 93 376 40 l 375 138 q 467 64 418 88 q 578 40 515 40 q 717 94 668 40 q 765 231 765 147 q 753 305 765 269 q 708 369 742 340 q 616 421 675 399 q 464 458 557 443 l 460 507 l 674 743 q 597 837 647 799 q 468 875 547 875 q 272 801 344 875 q 200 568 200 728 l 200 0 l 136 0 l 136 586 z "},"Ť":{"ha":728,"x_min":40,"x_max":688,"o":"m 332 860 l 40 860 l 40 915 l 688 915 l 688 860 l 396 860 l 396 0 l 332 0 l 332 860 m 525 1132 l 392 985 l 333 985 l 200 1132 l 256 1132 l 360 1032 l 365 1032 l 469 1132 l 525 1132 z "},"Ţ":{"ha":728,"x_min":40,"x_max":688,"o":"m 332 860 l 40 860 l 40 915 l 688 915 l 688 860 l 396 860 l 396 0 l 332 0 l 332 860 m 343 3 l 392 3 l 351 -75 q 410 -108 385 -86 q 435 -171 435 -129 q 420 -219 435 -199 q 381 -253 406 -239 q 326 -276 357 -267 q 261 -289 294 -285 l 251 -247 q 345 -222 310 -239 q 381 -176 381 -206 q 354 -129 381 -144 q 288 -103 328 -114 l 343 3 z "},"Ț":{"ha":728,"x_min":40,"x_max":688,"o":"m 332 860 l 40 860 l 40 915 l 688 915 l 688 860 l 396 860 l 396 0 l 332 0 l 332 860 m 331 -71 q 417 -106 388 -82 q 446 -172 446 -129 q 431 -220 446 -200 q 392 -254 417 -240 q 337 -277 368 -268 q 272 -290 306 -286 l 263 -249 q 356 -224 321 -240 q 392 -179 392 -207 q 367 -133 392 -147 q 313 -111 343 -118 l 331 -71 l 331 -71 z "},"Ṭ":{"ha":728,"x_min":40,"x_max":688,"o":"m 332 860 l 40 860 l 40 915 l 688 915 l 688 860 l 396 860 l 396 0 l 332 0 l 332 860 m 365 -269 q 327 -254 342 -269 q 313 -212 313 -239 q 327 -174 313 -189 q 365 -158 342 -158 q 403 -174 389 -158 q 418 -212 418 -189 q 403 -254 418 -239 q 365 -269 389 -269 z "},"Ṯ":{"ha":728,"x_min":40,"x_max":688,"o":"m 332 860 l 40 860 l 40 915 l 688 915 l 688 860 l 396 860 l 396 0 l 332 0 l 332 860 m 522 -222 l 206 -222 l 206 -172 l 522 -172 l 522 -222 z "},"Ù":{"ha":881,"x_min":132,"x_max":749,"o":"m 132 915 l 196 915 l 196 358 q 216 206 196 267 q 269 109 236 146 q 347 57 303 72 q 439 42 390 42 q 534 57 489 42 q 613 109 579 72 q 668 206 647 146 q 689 358 689 267 l 689 915 l 749 915 l 749 351 q 722 174 749 244 q 653 60 696 103 q 554 1 610 18 q 439 -17 499 -17 q 325 1 381 -17 q 226 60 269 18 q 158 174 183 103 q 132 351 132 244 l 132 915 m 283 1132 l 364 1132 l 492 985 l 436 985 l 283 1132 z "},"Ú":{"ha":881,"x_min":132,"x_max":749,"o":"m 132 915 l 196 915 l 196 358 q 216 206 196 267 q 269 109 236 146 q 347 57 303 72 q 439 42 390 42 q 534 57 489 42 q 613 109 579 72 q 668 206 647 146 q 689 358 689 267 l 689 915 l 749 915 l 749 351 q 722 174 749 244 q 653 60 696 103 q 554 1 610 18 q 439 -17 499 -17 q 325 1 381 -17 q 226 60 269 18 q 158 174 183 103 q 132 351 132 244 l 132 915 m 444 985 l 389 985 l 517 1132 l 597 1132 l 444 985 z "},"Û":{"ha":881,"x_min":132,"x_max":749,"o":"m 132 915 l 196 915 l 196 358 q 216 206 196 267 q 269 109 236 146 q 347 57 303 72 q 439 42 390 42 q 534 57 489 42 q 613 109 579 72 q 668 206 647 146 q 689 358 689 267 l 689 915 l 749 915 l 749 351 q 722 174 749 244 q 653 60 696 103 q 554 1 610 18 q 439 -17 499 -17 q 325 1 381 -17 q 226 60 269 18 q 158 174 183 103 q 132 351 132 244 l 132 915 m 278 985 l 411 1132 l 469 1132 l 603 985 l 547 985 l 443 1085 l 438 1085 l 333 985 l 278 985 z "},"Ũ":{"ha":881,"x_min":132,"x_max":749,"o":"m 132 915 l 196 915 l 196 358 q 216 206 196 267 q 269 109 236 146 q 347 57 303 72 q 439 42 390 42 q 534 57 489 42 q 613 109 579 72 q 668 206 647 146 q 689 358 689 267 l 689 915 l 749 915 l 749 351 q 722 174 749 244 q 653 60 696 103 q 554 1 610 18 q 439 -17 499 -17 q 325 1 381 -17 q 226 60 269 18 q 158 174 183 103 q 132 351 132 244 l 132 915 m 522 994 q 473 1007 494 994 q 433 1034 451 1019 q 396 1061 414 1049 q 357 1074 378 1074 q 319 1052 335 1074 q 300 994 304 1031 l 260 994 q 268 1041 261 1018 q 288 1082 275 1064 q 317 1111 300 1100 q 358 1122 335 1122 q 407 1110 386 1122 q 447 1083 428 1097 q 484 1056 465 1068 q 524 1044 503 1044 q 561 1065 546 1044 q 581 1122 576 1086 l 621 1122 q 613 1076 619 1099 q 593 1035 606 1054 q 563 1006 581 1017 q 522 994 546 994 z "},"Ü":{"ha":881,"x_min":132,"x_max":749,"o":"m 132 915 l 196 915 l 196 358 q 216 206 196 267 q 269 109 236 146 q 347 57 303 72 q 439 42 390 42 q 534 57 489 42 q 613 109 579 72 q 668 206 647 146 q 689 358 689 267 l 689 915 l 749 915 l 749 351 q 722 174 749 244 q 653 60 696 103 q 554 1 610 18 q 439 -17 499 -17 q 325 1 381 -17 q 226 60 269 18 q 158 174 183 103 q 132 351 132 244 l 132 915 m 331 1007 q 294 1020 308 1007 q 281 1057 281 1033 q 294 1094 281 1081 q 331 1108 308 1108 q 367 1094 353 1108 q 382 1057 382 1081 q 367 1020 382 1033 q 331 1007 353 1007 m 550 1007 q 513 1020 528 1007 q 499 1057 499 1033 q 513 1094 499 1081 q 550 1108 528 1108 q 586 1094 572 1108 q 600 1057 600 1081 q 586 1020 600 1033 q 550 1007 572 1007 z "},"Ū":{"ha":881,"x_min":132,"x_max":749,"o":"m 132 915 l 196 915 l 196 358 q 216 206 196 267 q 269 109 236 146 q 347 57 303 72 q 439 42 390 42 q 534 57 489 42 q 613 109 579 72 q 668 206 647 146 q 689 358 689 267 l 689 915 l 749 915 l 749 351 q 722 174 749 244 q 653 60 696 103 q 554 1 610 18 q 439 -17 499 -17 q 325 1 381 -17 q 226 60 269 18 q 158 174 183 103 q 132 351 132 244 l 132 915 m 282 1069 l 599 1069 l 599 1019 l 282 1019 l 282 1069 z "},"Ŭ":{"ha":881,"x_min":132,"x_max":749,"o":"m 132 915 l 196 915 l 196 358 q 216 206 196 267 q 269 109 236 146 q 347 57 303 72 q 439 42 390 42 q 534 57 489 42 q 613 109 579 72 q 668 206 647 146 q 689 358 689 267 l 689 915 l 749 915 l 749 351 q 722 174 749 244 q 653 60 696 103 q 554 1 610 18 q 439 -17 499 -17 q 325 1 381 -17 q 226 60 269 18 q 158 174 183 103 q 132 351 132 244 l 132 915 m 440 988 q 372 1001 400 988 q 324 1036 343 1015 q 294 1083 304 1057 q 281 1132 283 1108 l 326 1132 q 359 1064 332 1096 q 440 1032 386 1032 q 487 1041 467 1032 q 521 1064 507 1050 q 543 1096 535 1078 q 554 1132 551 1114 l 600 1132 q 587 1083 597 1108 q 557 1036 576 1057 q 508 1001 538 1015 q 440 988 479 988 z "},"Ů":{"ha":881,"x_min":132,"x_max":749,"o":"m 132 915 l 196 915 l 196 358 q 216 206 196 267 q 269 109 236 146 q 347 57 303 72 q 439 42 390 42 q 534 57 489 42 q 613 109 579 72 q 668 206 647 146 q 689 358 689 267 l 689 915 l 749 915 l 749 351 q 722 174 749 244 q 653 60 696 103 q 554 1 610 18 q 439 -17 499 -17 q 325 1 381 -17 q 226 60 269 18 q 158 174 183 103 q 132 351 132 244 l 132 915 m 440 972 q 359 1003 392 972 q 326 1086 326 1033 q 359 1169 326 1138 q 440 1200 392 1200 q 521 1169 488 1200 q 554 1086 554 1138 q 521 1003 554 1033 q 440 972 488 972 m 440 1008 q 490 1028 468 1008 q 511 1086 511 1047 q 490 1143 511 1122 q 440 1164 468 1164 q 389 1143 410 1164 q 368 1086 368 1122 q 389 1028 368 1047 q 440 1008 410 1008 z "},"Ű":{"ha":881,"x_min":132,"x_max":749,"o":"m 132 915 l 196 915 l 196 358 q 216 206 196 267 q 269 109 236 146 q 347 57 303 72 q 439 42 390 42 q 534 57 489 42 q 613 109 579 72 q 668 206 647 146 q 689 358 689 267 l 689 915 l 749 915 l 749 351 q 722 174 749 244 q 653 60 696 103 q 554 1 610 18 q 439 -17 499 -17 q 325 1 381 -17 q 226 60 269 18 q 158 174 183 103 q 132 351 132 244 l 132 915 m 313 985 l 406 1132 l 474 1132 l 363 985 l 313 985 m 607 1132 l 675 1132 l 564 985 l 514 985 l 607 1132 z "},"Ǔ":{"ha":881,"x_min":132,"x_max":749,"o":"m 132 915 l 196 915 l 196 358 q 216 206 196 267 q 269 109 236 146 q 347 57 303 72 q 439 42 390 42 q 534 57 489 42 q 613 109 579 72 q 668 206 647 146 q 689 358 689 267 l 689 915 l 749 915 l 749 351 q 722 174 749 244 q 653 60 696 103 q 554 1 610 18 q 439 -17 499 -17 q 325 1 381 -17 q 226 60 269 18 q 158 174 183 103 q 132 351 132 244 l 132 915 m 603 1132 l 469 985 l 411 985 l 278 1132 l 333 1132 l 438 1032 l 443 1032 l 547 1132 l 603 1132 z "},"Ǖ":{"ha":881,"x_min":132,"x_max":749,"o":"m 132 915 l 196 915 l 196 358 q 216 206 196 267 q 269 109 236 146 q 347 57 303 72 q 439 42 390 42 q 534 57 489 42 q 613 109 579 72 q 668 206 647 146 q 689 358 689 267 l 689 915 l 749 915 l 749 351 q 722 174 749 244 q 653 60 696 103 q 554 1 610 18 q 439 -17 499 -17 q 325 1 381 -17 q 226 60 269 18 q 158 174 183 103 q 132 351 132 244 l 132 915 m 282 1232 l 599 1232 l 599 1186 l 282 1186 l 282 1232 m 331 1007 q 296 1019 310 1007 q 282 1056 282 1032 q 296 1092 282 1079 q 331 1106 310 1106 q 366 1092 351 1106 q 381 1056 381 1079 q 366 1019 381 1032 q 331 1007 351 1007 m 550 1007 q 515 1019 529 1007 q 500 1056 500 1032 q 515 1092 500 1079 q 550 1106 529 1106 q 585 1092 571 1106 q 599 1056 599 1079 q 585 1019 599 1032 q 550 1007 571 1007 z "},"Ǘ":{"ha":881,"x_min":132,"x_max":749,"o":"m 132 915 l 196 915 l 196 358 q 216 206 196 267 q 269 109 236 146 q 347 57 303 72 q 439 42 390 42 q 534 57 489 42 q 613 109 579 72 q 668 206 647 146 q 689 358 689 267 l 689 915 l 749 915 l 749 351 q 722 174 749 244 q 653 60 696 103 q 554 1 610 18 q 439 -17 499 -17 q 325 1 381 -17 q 226 60 269 18 q 158 174 183 103 q 132 351 132 244 l 132 915 m 519 1299 l 594 1299 l 443 1151 l 389 1151 l 519 1299 m 331 1007 q 296 1019 310 1007 q 282 1056 282 1032 q 296 1092 282 1079 q 331 1106 310 1106 q 366 1092 351 1106 q 381 1056 381 1079 q 366 1019 381 1032 q 331 1007 351 1007 m 550 1007 q 515 1019 529 1007 q 500 1056 500 1032 q 515 1092 500 1079 q 550 1106 529 1106 q 585 1092 571 1106 q 599 1056 599 1079 q 585 1019 599 1032 q 550 1007 571 1007 z "},"Ǚ":{"ha":881,"x_min":132,"x_max":749,"o":"m 132 915 l 196 915 l 196 358 q 216 206 196 267 q 269 109 236 146 q 347 57 303 72 q 439 42 390 42 q 534 57 489 42 q 613 109 579 72 q 668 206 647 146 q 689 358 689 267 l 689 915 l 749 915 l 749 351 q 722 174 749 244 q 653 60 696 103 q 554 1 610 18 q 439 -17 499 -17 q 325 1 381 -17 q 226 60 269 18 q 158 174 183 103 q 132 351 132 244 l 132 915 m 331 1007 q 296 1019 310 1007 q 282 1056 282 1032 q 296 1092 282 1079 q 331 1106 310 1106 q 366 1092 351 1106 q 381 1056 381 1079 q 366 1019 381 1032 q 331 1007 351 1007 m 550 1007 q 515 1019 529 1007 q 500 1056 500 1032 q 515 1092 500 1079 q 550 1106 529 1106 q 585 1092 571 1106 q 599 1056 599 1079 q 585 1019 599 1032 q 550 1007 571 1007 m 603 1299 l 469 1151 l 411 1151 l 278 1299 l 333 1299 l 438 1199 l 443 1199 l 547 1299 l 603 1299 z "},"Ǜ":{"ha":881,"x_min":132,"x_max":749,"o":"m 132 915 l 196 915 l 196 358 q 216 206 196 267 q 269 109 236 146 q 347 57 303 72 q 439 42 390 42 q 534 57 489 42 q 613 109 579 72 q 668 206 647 146 q 689 358 689 267 l 689 915 l 749 915 l 749 351 q 722 174 749 244 q 653 60 696 103 q 554 1 610 18 q 439 -17 499 -17 q 325 1 381 -17 q 226 60 269 18 q 158 174 183 103 q 132 351 132 244 l 132 915 m 492 1151 l 438 1151 l 286 1299 l 361 1299 l 492 1151 m 550 1007 q 515 1019 529 1007 q 500 1056 500 1032 q 515 1092 500 1079 q 550 1106 529 1106 q 585 1092 571 1106 q 599 1056 599 1079 q 585 1019 599 1032 q 550 1007 571 1007 m 331 1007 q 296 1019 310 1007 q 282 1056 282 1032 q 296 1092 282 1079 q 331 1106 310 1106 q 366 1092 351 1106 q 381 1056 381 1079 q 366 1019 381 1032 q 331 1007 351 1007 z "},"Ụ":{"ha":881,"x_min":132,"x_max":749,"o":"m 132 915 l 196 915 l 196 358 q 216 206 196 267 q 269 109 236 146 q 347 57 303 72 q 439 42 390 42 q 534 57 489 42 q 613 109 579 72 q 668 206 647 146 q 689 358 689 267 l 689 915 l 749 915 l 749 351 q 722 174 749 244 q 653 60 696 103 q 554 1 610 18 q 439 -17 499 -17 q 325 1 381 -17 q 226 60 269 18 q 158 174 183 103 q 132 351 132 244 l 132 915 m 440 -269 q 402 -254 417 -269 q 388 -212 388 -239 q 402 -174 388 -189 q 440 -158 417 -158 q 478 -174 464 -158 q 493 -212 493 -189 q 478 -254 493 -239 q 440 -269 464 -269 z "},"Ủ":{"ha":881,"x_min":132,"x_max":749,"o":"m 132 915 l 196 915 l 196 358 q 216 206 196 267 q 269 109 236 146 q 347 57 303 72 q 439 42 390 42 q 534 57 489 42 q 613 109 579 72 q 668 206 647 146 q 689 358 689 267 l 689 915 l 749 915 l 749 351 q 722 174 749 244 q 653 60 696 103 q 554 1 610 18 q 439 -17 499 -17 q 325 1 381 -17 q 226 60 269 18 q 158 174 183 103 q 132 351 132 244 l 132 915 m 396 1013 q 458 1041 433 1024 q 483 1088 483 1058 q 365 1154 483 1150 l 371 1199 q 436 1191 406 1197 q 490 1172 467 1185 q 526 1141 513 1160 q 539 1096 539 1122 q 528 1049 539 1068 q 498 1015 517 1029 q 456 992 479 1001 q 407 975 432 982 l 396 1013 z "},"Ų":{"ha":881,"x_min":132,"x_max":749,"o":"m 132 915 l 196 915 l 196 358 q 216 206 196 267 q 269 109 236 146 q 347 57 303 72 q 439 42 390 42 q 534 57 489 42 q 613 109 579 72 q 668 206 647 146 q 689 358 689 267 l 689 915 l 749 915 l 749 351 q 731 201 749 261 q 684 101 714 142 q 615 35 654 61 q 535 -11 576 10 q 449 -82 479 -39 q 418 -161 418 -125 q 440 -215 418 -197 q 489 -233 461 -233 q 549 -214 521 -233 l 571 -251 q 529 -275 556 -265 q 481 -285 503 -285 q 397 -257 432 -285 q 363 -171 363 -229 q 371 -122 363 -144 q 392 -82 379 -100 q 420 -48 404 -64 q 451 -17 436 -32 q 326 1 385 -17 q 225 63 268 19 q 157 176 182 106 q 132 351 132 247 l 132 915 z "},"Ư":{"ha":896,"x_min":132,"x_max":889,"o":"m 863 1092 q 882 1054 875 1072 q 889 1015 889 1036 q 877 960 889 983 q 846 922 865 938 q 801 895 826 906 q 749 879 776 885 l 749 351 q 722 174 749 244 q 653 60 696 103 q 554 1 610 18 q 439 -17 499 -17 q 325 1 381 -17 q 226 60 269 18 q 158 174 183 103 q 132 351 132 244 l 132 915 l 196 915 l 196 358 q 216 206 196 267 q 269 109 236 146 q 347 57 303 72 q 439 42 390 42 q 534 57 489 42 q 613 109 579 72 q 668 206 647 146 q 689 358 689 267 l 689 915 l 703 915 q 833 1011 833 929 q 814 1065 833 1038 l 863 1092 z "},"Ứ":{"ha":896,"x_min":132,"x_max":889,"o":"m 863 1092 q 882 1054 875 1072 q 889 1015 889 1036 q 877 960 889 983 q 846 922 865 938 q 801 895 826 906 q 749 879 776 885 l 749 351 q 722 174 749 244 q 653 60 696 103 q 554 1 610 18 q 439 -17 499 -17 q 325 1 381 -17 q 226 60 269 18 q 158 174 183 103 q 132 351 132 244 l 132 915 l 196 915 l 196 358 q 216 206 196 267 q 269 109 236 146 q 347 57 303 72 q 439 42 390 42 q 534 57 489 42 q 613 109 579 72 q 668 206 647 146 q 689 358 689 267 l 689 915 l 703 915 q 833 1011 833 929 q 814 1065 833 1038 l 863 1092 m 443 985 l 388 985 l 515 1132 l 596 1132 l 443 985 z "},"Ừ":{"ha":896,"x_min":132,"x_max":889,"o":"m 863 1092 q 882 1054 875 1072 q 889 1015 889 1036 q 877 960 889 983 q 846 922 865 938 q 801 895 826 906 q 749 879 776 885 l 749 351 q 722 174 749 244 q 653 60 696 103 q 554 1 610 18 q 439 -17 499 -17 q 325 1 381 -17 q 226 60 269 18 q 158 174 183 103 q 132 351 132 244 l 132 915 l 196 915 l 196 358 q 216 206 196 267 q 269 109 236 146 q 347 57 303 72 q 439 42 390 42 q 534 57 489 42 q 613 109 579 72 q 668 206 647 146 q 689 358 689 267 l 689 915 l 703 915 q 833 1011 833 929 q 814 1065 833 1038 l 863 1092 m 282 1132 l 363 1132 l 490 985 l 435 985 l 282 1132 z "},"Ử":{"ha":896,"x_min":132,"x_max":889,"o":"m 863 1092 q 882 1054 875 1072 q 889 1015 889 1036 q 877 960 889 983 q 846 922 865 938 q 801 895 826 906 q 749 879 776 885 l 749 351 q 722 174 749 244 q 653 60 696 103 q 554 1 610 18 q 439 -17 499 -17 q 325 1 381 -17 q 226 60 269 18 q 158 174 183 103 q 132 351 132 244 l 132 915 l 196 915 l 196 358 q 216 206 196 267 q 269 109 236 146 q 347 57 303 72 q 439 42 390 42 q 534 57 489 42 q 613 109 579 72 q 668 206 647 146 q 689 358 689 267 l 689 915 l 703 915 q 833 1011 833 929 q 814 1065 833 1038 l 863 1092 m 394 1013 q 457 1041 432 1024 q 482 1088 482 1058 q 364 1154 482 1150 l 369 1199 q 435 1191 404 1197 q 488 1172 465 1185 q 524 1141 511 1160 q 538 1096 538 1122 q 526 1049 538 1068 q 497 1015 515 1029 q 454 992 478 1001 q 406 975 431 982 l 394 1013 z "},"Ữ":{"ha":896,"x_min":132,"x_max":889,"o":"m 863 1092 q 882 1054 875 1072 q 889 1015 889 1036 q 877 960 889 983 q 846 922 865 938 q 801 895 826 906 q 749 879 776 885 l 749 351 q 722 174 749 244 q 653 60 696 103 q 554 1 610 18 q 439 -17 499 -17 q 325 1 381 -17 q 226 60 269 18 q 158 174 183 103 q 132 351 132 244 l 132 915 l 196 915 l 196 358 q 216 206 196 267 q 269 109 236 146 q 347 57 303 72 q 439 42 390 42 q 534 57 489 42 q 613 109 579 72 q 668 206 647 146 q 689 358 689 267 l 689 915 l 703 915 q 833 1011 833 929 q 814 1065 833 1038 l 863 1092 m 521 994 q 472 1007 493 994 q 431 1034 450 1019 q 394 1061 413 1049 q 356 1074 376 1074 q 318 1052 333 1074 q 299 994 303 1031 l 258 994 q 267 1041 260 1018 q 286 1082 274 1064 q 316 1111 299 1100 q 357 1122 333 1122 q 406 1110 385 1122 q 445 1083 426 1097 q 483 1056 464 1068 q 522 1044 501 1044 q 560 1065 544 1044 q 579 1122 575 1086 l 619 1122 q 611 1076 618 1099 q 592 1035 604 1054 q 562 1006 579 1017 q 521 994 544 994 z "},"Ự":{"ha":896,"x_min":132,"x_max":889,"o":"m 863 1092 q 882 1054 875 1072 q 889 1015 889 1036 q 877 960 889 983 q 846 922 865 938 q 801 895 826 906 q 749 879 776 885 l 749 351 q 722 174 749 244 q 653 60 696 103 q 554 1 610 18 q 439 -17 499 -17 q 325 1 381 -17 q 226 60 269 18 q 158 174 183 103 q 132 351 132 244 l 132 915 l 196 915 l 196 358 q 216 206 196 267 q 269 109 236 146 q 347 57 303 72 q 439 42 390 42 q 534 57 489 42 q 613 109 579 72 q 668 206 647 146 q 689 358 689 267 l 689 915 l 703 915 q 833 1011 833 929 q 814 1065 833 1038 l 863 1092 m 439 -269 q 401 -254 415 -269 q 386 -212 386 -239 q 401 -174 386 -189 q 439 -158 415 -158 q 477 -174 463 -158 q 492 -212 492 -189 q 477 -254 492 -239 q 439 -269 463 -269 z "},"Ẁ":{"ha":1069,"x_min":39,"x_max":1028,"o":"m 39 915 l 106 915 l 221 376 q 252 227 236 301 q 283 78 268 153 l 289 78 q 323 227 306 153 q 360 376 340 301 l 503 915 l 568 915 l 711 376 q 748 227 731 301 q 785 78 765 153 l 790 78 q 820 227 806 153 q 850 376 835 301 l 965 915 l 1028 915 l 824 0 l 753 0 l 586 628 q 561 731 574 682 q 538 835 549 781 l 532 835 q 507 731 521 781 q 481 628 493 682 l 317 0 l 247 0 l 39 915 m 378 1132 l 458 1132 l 586 985 l 531 985 l 378 1132 z "},"Ẃ":{"ha":1069,"x_min":39,"x_max":1028,"o":"m 39 915 l 106 915 l 221 376 q 252 227 236 301 q 283 78 268 153 l 289 78 q 323 227 306 153 q 360 376 340 301 l 503 915 l 568 915 l 711 376 q 748 227 731 301 q 785 78 765 153 l 790 78 q 820 227 806 153 q 850 376 835 301 l 965 915 l 1028 915 l 824 0 l 753 0 l 586 628 q 561 731 574 682 q 538 835 549 781 l 532 835 q 507 731 521 781 q 481 628 493 682 l 317 0 l 247 0 l 39 915 m 539 985 l 483 985 l 611 1132 l 692 1132 l 539 985 z "},"Ŵ":{"ha":1069,"x_min":39,"x_max":1028,"o":"m 39 915 l 106 915 l 221 376 q 252 227 236 301 q 283 78 268 153 l 289 78 q 323 227 306 153 q 360 376 340 301 l 503 915 l 568 915 l 711 376 q 748 227 731 301 q 785 78 765 153 l 790 78 q 820 227 806 153 q 850 376 835 301 l 965 915 l 1028 915 l 824 0 l 753 0 l 586 628 q 561 731 574 682 q 538 835 549 781 l 532 835 q 507 731 521 781 q 481 628 493 682 l 317 0 l 247 0 l 39 915 m 372 985 l 506 1132 l 564 1132 l 697 985 l 642 985 l 538 1085 l 532 1085 l 428 985 l 372 985 z "},"Ẅ":{"ha":1069,"x_min":39,"x_max":1028,"o":"m 39 915 l 106 915 l 221 376 q 252 227 236 301 q 283 78 268 153 l 289 78 q 323 227 306 153 q 360 376 340 301 l 503 915 l 568 915 l 711 376 q 748 227 731 301 q 785 78 765 153 l 790 78 q 820 227 806 153 q 850 376 835 301 l 965 915 l 1028 915 l 824 0 l 753 0 l 586 628 q 561 731 574 682 q 538 835 549 781 l 532 835 q 507 731 521 781 q 481 628 493 682 l 317 0 l 247 0 l 39 915 m 425 1007 q 389 1020 403 1007 q 375 1057 375 1033 q 389 1094 375 1081 q 425 1108 403 1108 q 462 1094 447 1108 q 476 1057 476 1081 q 462 1020 476 1033 q 425 1007 447 1007 m 644 1007 q 608 1020 622 1007 q 593 1057 593 1033 q 608 1094 593 1081 q 644 1108 622 1108 q 681 1094 667 1108 q 694 1057 694 1081 q 681 1020 694 1033 q 644 1007 667 1007 z "},"Ỳ":{"ha":621,"x_min":4,"x_max":617,"o":"m 278 371 l 4 915 l 72 915 l 211 629 q 258 531 235 579 q 308 432 281 482 l 314 432 q 365 531 340 482 q 413 629 390 579 l 551 915 l 617 915 l 342 371 l 342 0 l 278 0 l 278 371 m 153 1132 l 233 1132 l 361 985 l 306 985 l 153 1132 z "},"Ý":{"ha":621,"x_min":4,"x_max":617,"o":"m 278 371 l 4 915 l 72 915 l 211 629 q 258 531 235 579 q 308 432 281 482 l 314 432 q 365 531 340 482 q 413 629 390 579 l 551 915 l 617 915 l 342 371 l 342 0 l 278 0 l 278 371 m 314 985 l 258 985 l 386 1132 l 467 1132 l 314 985 z "},"Ŷ":{"ha":621,"x_min":4,"x_max":617,"o":"m 278 371 l 4 915 l 72 915 l 211 629 q 258 531 235 579 q 308 432 281 482 l 314 432 q 365 531 340 482 q 413 629 390 579 l 551 915 l 617 915 l 342 371 l 342 0 l 278 0 l 278 371 m 147 985 l 281 1132 l 339 1132 l 472 985 l 417 985 l 313 1085 l 307 1085 l 203 985 l 147 985 z "},"Ÿ":{"ha":621,"x_min":4,"x_max":617,"o":"m 278 371 l 4 915 l 72 915 l 211 629 q 258 531 235 579 q 308 432 281 482 l 314 432 q 365 531 340 482 q 413 629 390 579 l 551 915 l 617 915 l 342 371 l 342 0 l 278 0 l 278 371 m 200 1007 q 164 1020 178 1007 q 150 1057 150 1033 q 164 1094 150 1081 q 200 1108 178 1108 q 237 1094 222 1108 q 251 1057 251 1081 q 237 1020 251 1033 q 200 1007 222 1007 m 419 1007 q 383 1020 397 1007 q 368 1057 368 1033 q 383 1094 368 1081 q 419 1108 397 1108 q 456 1094 442 1108 q 469 1057 469 1081 q 456 1020 469 1033 q 419 1007 442 1007 z "},"Ẏ":{"ha":621,"x_min":4,"x_max":617,"o":"m 278 371 l 4 915 l 72 915 l 211 629 q 258 531 235 579 q 308 432 281 482 l 314 432 q 365 531 340 482 q 413 629 390 579 l 551 915 l 617 915 l 342 371 l 342 0 l 278 0 l 278 371 m 310 1001 q 270 1017 286 1001 q 254 1058 254 1032 q 270 1097 254 1082 q 310 1113 286 1113 q 349 1097 333 1113 q 365 1058 365 1082 q 349 1017 365 1032 q 310 1001 333 1001 z "},"Ỵ":{"ha":621,"x_min":4,"x_max":617,"o":"m 278 371 l 4 915 l 72 915 l 211 629 q 258 531 235 579 q 308 432 281 482 l 314 432 q 365 531 340 482 q 413 629 390 579 l 551 915 l 617 915 l 342 371 l 342 0 l 278 0 l 278 371 m 313 -269 q 274 -254 289 -269 q 260 -212 260 -239 q 274 -174 260 -189 q 313 -158 289 -158 q 351 -174 336 -158 q 365 -212 365 -189 q 351 -254 365 -239 q 313 -269 336 -269 z "},"Ỷ":{"ha":621,"x_min":4,"x_max":617,"o":"m 278 371 l 4 915 l 72 915 l 211 629 q 258 531 235 579 q 308 432 281 482 l 314 432 q 365 531 340 482 q 413 629 390 579 l 551 915 l 617 915 l 342 371 l 342 0 l 278 0 l 278 371 m 265 1013 q 328 1041 303 1024 q 353 1088 353 1058 q 235 1154 353 1150 l 240 1199 q 306 1191 275 1197 q 359 1172 336 1185 q 395 1141 382 1160 q 408 1096 408 1122 q 397 1049 408 1068 q 367 1015 386 1029 q 325 992 349 1001 q 276 975 301 982 l 265 1013 z "},"Ỹ":{"ha":621,"x_min":4,"x_max":617,"o":"m 278 371 l 4 915 l 72 915 l 211 629 q 258 531 235 579 q 308 432 281 482 l 314 432 q 365 531 340 482 q 413 629 390 579 l 551 915 l 617 915 l 342 371 l 342 0 l 278 0 l 278 371 m 392 994 q 342 1007 364 994 q 302 1034 321 1019 q 265 1061 283 1049 q 226 1074 247 1074 q 189 1052 204 1074 q 169 994 174 1031 l 129 994 q 138 1041 131 1018 q 157 1082 144 1064 q 187 1111 169 1100 q 228 1122 204 1122 q 276 1110 256 1122 q 316 1083 297 1097 q 353 1056 335 1068 q 393 1044 372 1044 q 431 1065 415 1044 q 450 1122 446 1086 l 490 1122 q 482 1076 489 1099 q 463 1035 475 1054 q 433 1006 450 1017 q 392 994 415 994 z "},"Ź":{"ha":747,"x_min":69,"x_max":681,"o":"m 69 38 l 596 860 l 115 860 l 115 915 l 676 915 l 676 878 l 149 56 l 681 56 l 681 0 l 69 0 l 69 38 m 392 985 l 336 985 l 464 1132 l 544 1132 l 392 985 z "},"Ž":{"ha":747,"x_min":69,"x_max":681,"o":"m 69 38 l 596 860 l 115 860 l 115 915 l 676 915 l 676 878 l 149 56 l 681 56 l 681 0 l 69 0 l 69 38 m 550 1132 l 417 985 l 358 985 l 225 1132 l 281 1132 l 385 1032 l 390 1032 l 494 1132 l 550 1132 z "},"Ż":{"ha":747,"x_min":69,"x_max":681,"o":"m 69 38 l 596 860 l 115 860 l 115 915 l 676 915 l 676 878 l 149 56 l 681 56 l 681 0 l 69 0 l 69 38 m 388 1001 q 348 1017 364 1001 q 332 1058 332 1032 q 348 1097 332 1082 q 388 1113 364 1113 q 427 1097 411 1113 q 443 1058 443 1082 q 427 1017 443 1032 q 388 1001 411 1001 z "},"Ẓ":{"ha":747,"x_min":69,"x_max":681,"o":"m 69 38 l 596 860 l 115 860 l 115 915 l 676 915 l 676 878 l 149 56 l 681 56 l 681 0 l 69 0 l 69 38 m 390 -269 q 352 -254 367 -269 q 338 -212 338 -239 q 352 -174 338 -189 q 390 -158 367 -158 q 428 -174 414 -158 q 443 -212 443 -189 q 428 -254 443 -239 q 390 -269 414 -269 z "},"Ð":{"ha":868,"x_min":51,"x_max":792,"o":"m 369 54 q 529 84 463 54 q 640 168 596 114 q 704 297 683 222 q 725 461 725 371 q 704 624 725 550 q 640 750 683 697 q 529 832 596 803 q 369 861 463 861 l 228 861 l 228 507 l 454 507 l 454 461 l 228 461 l 228 54 l 369 54 m 375 915 q 559 883 481 915 q 690 792 638 851 q 767 649 742 732 q 792 461 792 565 q 767 272 792 357 q 690 126 742 186 q 560 33 639 65 q 376 0 482 0 l 164 0 l 164 461 l 51 461 l 51 504 l 164 507 l 164 915 l 375 915 z "},"Þ":{"ha":782,"x_min":135,"x_max":711,"o":"m 135 915 l 199 915 l 199 753 l 385 753 q 522 739 461 753 q 624 695 582 725 q 689 617 667 665 q 711 497 711 568 q 625 297 711 363 q 385 231 539 231 l 199 231 l 199 0 l 135 0 l 135 915 m 369 285 q 578 335 510 285 q 646 497 646 385 q 577 655 646 611 q 369 699 508 699 l 199 699 l 199 285 l 369 285 z "},"Ə":{"ha":900,"x_min":86,"x_max":824,"o":"m 151 415 q 178 260 156 329 q 240 141 201 190 q 332 65 279 92 q 447 38 385 38 q 569 65 514 38 q 664 141 624 92 q 728 260 704 190 q 758 415 753 329 l 151 415 m 183 828 q 297 902 228 872 q 453 932 367 932 q 609 899 540 932 q 726 805 678 867 q 799 656 774 743 q 824 460 824 568 q 796 263 824 351 q 719 113 768 175 q 600 17 669 51 q 447 -17 531 -17 q 297 18 364 -17 q 184 115 231 53 q 112 264 138 178 q 86 453 86 350 q 87 460 86 456 q 88 468 88 464 l 760 468 q 738 638 758 561 q 678 767 717 714 q 582 849 639 819 q 453 878 525 878 q 321 852 382 878 q 217 785 260 826 l 183 828 z "},"à":{"ha":693,"x_min":90,"x_max":582,"o":"m 90 167 q 194 335 90 276 q 521 418 299 393 q 516 494 522 456 q 492 562 510 532 q 444 610 475 592 q 364 629 413 629 q 240 603 296 629 q 151 551 185 576 l 124 597 q 167 625 142 610 q 224 653 193 640 q 293 674 256 665 q 371 683 331 683 q 471 663 431 683 q 536 608 511 643 q 572 527 561 574 q 582 426 582 481 l 582 0 l 531 0 l 524 86 l 521 86 q 410 15 469 46 q 285 -17 351 -17 q 210 -6 244 -17 q 148 28 175 6 q 106 85 121 50 q 90 167 90 119 m 154 169 q 196 67 154 97 q 294 36 238 36 q 406 64 353 36 q 521 144 458 92 l 521 371 q 348 340 418 358 q 235 297 278 322 q 173 240 192 272 q 154 169 154 208 m 242 983 l 314 983 l 442 794 l 389 794 l 242 983 z "},"á":{"ha":693,"x_min":90,"x_max":582,"o":"m 90 167 q 194 335 90 276 q 521 418 299 393 q 516 494 522 456 q 492 562 510 532 q 444 610 475 592 q 364 629 413 629 q 240 603 296 629 q 151 551 185 576 l 124 597 q 167 625 142 610 q 224 653 193 640 q 293 674 256 665 q 371 683 331 683 q 471 663 431 683 q 536 608 511 643 q 572 527 561 574 q 582 426 582 481 l 582 0 l 531 0 l 524 86 l 521 86 q 410 15 469 46 q 285 -17 351 -17 q 210 -6 244 -17 q 148 28 175 6 q 106 85 121 50 q 90 167 90 119 m 154 169 q 196 67 154 97 q 294 36 238 36 q 406 64 353 36 q 521 144 458 92 l 521 371 q 348 340 418 358 q 235 297 278 322 q 173 240 192 272 q 154 169 154 208 m 339 794 l 286 794 l 414 983 l 486 983 l 339 794 z "},"â":{"ha":693,"x_min":90,"x_max":582,"o":"m 90 167 q 194 335 90 276 q 521 418 299 393 q 516 494 522 456 q 492 562 510 532 q 444 610 475 592 q 364 629 413 629 q 240 603 296 629 q 151 551 185 576 l 124 597 q 167 625 142 610 q 224 653 193 640 q 293 674 256 665 q 371 683 331 683 q 471 663 431 683 q 536 608 511 643 q 572 527 561 574 q 582 426 582 481 l 582 0 l 531 0 l 524 86 l 521 86 q 410 15 469 46 q 285 -17 351 -17 q 210 -6 244 -17 q 148 28 175 6 q 106 85 121 50 q 90 167 90 119 m 154 169 q 196 67 154 97 q 294 36 238 36 q 406 64 353 36 q 521 144 458 92 l 521 371 q 348 340 418 358 q 235 297 278 322 q 173 240 192 272 q 154 169 154 208 m 338 983 l 390 983 l 522 794 l 471 794 l 367 932 l 361 932 l 257 794 l 206 794 l 338 983 z "},"ã":{"ha":693,"x_min":90,"x_max":582,"o":"m 90 167 q 194 335 90 276 q 521 418 299 393 q 516 494 522 456 q 492 562 510 532 q 444 610 475 592 q 364 629 413 629 q 240 603 296 629 q 151 551 185 576 l 124 597 q 167 625 142 610 q 224 653 193 640 q 293 674 256 665 q 371 683 331 683 q 471 663 431 683 q 536 608 511 643 q 572 527 561 574 q 582 426 582 481 l 582 0 l 531 0 l 524 86 l 521 86 q 410 15 469 46 q 285 -17 351 -17 q 210 -6 244 -17 q 148 28 175 6 q 106 85 121 50 q 90 167 90 119 m 154 169 q 196 67 154 97 q 294 36 238 36 q 406 64 353 36 q 521 144 458 92 l 521 371 q 348 340 418 358 q 235 297 278 322 q 173 240 192 272 q 154 169 154 208 m 192 807 q 199 851 193 829 q 216 891 204 874 q 245 919 228 908 q 288 931 263 931 q 333 919 313 931 q 372 892 354 907 q 407 866 390 878 q 442 854 424 854 q 476 874 464 854 q 494 931 489 894 l 536 931 q 529 886 535 908 q 512 847 524 864 q 483 818 500 829 q 440 807 465 807 q 394 819 415 807 q 356 845 374 831 q 322 872 339 860 q 286 883 304 883 q 233 807 244 883 l 192 807 l 192 807 z "},"ä":{"ha":693,"x_min":90,"x_max":582,"o":"m 90 167 q 194 335 90 276 q 521 418 299 393 q 516 494 522 456 q 492 562 510 532 q 444 610 475 592 q 364 629 413 629 q 240 603 296 629 q 151 551 185 576 l 124 597 q 167 625 142 610 q 224 653 193 640 q 293 674 256 665 q 371 683 331 683 q 471 663 431 683 q 536 608 511 643 q 572 527 561 574 q 582 426 582 481 l 582 0 l 531 0 l 524 86 l 521 86 q 410 15 469 46 q 285 -17 351 -17 q 210 -6 244 -17 q 148 28 175 6 q 106 85 121 50 q 90 167 90 119 m 154 169 q 196 67 154 97 q 294 36 238 36 q 406 64 353 36 q 521 144 458 92 l 521 371 q 348 340 418 358 q 235 297 278 322 q 173 240 192 272 q 154 169 154 208 m 254 831 q 218 845 232 831 q 204 882 204 860 q 218 917 204 903 q 254 932 232 932 q 291 917 276 932 q 306 882 306 903 q 291 845 306 860 q 254 831 276 831 m 474 831 q 437 845 451 831 q 422 882 422 860 q 437 917 422 903 q 474 932 451 932 q 510 917 496 932 q 524 882 524 903 q 510 845 524 860 q 474 831 496 831 z "},"ā":{"ha":693,"x_min":90,"x_max":582,"o":"m 90 167 q 194 335 90 276 q 521 418 299 393 q 516 494 522 456 q 492 562 510 532 q 444 610 475 592 q 364 629 413 629 q 240 603 296 629 q 151 551 185 576 l 124 597 q 167 625 142 610 q 224 653 193 640 q 293 674 256 665 q 371 683 331 683 q 471 663 431 683 q 536 608 511 643 q 572 527 561 574 q 582 426 582 481 l 582 0 l 531 0 l 524 86 l 521 86 q 410 15 469 46 q 285 -17 351 -17 q 210 -6 244 -17 q 148 28 175 6 q 106 85 121 50 q 90 167 90 119 m 154 169 q 196 67 154 97 q 294 36 238 36 q 406 64 353 36 q 521 144 458 92 l 521 371 q 348 340 418 358 q 235 297 278 322 q 173 240 192 272 q 154 169 154 208 m 207 892 l 521 892 l 521 842 l 207 842 l 207 892 z "},"ă":{"ha":693,"x_min":90,"x_max":582,"o":"m 90 167 q 194 335 90 276 q 521 418 299 393 q 516 494 522 456 q 492 562 510 532 q 444 610 475 592 q 364 629 413 629 q 240 603 296 629 q 151 551 185 576 l 124 597 q 167 625 142 610 q 224 653 193 640 q 293 674 256 665 q 371 683 331 683 q 471 663 431 683 q 536 608 511 643 q 572 527 561 574 q 582 426 582 481 l 582 0 l 531 0 l 524 86 l 521 86 q 410 15 469 46 q 285 -17 351 -17 q 210 -6 244 -17 q 148 28 175 6 q 106 85 121 50 q 90 167 90 119 m 154 169 q 196 67 154 97 q 294 36 238 36 q 406 64 353 36 q 521 144 458 92 l 521 371 q 348 340 418 358 q 235 297 278 322 q 173 240 192 272 q 154 169 154 208 m 364 800 q 291 816 321 800 q 242 856 261 832 q 212 910 222 881 q 199 965 201 939 l 244 965 q 256 922 247 943 q 280 883 265 900 q 315 855 294 865 q 364 844 336 844 q 413 855 392 844 q 448 883 433 865 q 472 922 463 900 q 483 965 481 943 l 529 965 q 516 910 526 939 q 486 856 506 881 q 437 816 467 832 q 364 800 407 800 z "},"å":{"ha":693,"x_min":90,"x_max":582,"o":"m 90 167 q 194 335 90 276 q 521 418 299 393 q 516 494 522 456 q 492 562 510 532 q 444 610 475 592 q 364 629 413 629 q 240 603 296 629 q 151 551 185 576 l 124 597 q 167 625 142 610 q 224 653 193 640 q 293 674 256 665 q 371 683 331 683 q 471 663 431 683 q 536 608 511 643 q 572 527 561 574 q 582 426 582 481 l 582 0 l 531 0 l 524 86 l 521 86 q 410 15 469 46 q 285 -17 351 -17 q 210 -6 244 -17 q 148 28 175 6 q 106 85 121 50 q 90 167 90 119 m 154 169 q 196 67 154 97 q 294 36 238 36 q 406 64 353 36 q 521 144 458 92 l 521 371 q 348 340 418 358 q 235 297 278 322 q 173 240 192 272 q 154 169 154 208 m 364 749 q 283 782 315 749 q 250 868 250 815 q 283 956 250 922 q 364 989 315 989 q 445 956 413 989 q 478 868 478 922 q 445 782 478 815 q 364 749 413 749 m 364 785 q 415 808 394 785 q 436 868 436 831 q 415 930 436 907 q 364 953 394 953 q 313 930 333 953 q 292 868 292 907 q 313 808 292 831 q 364 785 333 785 z "},"ǎ":{"ha":693,"x_min":90,"x_max":582,"o":"m 90 167 q 194 335 90 276 q 521 418 299 393 q 516 494 522 456 q 492 562 510 532 q 444 610 475 592 q 364 629 413 629 q 240 603 296 629 q 151 551 185 576 l 124 597 q 167 625 142 610 q 224 653 193 640 q 293 674 256 665 q 371 683 331 683 q 471 663 431 683 q 536 608 511 643 q 572 527 561 574 q 582 426 582 481 l 582 0 l 531 0 l 524 86 l 521 86 q 410 15 469 46 q 285 -17 351 -17 q 210 -6 244 -17 q 148 28 175 6 q 106 85 121 50 q 90 167 90 119 m 154 169 q 196 67 154 97 q 294 36 238 36 q 406 64 353 36 q 521 144 458 92 l 521 371 q 348 340 418 358 q 235 297 278 322 q 173 240 192 272 q 154 169 154 208 m 206 983 l 257 983 l 361 846 l 367 846 l 471 983 l 522 983 l 390 794 l 338 794 l 206 983 z "},"ạ":{"ha":693,"x_min":90,"x_max":582,"o":"m 90 167 q 194 335 90 276 q 521 418 299 393 q 516 494 522 456 q 492 562 510 532 q 444 610 475 592 q 364 629 413 629 q 240 603 296 629 q 151 551 185 576 l 124 597 q 167 625 142 610 q 224 653 193 640 q 293 674 256 665 q 371 683 331 683 q 471 663 431 683 q 536 608 511 643 q 572 527 561 574 q 582 426 582 481 l 582 0 l 531 0 l 524 86 l 521 86 q 410 15 469 46 q 285 -17 351 -17 q 210 -6 244 -17 q 148 28 175 6 q 106 85 121 50 q 90 167 90 119 m 154 169 q 196 67 154 97 q 294 36 238 36 q 406 64 353 36 q 521 144 458 92 l 521 371 q 348 340 418 358 q 235 297 278 322 q 173 240 192 272 q 154 169 154 208 m 342 -269 q 303 -254 318 -269 q 289 -212 289 -239 q 303 -174 289 -189 q 342 -158 318 -158 q 380 -174 365 -158 q 394 -212 394 -189 q 380 -254 394 -239 q 342 -269 365 -269 z "},"ả":{"ha":693,"x_min":90,"x_max":582,"o":"m 90 167 q 194 335 90 276 q 521 418 299 393 q 516 494 522 456 q 492 562 510 532 q 444 610 475 592 q 364 629 413 629 q 240 603 296 629 q 151 551 185 576 l 124 597 q 167 625 142 610 q 224 653 193 640 q 293 674 256 665 q 371 683 331 683 q 471 663 431 683 q 536 608 511 643 q 572 527 561 574 q 582 426 582 481 l 582 0 l 531 0 l 524 86 l 521 86 q 410 15 469 46 q 285 -17 351 -17 q 210 -6 244 -17 q 148 28 175 6 q 106 85 121 50 q 90 167 90 119 m 154 169 q 196 67 154 97 q 294 36 238 36 q 406 64 353 36 q 521 144 458 92 l 521 371 q 348 340 418 358 q 235 297 278 322 q 173 240 192 272 q 154 169 154 208 m 319 801 q 382 830 357 813 q 407 878 407 847 q 289 944 407 940 l 294 989 q 360 981 329 988 q 413 961 390 974 q 449 930 436 949 q 463 885 463 911 q 451 838 463 857 q 422 804 440 818 q 379 781 403 790 q 331 765 356 772 l 319 801 z "},"ấ":{"ha":693,"x_min":90,"x_max":643,"o":"m 90 167 q 194 335 90 276 q 521 418 299 393 q 516 494 522 456 q 492 562 510 532 q 444 610 475 592 q 364 629 413 629 q 240 603 296 629 q 151 551 185 576 l 124 597 q 167 625 142 610 q 224 653 193 640 q 293 674 256 665 q 371 683 331 683 q 471 663 431 683 q 536 608 511 643 q 572 527 561 574 q 582 426 582 481 l 582 0 l 531 0 l 524 86 l 521 86 q 410 15 469 46 q 285 -17 351 -17 q 210 -6 244 -17 q 148 28 175 6 q 106 85 121 50 q 90 167 90 119 m 154 169 q 196 67 154 97 q 294 36 238 36 q 406 64 353 36 q 521 144 458 92 l 521 371 q 348 340 418 358 q 235 297 278 322 q 173 240 192 272 q 154 169 154 208 m 338 953 l 390 953 l 507 794 l 457 794 l 367 903 l 361 903 l 271 794 l 221 794 l 338 953 m 579 1039 l 643 1039 l 518 885 l 472 885 l 579 1039 z "},"ầ":{"ha":693,"x_min":90,"x_max":604,"o":"m 90 167 q 194 335 90 276 q 521 418 299 393 q 516 494 522 456 q 492 562 510 532 q 444 610 475 592 q 364 629 413 629 q 240 603 296 629 q 151 551 185 576 l 124 597 q 167 625 142 610 q 224 653 193 640 q 293 674 256 665 q 371 683 331 683 q 471 663 431 683 q 536 608 511 643 q 572 527 561 574 q 582 426 582 481 l 582 0 l 531 0 l 524 86 l 521 86 q 410 15 469 46 q 285 -17 351 -17 q 210 -6 244 -17 q 148 28 175 6 q 106 85 121 50 q 90 167 90 119 m 154 169 q 196 67 154 97 q 294 36 238 36 q 406 64 353 36 q 521 144 458 92 l 521 371 q 348 340 418 358 q 235 297 278 322 q 173 240 192 272 q 154 169 154 208 m 338 953 l 390 953 l 507 794 l 457 794 l 367 903 l 361 903 l 271 794 l 221 794 l 338 953 m 604 885 l 558 885 l 432 1039 l 497 1039 l 604 885 z "},"ẩ":{"ha":693,"x_min":90,"x_max":617,"o":"m 90 167 q 194 335 90 276 q 521 418 299 393 q 516 494 522 456 q 492 562 510 532 q 444 610 475 592 q 364 629 413 629 q 240 603 296 629 q 151 551 185 576 l 124 597 q 167 625 142 610 q 224 653 193 640 q 293 674 256 665 q 371 683 331 683 q 471 663 431 683 q 536 608 511 643 q 572 527 561 574 q 582 426 582 481 l 582 0 l 531 0 l 524 86 l 521 86 q 410 15 469 46 q 285 -17 351 -17 q 210 -6 244 -17 q 148 28 175 6 q 106 85 121 50 q 90 167 90 119 m 154 169 q 196 67 154 97 q 294 36 238 36 q 406 64 353 36 q 521 144 458 92 l 521 371 q 348 340 418 358 q 235 297 278 322 q 173 240 192 272 q 154 169 154 208 m 338 953 l 390 953 l 507 794 l 457 794 l 367 903 l 361 903 l 271 794 l 221 794 l 338 953 m 496 907 q 544 933 525 918 q 564 971 564 947 q 465 1035 564 1031 l 469 1075 q 574 1050 532 1072 q 617 978 617 1028 q 607 937 617 954 q 581 907 597 919 q 546 886 565 894 q 507 872 526 878 l 496 907 z "},"ẫ":{"ha":693,"x_min":90,"x_max":582,"o":"m 90 167 q 194 335 90 276 q 521 418 299 393 q 516 494 522 456 q 492 562 510 532 q 444 610 475 592 q 364 629 413 629 q 240 603 296 629 q 151 551 185 576 l 124 597 q 167 625 142 610 q 224 653 193 640 q 293 674 256 665 q 371 683 331 683 q 471 663 431 683 q 536 608 511 643 q 572 527 561 574 q 582 426 582 481 l 582 0 l 531 0 l 524 86 l 521 86 q 410 15 469 46 q 285 -17 351 -17 q 210 -6 244 -17 q 148 28 175 6 q 106 85 121 50 q 90 167 90 119 m 154 169 q 196 67 154 97 q 294 36 238 36 q 406 64 353 36 q 521 144 458 92 l 521 371 q 348 340 418 358 q 235 297 278 322 q 173 240 192 272 q 154 169 154 208 m 336 931 l 392 931 l 518 792 l 468 792 l 367 888 l 361 888 l 260 792 l 210 792 l 336 931 m 196 981 q 203 1019 197 1000 q 222 1054 210 1039 q 251 1078 233 1069 q 293 1088 269 1088 q 337 1078 318 1088 q 371 1056 356 1068 q 401 1035 386 1044 q 435 1025 417 1025 q 493 1088 482 1025 l 532 1088 q 524 1049 531 1068 q 506 1014 518 1029 q 476 990 494 999 q 435 981 458 981 q 391 990 410 981 q 356 1012 372 1000 q 326 1033 340 1024 q 293 1043 311 1043 q 235 981 244 1043 l 196 981 z "},"ậ":{"ha":693,"x_min":90,"x_max":582,"o":"m 90 167 q 194 335 90 276 q 521 418 299 393 q 516 494 522 456 q 492 562 510 532 q 444 610 475 592 q 364 629 413 629 q 240 603 296 629 q 151 551 185 576 l 124 597 q 167 625 142 610 q 224 653 193 640 q 293 674 256 665 q 371 683 331 683 q 471 663 431 683 q 536 608 511 643 q 572 527 561 574 q 582 426 582 481 l 582 0 l 531 0 l 524 86 l 521 86 q 410 15 469 46 q 285 -17 351 -17 q 210 -6 244 -17 q 148 28 175 6 q 106 85 121 50 q 90 167 90 119 m 154 169 q 196 67 154 97 q 294 36 238 36 q 406 64 353 36 q 521 144 458 92 l 521 371 q 348 340 418 358 q 235 297 278 322 q 173 240 192 272 q 154 169 154 208 m 338 983 l 390 983 l 522 794 l 471 794 l 367 932 l 361 932 l 257 794 l 206 794 l 338 983 m 342 -269 q 303 -254 318 -269 q 289 -212 289 -239 q 303 -174 289 -189 q 342 -158 318 -158 q 380 -174 365 -158 q 394 -212 394 -189 q 380 -254 394 -239 q 342 -269 365 -269 z "},"ắ":{"ha":693,"x_min":90,"x_max":582,"o":"m 90 167 q 194 335 90 276 q 521 418 299 393 q 516 494 522 456 q 492 562 510 532 q 444 610 475 592 q 364 629 413 629 q 240 603 296 629 q 151 551 185 576 l 124 597 q 167 625 142 610 q 224 653 193 640 q 293 674 256 665 q 371 683 331 683 q 471 663 431 683 q 536 608 511 643 q 572 527 561 574 q 582 426 582 481 l 582 0 l 531 0 l 524 86 l 521 86 q 410 15 469 46 q 285 -17 351 -17 q 210 -6 244 -17 q 148 28 175 6 q 106 85 121 50 q 90 167 90 119 m 154 169 q 196 67 154 97 q 294 36 238 36 q 406 64 353 36 q 521 144 458 92 l 521 371 q 348 340 418 358 q 235 297 278 322 q 173 240 192 272 q 154 169 154 208 m 422 1079 l 486 1079 l 367 926 l 319 926 l 422 1079 m 364 800 q 291 816 321 800 q 242 856 261 832 q 212 910 222 881 q 199 965 201 939 l 242 965 q 277 881 247 919 q 364 843 307 843 q 415 853 393 843 q 451 881 436 864 q 474 920 465 899 q 486 965 483 942 l 529 965 q 516 910 526 939 q 486 856 506 881 q 437 816 467 832 q 364 800 407 800 z "},"ằ":{"ha":693,"x_min":90,"x_max":582,"o":"m 90 167 q 194 335 90 276 q 521 418 299 393 q 516 494 522 456 q 492 562 510 532 q 444 610 475 592 q 364 629 413 629 q 240 603 296 629 q 151 551 185 576 l 124 597 q 167 625 142 610 q 224 653 193 640 q 293 674 256 665 q 371 683 331 683 q 471 663 431 683 q 536 608 511 643 q 572 527 561 574 q 582 426 582 481 l 582 0 l 531 0 l 524 86 l 521 86 q 410 15 469 46 q 285 -17 351 -17 q 210 -6 244 -17 q 148 28 175 6 q 106 85 121 50 q 90 167 90 119 m 154 169 q 196 67 154 97 q 294 36 238 36 q 406 64 353 36 q 521 144 458 92 l 521 371 q 348 340 418 358 q 235 297 278 322 q 173 240 192 272 q 154 169 154 208 m 408 926 l 361 926 l 242 1079 l 306 1079 l 408 926 m 364 800 q 291 816 321 800 q 242 856 261 832 q 212 910 222 881 q 199 965 201 939 l 242 965 q 277 881 247 919 q 364 843 307 843 q 415 853 393 843 q 451 881 436 864 q 474 920 465 899 q 486 965 483 942 l 529 965 q 516 910 526 939 q 486 856 506 881 q 437 816 467 832 q 364 800 407 800 z "},"ẳ":{"ha":693,"x_min":90,"x_max":582,"o":"m 90 167 q 194 335 90 276 q 521 418 299 393 q 516 494 522 456 q 492 562 510 532 q 444 610 475 592 q 364 629 413 629 q 240 603 296 629 q 151 551 185 576 l 124 597 q 167 625 142 610 q 224 653 193 640 q 293 674 256 665 q 371 683 331 683 q 471 663 431 683 q 536 608 511 643 q 572 527 561 574 q 582 426 582 481 l 582 0 l 531 0 l 524 86 l 521 86 q 410 15 469 46 q 285 -17 351 -17 q 210 -6 244 -17 q 148 28 175 6 q 106 85 121 50 q 90 167 90 119 m 154 169 q 196 67 154 97 q 294 36 238 36 q 406 64 353 36 q 521 144 458 92 l 521 371 q 348 340 418 358 q 235 297 278 322 q 173 240 192 272 q 154 169 154 208 m 364 800 q 291 816 321 800 q 242 856 261 832 q 212 910 222 881 q 199 965 201 939 l 242 965 q 277 881 247 919 q 364 843 307 843 q 415 853 393 843 q 451 881 436 864 q 474 920 465 899 q 486 965 483 942 l 529 965 q 516 910 526 939 q 486 856 506 881 q 437 816 467 832 q 364 800 407 800 m 322 974 q 372 998 353 983 q 390 1036 390 1013 q 366 1083 390 1068 q 292 1100 342 1097 l 297 1140 q 401 1115 360 1138 q 443 1044 443 1093 q 433 1002 443 1019 q 408 972 424 985 q 372 951 392 960 q 333 938 353 943 l 322 974 z "},"ẵ":{"ha":693,"x_min":90,"x_max":582,"o":"m 90 167 q 194 335 90 276 q 521 418 299 393 q 516 494 522 456 q 492 562 510 532 q 444 610 475 592 q 364 629 413 629 q 240 603 296 629 q 151 551 185 576 l 124 597 q 167 625 142 610 q 224 653 193 640 q 293 674 256 665 q 371 683 331 683 q 471 663 431 683 q 536 608 511 643 q 572 527 561 574 q 582 426 582 481 l 582 0 l 531 0 l 524 86 l 521 86 q 410 15 469 46 q 285 -17 351 -17 q 210 -6 244 -17 q 148 28 175 6 q 106 85 121 50 q 90 167 90 119 m 154 169 q 196 67 154 97 q 294 36 238 36 q 406 64 353 36 q 521 144 458 92 l 521 371 q 348 340 418 358 q 235 297 278 322 q 173 240 192 272 q 154 169 154 208 m 364 800 q 292 813 321 800 q 243 844 263 825 q 214 888 224 864 q 201 938 204 913 l 244 938 q 280 872 251 901 q 364 843 308 843 q 448 872 419 843 q 483 938 476 901 l 526 938 q 514 888 524 913 q 485 844 504 864 q 436 813 465 825 q 364 800 407 800 m 196 981 q 203 1019 197 1000 q 222 1054 210 1039 q 251 1078 233 1069 q 293 1088 269 1088 q 337 1078 318 1088 q 371 1056 356 1068 q 401 1035 386 1044 q 435 1025 417 1025 q 493 1088 482 1025 l 532 1088 q 524 1049 531 1068 q 506 1014 518 1029 q 476 990 494 999 q 435 981 458 981 q 391 990 410 981 q 356 1012 372 1000 q 326 1033 340 1024 q 293 1043 311 1043 q 235 981 244 1043 l 196 981 z "},"ặ":{"ha":693,"x_min":90,"x_max":582,"o":"m 90 167 q 194 335 90 276 q 521 418 299 393 q 516 494 522 456 q 492 562 510 532 q 444 610 475 592 q 364 629 413 629 q 240 603 296 629 q 151 551 185 576 l 124 597 q 167 625 142 610 q 224 653 193 640 q 293 674 256 665 q 371 683 331 683 q 471 663 431 683 q 536 608 511 643 q 572 527 561 574 q 582 426 582 481 l 582 0 l 531 0 l 524 86 l 521 86 q 410 15 469 46 q 285 -17 351 -17 q 210 -6 244 -17 q 148 28 175 6 q 106 85 121 50 q 90 167 90 119 m 154 169 q 196 67 154 97 q 294 36 238 36 q 406 64 353 36 q 521 144 458 92 l 521 371 q 348 340 418 358 q 235 297 278 322 q 173 240 192 272 q 154 169 154 208 m 364 800 q 291 816 321 800 q 242 856 261 832 q 212 910 222 881 q 199 965 201 939 l 244 965 q 256 922 247 943 q 280 883 265 900 q 315 855 294 865 q 364 844 336 844 q 413 855 392 844 q 448 883 433 865 q 472 922 463 900 q 483 965 481 943 l 529 965 q 516 910 526 939 q 486 856 506 881 q 437 816 467 832 q 364 800 407 800 m 342 -269 q 303 -254 318 -269 q 289 -212 289 -239 q 303 -174 289 -189 q 342 -158 318 -158 q 380 -174 365 -158 q 394 -212 394 -189 q 380 -254 394 -239 q 342 -269 365 -269 z "},"ą":{"ha":693,"x_min":90,"x_max":613,"o":"m 154 169 q 196 67 154 97 q 294 36 238 36 q 406 64 353 36 q 521 144 458 92 l 521 371 q 348 340 418 358 q 235 297 278 322 q 173 240 192 272 q 154 169 154 208 m 90 165 q 194 335 90 276 q 521 418 299 393 q 516 494 522 456 q 492 562 510 532 q 444 610 475 592 q 364 629 413 629 q 240 603 296 629 q 151 551 185 576 l 124 597 q 167 625 142 610 q 224 653 193 640 q 293 674 256 665 q 371 683 331 683 q 471 663 431 683 q 536 608 511 643 q 572 527 561 574 q 582 426 582 481 l 582 0 q 496 -72 529 -26 q 463 -161 463 -117 q 483 -215 463 -197 q 531 -233 504 -233 q 590 -214 565 -233 l 613 -250 q 572 -273 597 -264 q 522 -282 546 -282 q 442 -254 474 -282 q 410 -169 410 -226 q 446 -69 410 -117 q 531 10 482 -21 l 524 86 l 521 86 q 410 15 469 46 q 285 -17 351 -17 q 210 -6 244 -17 q 148 28 175 6 q 106 84 121 50 q 90 165 90 118 z "},"æ":{"ha":1089,"x_min":90,"x_max":1036,"o":"m 154 169 q 196 67 154 97 q 294 36 238 36 q 353 44 321 36 q 417 69 385 53 q 482 110 450 86 q 543 165 514 135 q 521 241 528 196 q 514 333 514 286 l 513 371 q 347 340 415 358 q 236 297 279 322 q 174 240 193 272 q 154 169 154 208 m 124 597 q 167 625 142 610 q 223 653 192 640 q 290 674 254 665 q 363 683 325 683 q 492 638 444 683 q 557 517 540 593 q 653 638 593 593 q 789 683 714 683 q 972 603 907 683 q 1036 375 1036 522 q 1036 350 1036 363 q 1033 325 1036 338 l 572 325 q 590 210 572 263 q 640 119 608 157 q 716 59 672 81 q 810 38 760 38 q 905 53 864 38 q 983 97 946 69 l 1010 49 q 969 25 990 36 q 924 4 949 14 q 869 -11 899 -6 q 804 -17 840 -17 q 724 -5 760 -17 q 658 26 688 7 q 606 70 629 46 q 565 121 583 94 q 423 20 499 57 q 285 -17 347 -17 q 210 -6 244 -17 q 148 28 175 6 q 106 84 121 50 q 90 165 90 118 q 194 335 90 276 q 514 418 299 393 q 508 494 514 456 q 485 562 503 532 q 437 610 468 592 q 357 629 406 629 q 240 603 294 629 q 151 551 185 576 l 124 597 m 979 372 q 928 566 979 501 q 788 631 878 631 q 709 612 746 631 q 644 559 672 593 q 597 477 615 525 q 572 372 578 429 l 979 372 z "},"ç":{"ha":624,"x_min":72,"x_max":588,"o":"m 72 332 q 97 481 72 415 q 164 592 122 547 q 260 660 206 636 q 376 683 315 683 q 492 658 446 683 q 572 601 539 633 l 536 558 q 465 609 504 589 q 378 629 426 629 q 283 608 326 629 q 206 547 239 586 q 155 453 174 507 q 136 332 136 399 q 153 213 136 267 q 202 119 171 158 q 278 59 233 81 q 378 38 324 38 q 476 60 431 38 q 556 114 521 82 l 588 72 q 492 8 544 33 q 375 -17 439 -17 q 255 7 310 -17 q 159 75 200 31 q 95 184 118 119 q 72 332 72 249 m 357 3 l 406 3 l 365 -75 q 424 -108 399 -86 q 449 -171 449 -129 q 434 -219 449 -199 q 395 -253 419 -239 q 340 -276 371 -267 q 275 -289 308 -285 l 265 -247 q 359 -222 324 -239 q 394 -176 394 -206 q 368 -129 394 -144 q 301 -103 342 -114 l 357 3 z "},"ć":{"ha":624,"x_min":72,"x_max":588,"o":"m 72 332 q 97 481 72 415 q 164 592 122 547 q 260 660 206 636 q 376 683 315 683 q 492 658 446 683 q 572 601 539 633 l 536 558 q 465 609 504 589 q 378 629 426 629 q 283 608 326 629 q 206 547 239 586 q 155 453 174 507 q 136 332 136 399 q 153 213 136 267 q 202 119 171 158 q 278 59 233 81 q 378 38 324 38 q 476 60 431 38 q 556 114 521 82 l 588 72 q 492 8 544 33 q 375 -17 439 -17 q 255 7 310 -17 q 159 75 200 31 q 95 184 118 119 q 72 332 72 249 m 351 794 l 299 794 l 426 983 l 499 983 l 351 794 z "},"ĉ":{"ha":624,"x_min":72,"x_max":588,"o":"m 72 332 q 97 481 72 415 q 164 592 122 547 q 260 660 206 636 q 376 683 315 683 q 492 658 446 683 q 572 601 539 633 l 536 558 q 465 609 504 589 q 378 629 426 629 q 283 608 326 629 q 206 547 239 586 q 155 453 174 507 q 136 332 136 399 q 153 213 136 267 q 202 119 171 158 q 278 59 233 81 q 378 38 324 38 q 476 60 431 38 q 556 114 521 82 l 588 72 q 492 8 544 33 q 375 -17 439 -17 q 255 7 310 -17 q 159 75 200 31 q 95 184 118 119 q 72 332 72 249 m 350 983 l 403 983 l 535 794 l 483 794 l 379 932 l 374 932 l 269 794 l 218 794 l 350 983 z "},"č":{"ha":624,"x_min":72,"x_max":588,"o":"m 72 332 q 97 481 72 415 q 164 592 122 547 q 260 660 206 636 q 376 683 315 683 q 492 658 446 683 q 572 601 539 633 l 536 558 q 465 609 504 589 q 378 629 426 629 q 283 608 326 629 q 206 547 239 586 q 155 453 174 507 q 136 332 136 399 q 153 213 136 267 q 202 119 171 158 q 278 59 233 81 q 378 38 324 38 q 476 60 431 38 q 556 114 521 82 l 588 72 q 492 8 544 33 q 375 -17 439 -17 q 255 7 310 -17 q 159 75 200 31 q 95 184 118 119 q 72 332 72 249 m 218 983 l 269 983 l 374 846 l 379 846 l 483 983 l 535 983 l 403 794 l 350 794 l 218 983 z "},"ċ":{"ha":624,"x_min":72,"x_max":588,"o":"m 72 332 q 97 481 72 415 q 164 592 122 547 q 260 660 206 636 q 376 683 315 683 q 492 658 446 683 q 572 601 539 633 l 536 558 q 465 609 504 589 q 378 629 426 629 q 283 608 326 629 q 206 547 239 586 q 155 453 174 507 q 136 332 136 399 q 153 213 136 267 q 202 119 171 158 q 278 59 233 81 q 378 38 324 38 q 476 60 431 38 q 556 114 521 82 l 588 72 q 492 8 544 33 q 375 -17 439 -17 q 255 7 310 -17 q 159 75 200 31 q 95 184 118 119 q 72 332 72 249 m 376 828 q 338 843 353 828 q 324 885 324 858 q 338 924 324 908 q 376 939 353 939 q 415 924 400 939 q 429 885 429 908 q 415 843 429 858 q 376 828 400 828 z "},"ď":{"ha":763,"x_min":72,"x_max":767,"o":"m 72 332 q 96 478 72 413 q 160 589 119 543 q 255 659 201 635 q 368 683 308 683 q 474 662 429 683 q 569 601 519 640 l 567 724 l 567 999 l 628 999 l 628 0 l 575 0 l 569 86 l 565 86 q 470 15 525 46 q 349 -17 415 -17 q 147 73 222 -17 q 72 332 72 163 m 138 332 q 152 211 138 265 q 194 119 167 157 q 263 59 222 81 q 357 38 304 38 q 463 66 413 38 q 567 147 514 94 l 567 543 q 467 610 514 590 q 372 629 421 629 q 279 606 322 629 q 205 544 236 583 q 156 449 174 504 q 138 332 138 394 m 718 761 l 714 1047 l 767 1047 l 767 978 l 756 761 l 718 761 z "},"ḍ":{"ha":756,"x_min":72,"x_max":628,"o":"m 72 332 q 96 478 72 413 q 160 589 119 543 q 255 659 201 635 q 368 683 308 683 q 474 662 429 683 q 569 601 519 640 l 567 724 l 567 999 l 628 999 l 628 0 l 575 0 l 569 86 l 565 86 q 470 15 525 46 q 349 -17 415 -17 q 147 73 222 -17 q 72 332 72 163 m 138 332 q 152 211 138 265 q 194 119 167 157 q 263 59 222 81 q 357 38 304 38 q 463 66 413 38 q 567 147 514 94 l 567 543 q 467 610 514 590 q 372 629 421 629 q 279 606 322 629 q 205 544 236 583 q 156 449 174 504 q 138 332 138 394 m 411 -269 q 373 -254 388 -269 q 358 -212 358 -239 q 373 -174 358 -189 q 411 -158 388 -158 q 449 -174 435 -158 q 464 -212 464 -189 q 449 -254 464 -239 q 411 -269 435 -269 z "},"ḏ":{"ha":756,"x_min":72,"x_max":628,"o":"m 72 332 q 96 478 72 413 q 160 589 119 543 q 255 659 201 635 q 368 683 308 683 q 474 662 429 683 q 569 601 519 640 l 567 724 l 567 999 l 628 999 l 628 0 l 575 0 l 569 86 l 565 86 q 470 15 525 46 q 349 -17 415 -17 q 147 73 222 -17 q 72 332 72 163 m 138 332 q 152 211 138 265 q 194 119 167 157 q 263 59 222 81 q 357 38 304 38 q 463 66 413 38 q 567 147 514 94 l 567 543 q 467 610 514 590 q 372 629 421 629 q 279 606 322 629 q 205 544 236 583 q 156 449 174 504 q 138 332 138 394 m 567 -222 l 250 -222 l 250 -172 l 567 -172 l 567 -222 z "},"đ":{"ha":756,"x_min":72,"x_max":732,"o":"m 567 515 q 467 582 514 563 q 372 601 421 601 q 279 580 322 601 q 205 520 236 558 q 156 430 174 482 q 138 318 138 378 q 194 115 138 192 q 357 38 250 38 q 463 66 413 38 q 567 147 514 94 l 567 515 m 732 813 l 628 807 l 628 0 l 575 0 l 568 86 l 565 86 q 470 14 525 44 q 349 -17 415 -17 q 147 69 222 -17 q 72 318 72 154 q 96 458 72 396 q 160 565 119 521 q 255 632 201 608 q 368 656 308 656 q 474 634 429 656 q 569 574 519 613 l 567 696 l 567 807 l 331 807 l 331 853 l 567 853 l 567 999 l 628 999 l 628 853 l 732 853 l 732 813 z "},"è":{"ha":671,"x_min":72,"x_max":618,"o":"m 72 332 q 97 479 72 414 q 162 590 121 544 q 255 659 203 635 q 363 683 307 683 q 550 603 482 683 q 618 375 618 522 q 618 350 618 363 q 615 325 618 338 l 135 325 q 154 209 136 263 q 205 117 172 156 q 283 58 238 79 q 386 36 329 36 q 484 52 440 36 q 565 96 528 68 l 590 49 q 502 4 550 25 q 381 -17 454 -17 q 260 7 317 -17 q 163 76 204 31 q 97 185 121 121 q 72 332 72 250 m 560 372 q 507 566 560 501 q 364 631 454 631 q 282 613 321 631 q 212 561 243 594 q 160 480 181 528 q 135 372 140 432 l 560 372 m 240 983 l 313 983 l 440 794 l 388 794 l 240 983 z "},"é":{"ha":671,"x_min":72,"x_max":618,"o":"m 72 332 q 97 479 72 414 q 162 590 121 544 q 255 659 203 635 q 363 683 307 683 q 550 603 482 683 q 618 375 618 522 q 618 350 618 363 q 615 325 618 338 l 135 325 q 154 209 136 263 q 205 117 172 156 q 283 58 238 79 q 386 36 329 36 q 484 52 440 36 q 565 96 528 68 l 590 49 q 502 4 550 25 q 381 -17 454 -17 q 260 7 317 -17 q 163 76 204 31 q 97 185 121 121 q 72 332 72 250 m 560 372 q 507 566 560 501 q 364 631 454 631 q 282 613 321 631 q 212 561 243 594 q 160 480 181 528 q 135 372 140 432 l 560 372 m 338 794 l 285 794 l 413 983 l 485 983 l 338 794 z "},"ê":{"ha":671,"x_min":72,"x_max":618,"o":"m 72 332 q 97 479 72 414 q 162 590 121 544 q 255 659 203 635 q 363 683 307 683 q 550 603 482 683 q 618 375 618 522 q 618 350 618 363 q 615 325 618 338 l 135 325 q 154 209 136 263 q 205 117 172 156 q 283 58 238 79 q 386 36 329 36 q 484 52 440 36 q 565 96 528 68 l 590 49 q 502 4 550 25 q 381 -17 454 -17 q 260 7 317 -17 q 163 76 204 31 q 97 185 121 121 q 72 332 72 250 m 560 372 q 507 566 560 501 q 364 631 454 631 q 282 613 321 631 q 212 561 243 594 q 160 480 181 528 q 135 372 140 432 l 560 372 m 336 983 l 389 983 l 521 794 l 469 794 l 365 932 l 360 932 l 256 794 l 204 794 l 336 983 z "},"ě":{"ha":671,"x_min":72,"x_max":618,"o":"m 72 332 q 97 479 72 414 q 162 590 121 544 q 255 659 203 635 q 363 683 307 683 q 550 603 482 683 q 618 375 618 522 q 618 350 618 363 q 615 325 618 338 l 135 325 q 154 209 136 263 q 205 117 172 156 q 283 58 238 79 q 386 36 329 36 q 484 52 440 36 q 565 96 528 68 l 590 49 q 502 4 550 25 q 381 -17 454 -17 q 260 7 317 -17 q 163 76 204 31 q 97 185 121 121 q 72 332 72 250 m 560 372 q 507 566 560 501 q 364 631 454 631 q 282 613 321 631 q 212 561 243 594 q 160 480 181 528 q 135 372 140 432 l 560 372 m 204 983 l 256 983 l 360 846 l 365 846 l 469 983 l 521 983 l 389 794 l 336 794 l 204 983 z "},"ë":{"ha":671,"x_min":72,"x_max":618,"o":"m 72 332 q 97 479 72 414 q 162 590 121 544 q 255 659 203 635 q 363 683 307 683 q 550 603 482 683 q 618 375 618 522 q 618 350 618 363 q 615 325 618 338 l 135 325 q 154 209 136 263 q 205 117 172 156 q 283 58 238 79 q 386 36 329 36 q 484 52 440 36 q 565 96 528 68 l 590 49 q 502 4 550 25 q 381 -17 454 -17 q 260 7 317 -17 q 163 76 204 31 q 97 185 121 121 q 72 332 72 250 m 560 372 q 507 566 560 501 q 364 631 454 631 q 282 613 321 631 q 212 561 243 594 q 160 480 181 528 q 135 372 140 432 l 560 372 m 253 831 q 217 845 231 831 q 203 882 203 860 q 217 917 203 903 q 253 932 231 932 q 290 917 275 932 q 304 882 304 903 q 290 845 304 860 q 253 831 275 831 m 472 831 q 435 845 450 831 q 421 882 421 860 q 435 917 421 903 q 472 932 450 932 q 508 917 494 932 q 522 882 522 903 q 508 845 522 860 q 472 831 494 831 z "},"ē":{"ha":671,"x_min":72,"x_max":618,"o":"m 72 332 q 97 479 72 414 q 162 590 121 544 q 255 659 203 635 q 363 683 307 683 q 550 603 482 683 q 618 375 618 522 q 618 350 618 363 q 615 325 618 338 l 135 325 q 154 209 136 263 q 205 117 172 156 q 283 58 238 79 q 386 36 329 36 q 484 52 440 36 q 565 96 528 68 l 590 49 q 502 4 550 25 q 381 -17 454 -17 q 260 7 317 -17 q 163 76 204 31 q 97 185 121 121 q 72 332 72 250 m 560 372 q 507 566 560 501 q 364 631 454 631 q 282 613 321 631 q 212 561 243 594 q 160 480 181 528 q 135 372 140 432 l 560 372 m 206 892 l 519 892 l 519 842 l 206 842 l 206 892 z "},"ĕ":{"ha":671,"x_min":72,"x_max":618,"o":"m 72 332 q 97 479 72 414 q 162 590 121 544 q 255 659 203 635 q 363 683 307 683 q 550 603 482 683 q 618 375 618 522 q 618 350 618 363 q 615 325 618 338 l 135 325 q 154 209 136 263 q 205 117 172 156 q 283 58 238 79 q 386 36 329 36 q 484 52 440 36 q 565 96 528 68 l 590 49 q 502 4 550 25 q 381 -17 454 -17 q 260 7 317 -17 q 163 76 204 31 q 97 185 121 121 q 72 332 72 250 m 560 372 q 507 566 560 501 q 364 631 454 631 q 282 613 321 631 q 212 561 243 594 q 160 480 181 528 q 135 372 140 432 l 560 372 m 363 800 q 290 816 319 800 q 240 856 260 832 q 210 910 221 881 q 197 965 200 939 l 243 965 q 255 922 246 943 q 278 883 264 900 q 314 855 293 865 q 363 844 335 844 q 411 855 390 844 q 447 883 432 865 q 470 922 461 900 q 482 965 479 943 l 528 965 q 515 910 525 939 q 485 856 504 881 q 435 816 465 832 q 363 800 406 800 z "},"ė":{"ha":671,"x_min":72,"x_max":618,"o":"m 72 332 q 97 479 72 414 q 162 590 121 544 q 255 659 203 635 q 363 683 307 683 q 550 603 482 683 q 618 375 618 522 q 618 350 618 363 q 615 325 618 338 l 135 325 q 154 209 136 263 q 205 117 172 156 q 283 58 238 79 q 386 36 329 36 q 484 52 440 36 q 565 96 528 68 l 590 49 q 502 4 550 25 q 381 -17 454 -17 q 260 7 317 -17 q 163 76 204 31 q 97 185 121 121 q 72 332 72 250 m 560 372 q 507 566 560 501 q 364 631 454 631 q 282 613 321 631 q 212 561 243 594 q 160 480 181 528 q 135 372 140 432 l 560 372 m 363 828 q 324 843 339 828 q 310 885 310 858 q 324 924 310 908 q 363 939 339 939 q 401 924 386 939 q 415 885 415 908 q 401 843 415 858 q 363 828 386 828 z "},"ẹ":{"ha":671,"x_min":72,"x_max":618,"o":"m 72 332 q 97 479 72 414 q 162 590 121 544 q 255 659 203 635 q 363 683 307 683 q 550 603 482 683 q 618 375 618 522 q 618 350 618 363 q 615 325 618 338 l 135 325 q 154 209 136 263 q 205 117 172 156 q 283 58 238 79 q 386 36 329 36 q 484 52 440 36 q 565 96 528 68 l 590 49 q 502 4 550 25 q 381 -17 454 -17 q 260 7 317 -17 q 163 76 204 31 q 97 185 121 121 q 72 332 72 250 m 560 372 q 507 566 560 501 q 364 631 454 631 q 282 613 321 631 q 212 561 243 594 q 160 480 181 528 q 135 372 140 432 l 560 372 m 358 -269 q 320 -254 335 -269 q 306 -212 306 -239 q 320 -174 306 -189 q 358 -158 335 -158 q 397 -174 382 -158 q 411 -212 411 -189 q 397 -254 411 -239 q 358 -269 382 -269 z "},"ẻ":{"ha":671,"x_min":72,"x_max":618,"o":"m 72 332 q 97 479 72 414 q 162 590 121 544 q 255 659 203 635 q 363 683 307 683 q 550 603 482 683 q 618 375 618 522 q 618 350 618 363 q 615 325 618 338 l 135 325 q 154 209 136 263 q 205 117 172 156 q 283 58 238 79 q 386 36 329 36 q 484 52 440 36 q 565 96 528 68 l 590 49 q 502 4 550 25 q 381 -17 454 -17 q 260 7 317 -17 q 163 76 204 31 q 97 185 121 121 q 72 332 72 250 m 560 372 q 507 566 560 501 q 364 631 454 631 q 282 613 321 631 q 212 561 243 594 q 160 480 181 528 q 135 372 140 432 l 560 372 m 318 801 q 381 830 356 813 q 406 878 406 847 q 288 944 406 940 l 293 989 q 358 981 328 988 q 412 961 389 974 q 448 930 435 949 q 461 885 461 911 q 450 838 461 857 q 420 804 439 818 q 378 781 401 790 q 329 765 354 772 l 318 801 z "},"ẽ":{"ha":671,"x_min":72,"x_max":618,"o":"m 72 332 q 97 479 72 414 q 162 590 121 544 q 255 659 203 635 q 363 683 307 683 q 550 603 482 683 q 618 375 618 522 q 618 350 618 363 q 615 325 618 338 l 135 325 q 154 209 136 263 q 205 117 172 156 q 283 58 238 79 q 386 36 329 36 q 484 52 440 36 q 565 96 528 68 l 590 49 q 502 4 550 25 q 381 -17 454 -17 q 260 7 317 -17 q 163 76 204 31 q 97 185 121 121 q 72 332 72 250 m 560 372 q 507 566 560 501 q 364 631 454 631 q 282 613 321 631 q 212 561 243 594 q 160 480 181 528 q 135 372 140 432 l 560 372 m 190 807 q 197 851 192 829 q 215 891 203 874 q 244 919 226 908 q 286 931 261 931 q 332 919 311 931 q 371 892 353 907 q 406 866 389 878 q 440 854 422 854 q 475 874 463 854 q 493 931 488 894 l 535 931 q 528 886 533 908 q 510 847 522 864 q 481 818 499 829 q 439 807 464 807 q 393 819 414 807 q 355 845 372 831 q 320 872 338 860 q 285 883 303 883 q 232 807 243 883 l 190 807 l 190 807 z "},"ế":{"ha":671,"x_min":72,"x_max":642,"o":"m 72 332 q 97 479 72 414 q 162 590 121 544 q 255 659 203 635 q 363 683 307 683 q 550 603 482 683 q 618 375 618 522 q 618 350 618 363 q 615 325 618 338 l 135 325 q 154 209 136 263 q 205 117 172 156 q 283 58 238 79 q 386 36 329 36 q 484 52 440 36 q 565 96 528 68 l 590 49 q 502 4 550 25 q 381 -17 454 -17 q 260 7 317 -17 q 163 76 204 31 q 97 185 121 121 q 72 332 72 250 m 560 372 q 507 566 560 501 q 364 631 454 631 q 282 613 321 631 q 212 561 243 594 q 160 480 181 528 q 135 372 140 432 l 560 372 m 336 953 l 389 953 l 506 794 l 456 794 l 365 903 l 360 903 l 269 794 l 219 794 l 336 953 m 578 1039 l 642 1039 l 517 885 l 471 885 l 578 1039 z "},"ề":{"ha":671,"x_min":72,"x_max":618,"o":"m 72 332 q 97 479 72 414 q 162 590 121 544 q 255 659 203 635 q 363 683 307 683 q 550 603 482 683 q 618 375 618 522 q 618 350 618 363 q 615 325 618 338 l 135 325 q 154 209 136 263 q 205 117 172 156 q 283 58 238 79 q 386 36 329 36 q 484 52 440 36 q 565 96 528 68 l 590 49 q 502 4 550 25 q 381 -17 454 -17 q 260 7 317 -17 q 163 76 204 31 q 97 185 121 121 q 72 332 72 250 m 560 372 q 507 566 560 501 q 364 631 454 631 q 282 613 321 631 q 212 561 243 594 q 160 480 181 528 q 135 372 140 432 l 560 372 m 336 953 l 389 953 l 506 794 l 456 794 l 365 903 l 360 903 l 269 794 l 219 794 l 336 953 m 603 885 l 557 885 l 431 1039 l 496 1039 l 603 885 z "},"ể":{"ha":671,"x_min":72,"x_max":618,"o":"m 72 332 q 97 479 72 414 q 162 590 121 544 q 255 659 203 635 q 363 683 307 683 q 550 603 482 683 q 618 375 618 522 q 618 350 618 363 q 615 325 618 338 l 135 325 q 154 209 136 263 q 205 117 172 156 q 283 58 238 79 q 386 36 329 36 q 484 52 440 36 q 565 96 528 68 l 590 49 q 502 4 550 25 q 381 -17 454 -17 q 260 7 317 -17 q 163 76 204 31 q 97 185 121 121 q 72 332 72 250 m 560 372 q 507 566 560 501 q 364 631 454 631 q 282 613 321 631 q 212 561 243 594 q 160 480 181 528 q 135 372 140 432 l 560 372 m 336 953 l 389 953 l 506 794 l 456 794 l 365 903 l 360 903 l 269 794 l 219 794 l 336 953 m 494 907 q 543 933 524 918 q 563 971 563 947 q 464 1035 563 1031 l 468 1075 q 573 1050 531 1072 q 615 978 615 1028 q 606 937 615 954 q 580 907 596 919 q 544 886 564 894 q 506 872 525 878 l 494 907 z "},"ễ":{"ha":671,"x_min":72,"x_max":618,"o":"m 72 332 q 97 479 72 414 q 162 590 121 544 q 255 659 203 635 q 363 683 307 683 q 550 603 482 683 q 618 375 618 522 q 618 350 618 363 q 615 325 618 338 l 135 325 q 154 209 136 263 q 205 117 172 156 q 283 58 238 79 q 386 36 329 36 q 484 52 440 36 q 565 96 528 68 l 590 49 q 502 4 550 25 q 381 -17 454 -17 q 260 7 317 -17 q 163 76 204 31 q 97 185 121 121 q 72 332 72 250 m 560 372 q 507 566 560 501 q 364 631 454 631 q 282 613 321 631 q 212 561 243 594 q 160 480 181 528 q 135 372 140 432 l 560 372 m 335 931 l 390 931 l 517 792 l 467 792 l 365 888 l 360 888 l 258 792 l 208 792 l 335 931 m 194 981 q 202 1019 196 1000 q 220 1054 208 1039 q 250 1078 232 1069 q 292 1088 268 1088 q 335 1078 317 1088 q 369 1056 354 1068 q 400 1035 385 1044 q 433 1025 415 1025 q 492 1088 481 1025 l 531 1088 q 523 1049 529 1068 q 505 1014 517 1029 q 475 990 493 999 q 433 981 457 981 q 390 990 408 981 q 355 1012 371 1000 q 324 1033 339 1024 q 292 1043 310 1043 q 233 981 243 1043 l 194 981 z "},"ệ":{"ha":671,"x_min":72,"x_max":618,"o":"m 72 332 q 97 479 72 414 q 162 590 121 544 q 255 659 203 635 q 363 683 307 683 q 550 603 482 683 q 618 375 618 522 q 618 350 618 363 q 615 325 618 338 l 135 325 q 154 209 136 263 q 205 117 172 156 q 283 58 238 79 q 386 36 329 36 q 484 52 440 36 q 565 96 528 68 l 590 49 q 502 4 550 25 q 381 -17 454 -17 q 260 7 317 -17 q 163 76 204 31 q 97 185 121 121 q 72 332 72 250 m 560 372 q 507 566 560 501 q 364 631 454 631 q 282 613 321 631 q 212 561 243 594 q 160 480 181 528 q 135 372 140 432 l 560 372 m 336 983 l 389 983 l 521 794 l 469 794 l 365 932 l 360 932 l 256 794 l 204 794 l 336 983 m 357 -269 q 319 -254 333 -269 q 304 -212 304 -239 q 319 -174 304 -189 q 357 -158 333 -158 q 395 -174 381 -158 q 410 -212 410 -189 q 395 -254 410 -239 q 357 -269 381 -269 z "},"ę":{"ha":671,"x_min":72,"x_max":618,"o":"m 72 332 q 97 479 72 414 q 162 590 121 544 q 255 659 203 635 q 363 683 307 683 q 550 603 482 683 q 618 375 618 522 q 618 349 618 360 q 615 325 618 338 l 135 325 q 154 209 136 263 q 205 117 172 156 q 283 58 238 79 q 386 36 329 36 q 484 52 440 36 q 565 96 528 68 l 590 49 q 515 -12 546 15 q 467 -66 485 -40 q 441 -115 449 -92 q 433 -161 433 -139 q 453 -215 433 -197 q 501 -233 474 -233 q 561 -214 536 -233 l 583 -250 q 542 -273 568 -264 q 493 -282 515 -282 q 413 -254 444 -282 q 381 -169 381 -226 q 389 -119 381 -143 q 410 -73 397 -94 q 438 -34 422 -51 q 468 -4 453 -17 q 425 -14 446 -11 q 381 -17 404 -17 q 260 7 317 -17 q 163 76 204 31 q 97 185 121 121 q 72 332 72 250 m 560 372 q 508 566 560 501 q 364 631 456 631 q 282 613 321 631 q 212 561 243 594 q 160 480 181 528 q 135 372 140 432 l 560 372 z "},"ĝ":{"ha":676,"x_min":72,"x_max":661,"o":"m 131 -131 q 188 -232 131 -193 q 353 -271 246 -271 q 454 -256 408 -271 q 532 -218 500 -242 q 581 -165 564 -194 q 599 -103 599 -135 q 559 -24 599 -47 q 444 -1 519 -1 l 301 -1 q 267 1 290 -1 q 218 10 244 3 q 151 -58 172 -22 q 131 -131 131 -94 m 72 -136 q 99 -50 72 -92 q 171 25 125 -8 l 171 31 q 129 72 146 46 q 113 138 113 99 q 138 213 113 182 q 185 260 163 244 l 185 265 q 127 340 153 293 q 101 449 101 388 q 119 543 101 500 q 169 617 138 586 q 244 666 201 649 q 336 683 288 683 q 386 678 364 683 q 424 667 408 674 l 650 667 l 650 615 l 494 615 q 547 544 526 588 q 568 447 568 500 q 550 353 568 396 q 501 278 532 310 q 427 230 469 247 q 336 213 385 213 q 278 219 308 213 q 225 240 249 226 q 187 200 203 222 q 171 144 171 178 q 197 83 171 108 q 299 57 224 57 l 442 57 q 608 20 554 57 q 661 -96 661 -17 q 639 -180 661 -139 q 576 -252 617 -221 q 476 -302 535 -283 q 346 -321 418 -321 q 146 -271 219 -321 q 72 -136 72 -221 m 336 261 q 402 274 371 261 q 457 313 433 288 q 494 372 481 338 q 508 449 508 407 q 494 525 508 490 q 458 583 481 560 q 403 620 435 607 q 336 633 371 633 q 269 620 300 633 q 214 583 238 607 q 176 526 190 560 q 163 449 163 492 q 176 372 163 407 q 215 313 190 338 q 270 274 239 288 q 336 261 301 261 m 296 983 l 349 983 l 481 794 l 429 794 l 325 932 l 319 932 l 215 794 l 164 794 l 296 983 z "},"ğ":{"ha":676,"x_min":72,"x_max":661,"o":"m 131 -131 q 188 -232 131 -193 q 353 -271 246 -271 q 454 -256 408 -271 q 532 -218 500 -242 q 581 -165 564 -194 q 599 -103 599 -135 q 559 -24 599 -47 q 444 -1 519 -1 l 301 -1 q 267 1 290 -1 q 218 10 244 3 q 151 -58 172 -22 q 131 -131 131 -94 m 72 -136 q 99 -50 72 -92 q 171 25 125 -8 l 171 31 q 129 72 146 46 q 113 138 113 99 q 138 213 113 182 q 185 260 163 244 l 185 265 q 127 340 153 293 q 101 449 101 388 q 119 543 101 500 q 169 617 138 586 q 244 666 201 649 q 336 683 288 683 q 386 678 364 683 q 424 667 408 674 l 650 667 l 650 615 l 494 615 q 547 544 526 588 q 568 447 568 500 q 550 353 568 396 q 501 278 532 310 q 427 230 469 247 q 336 213 385 213 q 278 219 308 213 q 225 240 249 226 q 187 200 203 222 q 171 144 171 178 q 197 83 171 108 q 299 57 224 57 l 442 57 q 608 20 554 57 q 661 -96 661 -17 q 639 -180 661 -139 q 576 -252 617 -221 q 476 -302 535 -283 q 346 -321 418 -321 q 146 -271 219 -321 q 72 -136 72 -221 m 336 261 q 402 274 371 261 q 457 313 433 288 q 494 372 481 338 q 508 449 508 407 q 494 525 508 490 q 458 583 481 560 q 403 620 435 607 q 336 633 371 633 q 269 620 300 633 q 214 583 238 607 q 176 526 190 560 q 163 449 163 492 q 176 372 163 407 q 215 313 190 338 q 270 274 239 288 q 336 261 301 261 m 322 800 q 249 816 279 800 q 200 856 219 832 q 170 910 181 881 q 157 965 160 939 l 203 965 q 215 922 206 943 q 238 883 224 900 q 274 855 253 865 q 322 844 294 844 q 371 855 350 844 q 406 883 392 865 q 430 922 421 900 q 442 965 439 943 l 488 965 q 474 910 485 939 q 444 856 464 881 q 395 816 425 832 q 322 800 365 800 z "},"ġ":{"ha":676,"x_min":72,"x_max":661,"o":"m 131 -131 q 188 -232 131 -193 q 353 -271 246 -271 q 454 -256 408 -271 q 532 -218 500 -242 q 581 -165 564 -194 q 599 -103 599 -135 q 559 -24 599 -47 q 444 -1 519 -1 l 301 -1 q 267 1 290 -1 q 218 10 244 3 q 151 -58 172 -22 q 131 -131 131 -94 m 72 -136 q 99 -50 72 -92 q 171 25 125 -8 l 171 31 q 129 72 146 46 q 113 138 113 99 q 138 213 113 182 q 185 260 163 244 l 185 265 q 127 340 153 293 q 101 449 101 388 q 119 543 101 500 q 169 617 138 586 q 244 666 201 649 q 336 683 288 683 q 386 678 364 683 q 424 667 408 674 l 650 667 l 650 615 l 494 615 q 547 544 526 588 q 568 447 568 500 q 550 353 568 396 q 501 278 532 310 q 427 230 469 247 q 336 213 385 213 q 278 219 308 213 q 225 240 249 226 q 187 200 203 222 q 171 144 171 178 q 197 83 171 108 q 299 57 224 57 l 442 57 q 608 20 554 57 q 661 -96 661 -17 q 639 -180 661 -139 q 576 -252 617 -221 q 476 -302 535 -283 q 346 -321 418 -321 q 146 -271 219 -321 q 72 -136 72 -221 m 336 261 q 402 274 371 261 q 457 313 433 288 q 494 372 481 338 q 508 449 508 407 q 494 525 508 490 q 458 583 481 560 q 403 620 435 607 q 336 633 371 633 q 269 620 300 633 q 214 583 238 607 q 176 526 190 560 q 163 449 163 492 q 176 372 163 407 q 215 313 190 338 q 270 274 239 288 q 336 261 301 261 m 322 828 q 284 843 299 828 q 269 885 269 858 q 284 924 269 908 q 322 939 299 939 q 360 924 346 939 q 375 885 375 908 q 360 843 375 858 q 322 828 346 828 z "},"ģ":{"ha":676,"x_min":72,"x_max":661,"o":"m 131 -131 q 188 -232 131 -193 q 353 -271 246 -271 q 454 -256 408 -271 q 532 -218 500 -242 q 581 -165 564 -194 q 599 -103 599 -135 q 559 -24 599 -47 q 444 -1 519 -1 l 301 -1 q 267 1 290 -1 q 218 10 244 3 q 151 -58 172 -22 q 131 -131 131 -94 m 72 -136 q 99 -50 72 -92 q 171 25 125 -8 l 171 31 q 129 72 146 46 q 113 138 113 99 q 138 213 113 182 q 185 260 163 244 l 185 265 q 127 340 153 293 q 101 449 101 388 q 119 543 101 500 q 169 617 138 586 q 244 666 201 649 q 336 683 288 683 q 386 678 364 683 q 424 667 408 674 l 650 667 l 650 615 l 494 615 q 547 544 526 588 q 568 447 568 500 q 550 353 568 396 q 501 278 532 310 q 427 230 469 247 q 336 213 385 213 q 278 219 308 213 q 225 240 249 226 q 187 200 203 222 q 171 144 171 178 q 197 83 171 108 q 299 57 224 57 l 442 57 q 608 20 554 57 q 661 -96 661 -17 q 639 -180 661 -139 q 576 -252 617 -221 q 476 -302 535 -283 q 346 -321 418 -321 q 146 -271 219 -321 q 72 -136 72 -221 m 336 261 q 402 274 371 261 q 457 313 433 288 q 494 372 481 338 q 508 449 508 407 q 494 525 508 490 q 458 583 481 560 q 403 620 435 607 q 336 633 371 633 q 269 620 300 633 q 214 583 238 607 q 176 526 190 560 q 163 449 163 492 q 176 372 163 407 q 215 313 190 338 q 270 274 239 288 q 336 261 301 261 m 356 749 q 268 783 297 760 q 239 850 239 807 q 253 897 239 876 q 292 932 268 918 q 349 955 317 946 q 414 968 381 964 l 422 926 q 329 901 364 918 q 294 857 294 885 q 319 810 294 825 q 372 789 343 796 l 356 749 l 356 749 z "},"ǧ":{"ha":676,"x_min":72,"x_max":661,"o":"m 131 -131 q 188 -232 131 -193 q 353 -271 246 -271 q 454 -256 408 -271 q 532 -218 500 -242 q 581 -165 564 -194 q 599 -103 599 -135 q 559 -24 599 -47 q 444 -1 519 -1 l 301 -1 q 267 1 290 -1 q 218 10 244 3 q 151 -58 172 -22 q 131 -131 131 -94 m 72 -136 q 99 -50 72 -92 q 171 25 125 -8 l 171 31 q 129 72 146 46 q 113 138 113 99 q 138 213 113 182 q 185 260 163 244 l 185 265 q 127 340 153 293 q 101 449 101 388 q 119 543 101 500 q 169 617 138 586 q 244 666 201 649 q 336 683 288 683 q 386 678 364 683 q 424 667 408 674 l 650 667 l 650 615 l 494 615 q 547 544 526 588 q 568 447 568 500 q 550 353 568 396 q 501 278 532 310 q 427 230 469 247 q 336 213 385 213 q 278 219 308 213 q 225 240 249 226 q 187 200 203 222 q 171 144 171 178 q 197 83 171 108 q 299 57 224 57 l 442 57 q 608 20 554 57 q 661 -96 661 -17 q 639 -180 661 -139 q 576 -252 617 -221 q 476 -302 535 -283 q 346 -321 418 -321 q 146 -271 219 -321 q 72 -136 72 -221 m 336 261 q 402 274 371 261 q 457 313 433 288 q 494 372 481 338 q 508 449 508 407 q 494 525 508 490 q 458 583 481 560 q 403 620 435 607 q 336 633 371 633 q 269 620 300 633 q 214 583 238 607 q 176 526 190 560 q 163 449 163 492 q 176 372 163 407 q 215 313 190 338 q 270 274 239 288 q 336 261 301 261 m 164 983 l 215 983 l 319 846 l 325 846 l 429 983 l 481 983 l 349 794 l 296 794 l 164 983 z "},"ḡ":{"ha":676,"x_min":72,"x_max":661,"o":"m 131 -131 q 188 -232 131 -193 q 353 -271 246 -271 q 454 -256 408 -271 q 532 -218 500 -242 q 581 -165 564 -194 q 599 -103 599 -135 q 559 -24 599 -47 q 444 -1 519 -1 l 301 -1 q 267 1 290 -1 q 218 10 244 3 q 151 -58 172 -22 q 131 -131 131 -94 m 72 -136 q 99 -50 72 -92 q 171 25 125 -8 l 171 31 q 129 72 146 46 q 113 138 113 99 q 138 213 113 182 q 185 260 163 244 l 185 265 q 127 340 153 293 q 101 449 101 388 q 119 543 101 500 q 169 617 138 586 q 244 666 201 649 q 336 683 288 683 q 386 678 364 683 q 424 667 408 674 l 650 667 l 650 615 l 494 615 q 547 544 526 588 q 568 447 568 500 q 550 353 568 396 q 501 278 532 310 q 427 230 469 247 q 336 213 385 213 q 278 219 308 213 q 225 240 249 226 q 187 200 203 222 q 171 144 171 178 q 197 83 171 108 q 299 57 224 57 l 442 57 q 608 20 554 57 q 661 -96 661 -17 q 639 -180 661 -139 q 576 -252 617 -221 q 476 -302 535 -283 q 346 -321 418 -321 q 146 -271 219 -321 q 72 -136 72 -221 m 336 261 q 402 274 371 261 q 457 313 433 288 q 494 372 481 338 q 508 449 508 407 q 494 525 508 490 q 458 583 481 560 q 403 620 435 607 q 336 633 371 633 q 269 620 300 633 q 214 583 238 607 q 176 526 190 560 q 163 449 163 492 q 176 372 163 407 q 215 313 190 338 q 270 274 239 288 q 336 261 301 261 m 165 892 l 479 892 l 479 842 l 165 842 l 165 892 z "},"ĥ":{"ha":733,"x_min":-1,"x_max":621,"o":"m 128 999 l 189 999 l 189 710 l 189 563 q 296 649 242 615 q 419 683 350 683 q 572 621 524 683 q 621 428 621 558 l 621 0 l 560 0 l 560 419 q 524 577 560 526 q 407 628 489 628 q 299 597 347 628 q 189 503 250 565 l 189 0 l 128 0 l 128 999 m -1 1039 l 132 1186 l 190 1186 l 324 1039 l 268 1039 l 164 1139 l 158 1139 l 54 1039 l -1 1039 z "},"ḥ":{"ha":733,"x_min":128,"x_max":621,"o":"m 128 999 l 189 999 l 189 710 l 189 563 q 296 649 242 615 q 419 683 350 683 q 572 621 524 683 q 621 428 621 558 l 621 0 l 560 0 l 560 419 q 524 577 560 526 q 407 628 489 628 q 299 597 347 628 q 189 503 250 565 l 189 0 l 128 0 l 128 999 m 392 -269 q 353 -254 368 -269 q 339 -212 339 -239 q 353 -174 339 -189 q 392 -158 368 -158 q 430 -174 415 -158 q 444 -212 444 -189 q 430 -254 444 -239 q 392 -269 415 -269 z "},"ḫ":{"ha":733,"x_min":128,"x_max":621,"o":"m 128 999 l 189 999 l 189 710 l 189 563 q 296 649 242 615 q 419 683 350 683 q 572 621 524 683 q 621 428 621 558 l 621 0 l 560 0 l 560 419 q 524 577 560 526 q 407 628 489 628 q 299 597 347 628 q 189 503 250 565 l 189 0 l 128 0 l 128 999 m 390 -282 q 317 -266 347 -282 q 268 -226 288 -250 q 238 -172 249 -201 q 225 -117 228 -143 l 271 -117 q 283 -160 274 -139 q 306 -199 292 -182 q 342 -226 321 -215 q 390 -236 363 -236 q 439 -226 418 -236 q 474 -199 460 -215 q 498 -160 489 -182 q 510 -117 507 -139 l 556 -117 q 542 -172 553 -143 q 513 -226 532 -201 q 463 -266 493 -250 q 390 -282 433 -282 z "},"ħ":{"ha":733,"x_min":21,"x_max":621,"o":"m 189 535 q 296 622 242 588 q 419 656 350 656 q 572 593 524 656 q 621 400 621 531 l 621 0 l 560 0 l 560 392 q 524 549 560 499 q 407 600 489 600 q 299 569 347 600 q 189 475 250 538 l 189 0 l 128 0 l 128 807 l 21 807 l 21 847 l 128 853 l 128 999 l 189 999 l 189 853 l 453 853 l 453 807 l 189 807 l 189 682 l 189 535 z "},"ì":{"ha":318,"x_min":36,"x_max":236,"o":"m 128 667 l 189 667 l 189 0 l 128 0 l 128 667 m 36 983 l 108 983 l 236 794 l 183 794 l 36 983 z "},"í":{"ha":318,"x_min":81,"x_max":281,"o":"m 128 667 l 189 667 l 189 0 l 128 0 l 128 667 m 133 794 l 81 794 l 208 983 l 281 983 l 133 794 z "},"î":{"ha":318,"x_min":0,"x_max":317,"o":"m 128 667 l 189 667 l 189 0 l 128 0 l 128 667 m 132 983 l 185 983 l 317 794 l 265 794 l 161 932 l 156 932 l 51 794 l 0 794 l 132 983 z "},"ĩ":{"ha":318,"x_min":-14,"x_max":331,"o":"m 128 667 l 189 667 l 189 0 l 128 0 l 128 667 m -14 807 q -7 851 -12 829 q 10 891 -1 874 q 40 919 22 908 q 82 931 57 931 q 128 919 107 931 q 167 892 149 907 q 201 866 185 878 q 236 854 218 854 q 271 874 258 854 q 289 931 283 894 l 331 931 q 324 886 329 908 q 306 847 318 864 q 277 818 294 829 q 235 807 260 807 q 189 819 210 807 q 151 845 168 831 q 116 872 133 860 q 81 883 99 883 q 28 807 39 883 l -14 807 l -14 807 z "},"ï":{"ha":318,"x_min":-1,"x_max":318,"o":"m 128 667 l 189 667 l 189 0 l 128 0 l 128 667 m 49 831 q 13 845 26 831 q -1 882 -1 860 q 13 917 -1 903 q 49 932 26 932 q 85 917 71 932 q 100 882 100 903 q 85 845 100 860 q 49 831 71 831 m 268 831 q 231 845 246 831 q 217 882 217 860 q 231 917 217 903 q 268 932 246 932 q 304 917 290 932 q 318 882 318 903 q 304 845 318 860 q 268 831 290 831 z "},"ī":{"ha":318,"x_min":1,"x_max":315,"o":"m 128 667 l 189 667 l 189 0 l 128 0 l 128 667 m 1 892 l 315 892 l 315 842 l 1 842 l 1 892 z "},"ǐ":{"ha":318,"x_min":0,"x_max":317,"o":"m 128 667 l 189 667 l 189 0 l 128 0 l 128 667 m 0 983 l 51 983 l 156 846 l 161 846 l 265 983 l 317 983 l 185 794 l 132 794 l 0 983 z "},"ỉ":{"ha":318,"x_min":83,"x_max":257,"o":"m 128 667 l 189 667 l 189 0 l 128 0 l 128 667 m 114 801 q 176 830 151 813 q 201 878 201 847 q 83 944 201 940 l 89 989 q 154 981 124 988 q 208 961 185 974 q 244 930 231 949 q 257 885 257 911 q 246 838 257 857 q 216 804 235 818 q 174 781 197 790 q 125 765 150 772 l 114 801 z "},"ị":{"ha":318,"x_min":104,"x_max":215,"o":"m 160 828 q 120 843 136 828 q 104 882 104 858 q 120 923 104 908 q 160 938 136 938 q 199 923 183 938 q 215 882 215 908 q 199 843 215 858 q 160 828 183 828 m 128 667 l 189 667 l 189 0 l 128 0 l 128 667 m 160 -269 q 122 -254 136 -269 q 107 -212 107 -239 q 122 -174 107 -189 q 160 -158 136 -158 q 198 -174 183 -158 q 213 -212 213 -189 q 198 -254 213 -239 q 160 -269 183 -269 z "},"į":{"ha":318,"x_min":51,"x_max":254,"o":"m 128 667 l 189 667 l 189 0 q 130 -76 156 -36 q 104 -161 104 -117 q 125 -215 104 -197 q 172 -233 146 -233 q 232 -214 204 -233 l 254 -250 q 213 -273 239 -264 q 164 -282 186 -282 q 83 -254 115 -282 q 51 -169 51 -226 q 79 -75 51 -117 q 138 0 107 -33 l 128 0 l 128 667 m 157 828 q 118 843 135 828 q 101 882 101 858 q 118 923 101 908 q 157 938 135 938 q 197 923 181 938 q 214 882 214 908 q 197 843 214 858 q 157 828 181 828 z "},"ı":{"ha":318,"x_min":128,"x_max":189,"o":"m 128 667 l 189 667 l 189 0 l 128 0 l 128 667 z "},"ĵ":{"ha":318,"x_min":-46,"x_max":317,"o":"m 128 667 l 190 667 l 190 -124 q 154 -270 190 -222 q 40 -318 118 -318 q -7 -313 17 -318 q -46 -301 -31 -308 l -31 -251 q 1 -260 -18 -256 q 39 -265 19 -265 q 111 -224 94 -265 q 128 -119 128 -183 l 128 667 m 132 983 l 185 983 l 317 794 l 265 794 l 161 932 l 156 932 l 51 794 l 0 794 l 132 983 z "},"ķ":{"ha":644,"x_min":128,"x_max":628,"o":"m 128 999 l 189 999 l 189 263 l 192 263 l 521 667 l 592 667 l 375 403 l 628 0 l 560 0 l 339 357 l 189 182 l 189 0 l 128 0 l 128 999 m 322 -71 q 408 -106 379 -82 q 438 -172 438 -129 q 423 -220 438 -200 q 384 -254 408 -240 q 328 -277 360 -268 q 264 -290 297 -286 l 254 -249 q 348 -224 313 -240 q 383 -179 383 -207 q 359 -133 383 -147 q 304 -111 335 -118 l 322 -71 l 322 -71 z "},"ĸ":{"ha":644,"x_min":128,"x_max":628,"o":"m 128 667 l 189 667 l 189 263 l 193 263 l 521 667 l 592 667 l 375 403 l 628 0 l 560 0 l 339 357 l 189 181 l 189 0 l 128 0 l 128 667 z "},"ĺ":{"ha":329,"x_min":96,"x_max":304,"o":"m 128 999 l 189 999 l 189 81 q 197 48 189 58 q 218 38 206 38 q 227 38 222 38 q 243 40 232 38 l 254 -10 q 235 -15 244 -12 q 210 -17 225 -17 q 128 89 128 -17 l 128 999 m 151 1056 l 96 1056 l 224 1203 l 304 1203 l 151 1056 z "},"ľ":{"ha":325,"x_min":128,"x_max":329,"o":"m 128 999 l 189 999 l 189 81 q 197 48 189 58 q 218 38 206 38 q 227 38 222 38 q 243 40 232 38 l 254 -10 q 235 -15 244 -12 q 210 -17 225 -17 q 128 89 128 -17 l 128 999 m 281 761 l 276 1047 l 329 1047 l 329 978 l 318 761 l 281 761 z "},"ŀ":{"ha":428,"x_min":128,"x_max":431,"o":"m 128 999 l 189 999 l 189 81 q 197 48 189 58 q 218 38 206 38 q 227 38 222 38 q 243 40 232 38 l 254 -10 q 235 -15 244 -12 q 210 -17 225 -17 q 128 89 128 -17 l 128 999 m 313 449 q 331 496 313 479 q 372 513 349 513 q 413 496 396 513 q 431 449 431 479 q 413 403 431 419 q 372 386 396 386 q 331 403 349 386 q 313 449 313 419 z "},"ļ":{"ha":329,"x_min":117,"x_max":300,"o":"m 128 999 l 189 999 l 189 81 q 197 48 189 58 q 218 38 206 38 q 227 38 222 38 q 243 40 232 38 l 254 -10 q 235 -15 244 -12 q 210 -17 225 -17 q 128 89 128 -17 l 128 999 m 185 -71 q 271 -106 242 -82 q 300 -172 300 -129 q 285 -220 300 -200 q 247 -254 271 -240 q 191 -277 222 -268 q 126 -290 160 -286 l 117 -249 q 210 -224 175 -240 q 246 -179 246 -207 q 222 -133 246 -147 q 167 -111 197 -118 l 185 -71 l 185 -71 z "},"ḷ":{"ha":329,"x_min":128,"x_max":272,"o":"m 128 999 l 189 999 l 189 81 q 197 48 189 58 q 218 38 206 38 q 227 38 222 38 q 243 40 232 38 l 254 -10 q 235 -15 244 -12 q 210 -17 225 -17 q 128 89 128 -17 l 128 999 m 219 -269 q 181 -254 196 -269 q 167 -212 167 -239 q 181 -174 167 -189 q 219 -158 196 -158 q 258 -174 243 -158 q 272 -212 272 -189 q 258 -254 272 -239 q 219 -269 243 -269 z "},"ḹ":{"ha":329,"x_min":0,"x_max":314,"o":"m 128 999 l 189 999 l 189 81 q 197 48 189 58 q 218 38 206 38 q 227 38 222 38 q 243 40 232 38 l 254 -10 q 235 -15 244 -12 q 210 -17 225 -17 q 128 89 128 -17 l 128 999 m 0 1206 l 314 1206 l 314 1156 l 0 1156 l 0 1206 m 219 -269 q 181 -254 196 -269 q 167 -212 167 -239 q 181 -174 167 -189 q 219 -158 196 -158 q 258 -174 243 -158 q 272 -212 272 -189 q 258 -254 272 -239 q 219 -269 243 -269 z "},"ḻ":{"ha":329,"x_min":60,"x_max":376,"o":"m 128 999 l 189 999 l 189 81 q 197 48 189 58 q 218 38 206 38 q 227 38 222 38 q 243 40 232 38 l 254 -10 q 235 -15 244 -12 q 210 -17 225 -17 q 128 89 128 -17 l 128 999 m 376 -222 l 60 -222 l 60 -172 l 376 -172 l 376 -222 z "},"ł":{"ha":332,"x_min":39,"x_max":293,"o":"m 192 540 l 192 81 q 219 38 192 38 q 230 38 225 38 q 244 40 235 38 l 256 -10 q 236 -15 246 -12 q 211 -17 226 -17 q 129 89 129 -17 l 129 506 l 39 446 l 39 504 l 129 564 l 129 999 l 192 999 l 192 600 l 293 667 l 293 607 l 192 540 z "},"ṃ":{"ha":1128,"x_min":128,"x_max":1011,"o":"m 128 667 l 181 667 l 186 564 l 190 564 q 290 649 235 615 q 400 683 344 683 q 524 647 481 683 q 585 547 567 610 q 698 647 643 610 q 811 683 753 683 q 1011 428 1011 683 l 1011 0 l 949 0 l 949 419 q 913 577 949 526 q 800 628 876 628 q 600 503 710 628 l 600 0 l 539 0 l 539 419 q 503 577 539 526 q 389 628 467 628 q 189 503 299 628 l 189 0 l 128 0 l 128 667 m 582 -269 q 544 -254 558 -269 q 529 -212 529 -239 q 544 -174 529 -189 q 582 -158 558 -158 q 620 -174 606 -158 q 635 -212 635 -189 q 620 -254 635 -239 q 582 -269 606 -269 z "},"ń":{"ha":739,"x_min":128,"x_max":621,"o":"m 128 667 l 181 667 l 186 564 l 190 564 q 296 649 242 615 q 419 683 350 683 q 572 621 524 683 q 621 428 621 558 l 621 0 l 560 0 l 560 419 q 524 577 560 526 q 407 628 489 628 q 299 597 347 628 q 189 503 250 565 l 189 0 l 128 0 l 128 667 m 368 794 l 315 794 l 443 983 l 515 983 l 368 794 z "},"ň":{"ha":739,"x_min":128,"x_max":621,"o":"m 128 667 l 181 667 l 186 564 l 190 564 q 296 649 242 615 q 419 683 350 683 q 572 621 524 683 q 621 428 621 558 l 621 0 l 560 0 l 560 419 q 524 577 560 526 q 407 628 489 628 q 299 597 347 628 q 189 503 250 565 l 189 0 l 128 0 l 128 667 m 235 983 l 286 983 l 390 846 l 396 846 l 500 983 l 551 983 l 419 794 l 367 794 l 235 983 z "},"ñ":{"ha":739,"x_min":128,"x_max":621,"o":"m 128 667 l 181 667 l 186 564 l 190 564 q 296 649 242 615 q 419 683 350 683 q 572 621 524 683 q 621 428 621 558 l 621 0 l 560 0 l 560 419 q 524 577 560 526 q 407 628 489 628 q 299 597 347 628 q 189 503 250 565 l 189 0 l 128 0 l 128 667 m 221 807 q 228 851 222 829 q 245 891 233 874 q 274 919 257 908 q 317 931 292 931 q 363 919 342 931 q 401 892 383 907 q 436 866 419 878 q 471 854 453 854 q 506 874 493 854 q 524 931 518 894 l 565 931 q 558 886 564 908 q 541 847 553 864 q 512 818 529 829 q 469 807 494 807 q 424 819 444 807 q 385 845 403 831 q 351 872 368 860 q 315 883 333 883 q 263 807 274 883 l 221 807 l 221 807 z "},"ņ":{"ha":739,"x_min":128,"x_max":621,"o":"m 128 667 l 181 667 l 186 564 l 190 564 q 296 649 242 615 q 419 683 350 683 q 572 621 524 683 q 621 428 621 558 l 621 0 l 560 0 l 560 419 q 524 577 560 526 q 407 628 489 628 q 299 597 347 628 q 189 503 250 565 l 189 0 l 128 0 l 128 667 m 343 -71 q 429 -106 400 -82 q 458 -172 458 -129 q 444 -220 458 -200 q 405 -254 429 -240 q 349 -277 381 -268 q 285 -290 318 -286 l 275 -249 q 369 -224 333 -240 q 404 -179 404 -207 q 380 -133 404 -147 q 325 -111 356 -118 l 343 -71 l 343 -71 z "},"ṅ":{"ha":739,"x_min":128,"x_max":621,"o":"m 128 667 l 181 667 l 186 564 l 190 564 q 296 649 242 615 q 419 683 350 683 q 572 621 524 683 q 621 428 621 558 l 621 0 l 560 0 l 560 419 q 524 577 560 526 q 407 628 489 628 q 299 597 347 628 q 189 503 250 565 l 189 0 l 128 0 l 128 667 m 393 828 q 355 843 369 828 q 340 885 340 858 q 355 924 340 908 q 393 939 369 939 q 431 924 417 939 q 446 885 446 908 q 431 843 446 858 q 393 828 417 828 z "},"ṇ":{"ha":739,"x_min":128,"x_max":621,"o":"m 128 667 l 181 667 l 186 564 l 190 564 q 296 649 242 615 q 419 683 350 683 q 572 621 524 683 q 621 428 621 558 l 621 0 l 560 0 l 560 419 q 524 577 560 526 q 407 628 489 628 q 299 597 347 628 q 189 503 250 565 l 189 0 l 128 0 l 128 667 m 379 -269 q 341 -254 356 -269 q 326 -212 326 -239 q 341 -174 326 -189 q 379 -158 356 -158 q 417 -174 403 -158 q 432 -212 432 -189 q 417 -254 432 -239 q 379 -269 403 -269 z "},"ṉ":{"ha":739,"x_min":128,"x_max":621,"o":"m 128 667 l 181 667 l 186 564 l 190 564 q 296 649 242 615 q 419 683 350 683 q 572 621 524 683 q 621 428 621 558 l 621 0 l 560 0 l 560 419 q 524 577 560 526 q 407 628 489 628 q 299 597 347 628 q 189 503 250 565 l 189 0 l 128 0 l 128 667 m 535 -222 l 218 -222 l 218 -172 l 535 -172 l 535 -222 z "},"ŉ":{"ha":1013,"x_min":81,"x_max":885,"o":"m 81 694 q 150 769 126 732 q 174 867 174 807 q 163 865 171 865 q 126 878 143 865 q 108 917 108 890 q 124 958 108 943 q 163 972 139 972 q 208 948 190 972 q 225 879 225 924 q 194 751 225 804 q 106 663 163 699 l 81 694 m 392 667 l 444 667 l 450 564 l 454 564 q 560 649 506 615 q 683 683 614 683 q 836 621 788 683 q 885 428 885 558 l 885 0 l 824 0 l 824 419 q 788 577 824 526 q 671 628 753 628 q 563 597 611 628 q 453 503 514 565 l 453 0 l 392 0 l 392 667 z "},"ò":{"ha":743,"x_min":72,"x_max":671,"o":"m 72 332 q 97 481 72 415 q 162 592 121 547 q 257 660 203 636 q 371 683 311 683 q 485 660 431 683 q 581 592 540 636 q 647 481 622 547 q 671 332 671 415 q 647 184 671 249 q 581 75 622 119 q 485 7 540 31 q 371 -17 431 -17 q 257 7 311 -17 q 162 75 203 31 q 97 184 121 119 q 72 332 72 249 m 136 332 q 154 213 136 267 q 203 119 172 158 q 278 59 235 81 q 371 38 321 38 q 465 59 421 38 q 540 119 508 81 q 589 213 571 158 q 607 332 607 267 q 589 453 607 399 q 540 547 571 507 q 465 608 508 586 q 371 629 421 629 q 278 608 321 629 q 203 547 235 586 q 154 453 172 507 q 136 332 136 399 m 249 983 l 321 983 l 449 794 l 396 794 l 249 983 z "},"ó":{"ha":743,"x_min":72,"x_max":671,"o":"m 72 332 q 97 481 72 415 q 162 592 121 547 q 257 660 203 636 q 371 683 311 683 q 485 660 431 683 q 581 592 540 636 q 647 481 622 547 q 671 332 671 415 q 647 184 671 249 q 581 75 622 119 q 485 7 540 31 q 371 -17 431 -17 q 257 7 311 -17 q 162 75 203 31 q 97 184 121 119 q 72 332 72 249 m 136 332 q 154 213 136 267 q 203 119 172 158 q 278 59 235 81 q 371 38 321 38 q 465 59 421 38 q 540 119 508 81 q 589 213 571 158 q 607 332 607 267 q 589 453 607 399 q 540 547 571 507 q 465 608 508 586 q 371 629 421 629 q 278 608 321 629 q 203 547 235 586 q 154 453 172 507 q 136 332 136 399 m 346 794 l 293 794 l 421 983 l 493 983 l 346 794 z "},"ô":{"ha":743,"x_min":72,"x_max":671,"o":"m 72 332 q 97 481 72 415 q 162 592 121 547 q 257 660 203 636 q 371 683 311 683 q 485 660 431 683 q 581 592 540 636 q 647 481 622 547 q 671 332 671 415 q 647 184 671 249 q 581 75 622 119 q 485 7 540 31 q 371 -17 431 -17 q 257 7 311 -17 q 162 75 203 31 q 97 184 121 119 q 72 332 72 249 m 136 332 q 154 213 136 267 q 203 119 172 158 q 278 59 235 81 q 371 38 321 38 q 465 59 421 38 q 540 119 508 81 q 589 213 571 158 q 607 332 607 267 q 589 453 607 399 q 540 547 571 507 q 465 608 508 586 q 371 629 421 629 q 278 608 321 629 q 203 547 235 586 q 154 453 172 507 q 136 332 136 399 m 344 983 l 397 983 l 529 794 l 478 794 l 374 932 l 368 932 l 264 794 l 213 794 l 344 983 z "},"õ":{"ha":743,"x_min":72,"x_max":671,"o":"m 72 332 q 97 481 72 415 q 162 592 121 547 q 257 660 203 636 q 371 683 311 683 q 485 660 431 683 q 581 592 540 636 q 647 481 622 547 q 671 332 671 415 q 647 184 671 249 q 581 75 622 119 q 485 7 540 31 q 371 -17 431 -17 q 257 7 311 -17 q 162 75 203 31 q 97 184 121 119 q 72 332 72 249 m 136 332 q 154 213 136 267 q 203 119 172 158 q 278 59 235 81 q 371 38 321 38 q 465 59 421 38 q 540 119 508 81 q 589 213 571 158 q 607 332 607 267 q 589 453 607 399 q 540 547 571 507 q 465 608 508 586 q 371 629 421 629 q 278 608 321 629 q 203 547 235 586 q 154 453 172 507 q 136 332 136 399 m 199 807 q 206 851 200 829 q 223 891 211 874 q 252 919 235 908 q 294 931 269 931 q 340 919 319 931 q 379 892 361 907 q 414 866 397 878 q 449 854 431 854 q 483 874 471 854 q 501 931 496 894 l 543 931 q 536 886 542 908 q 519 847 531 864 q 490 818 507 829 q 447 807 472 807 q 401 819 422 807 q 363 845 381 831 q 328 872 346 860 q 293 883 311 883 q 240 807 251 883 l 199 807 l 199 807 z "},"ö":{"ha":743,"x_min":72,"x_max":671,"o":"m 72 332 q 97 481 72 415 q 162 592 121 547 q 257 660 203 636 q 371 683 311 683 q 485 660 431 683 q 581 592 540 636 q 647 481 622 547 q 671 332 671 415 q 647 184 671 249 q 581 75 622 119 q 485 7 540 31 q 371 -17 431 -17 q 257 7 311 -17 q 162 75 203 31 q 97 184 121 119 q 72 332 72 249 m 136 332 q 154 213 136 267 q 203 119 172 158 q 278 59 235 81 q 371 38 321 38 q 465 59 421 38 q 540 119 508 81 q 589 213 571 158 q 607 332 607 267 q 589 453 607 399 q 540 547 571 507 q 465 608 508 586 q 371 629 421 629 q 278 608 321 629 q 203 547 235 586 q 154 453 172 507 q 136 332 136 399 m 261 831 q 225 845 239 831 q 211 882 211 860 q 225 917 211 903 q 261 932 239 932 q 298 917 283 932 q 313 882 313 903 q 298 845 313 860 q 261 831 283 831 m 481 831 q 444 845 458 831 q 429 882 429 860 q 444 917 429 903 q 481 932 458 932 q 517 917 503 932 q 531 882 531 903 q 517 845 531 860 q 481 831 503 831 z "},"ō":{"ha":743,"x_min":72,"x_max":671,"o":"m 72 332 q 97 481 72 415 q 162 592 121 547 q 257 660 203 636 q 371 683 311 683 q 485 660 431 683 q 581 592 540 636 q 647 481 622 547 q 671 332 671 415 q 647 184 671 249 q 581 75 622 119 q 485 7 540 31 q 371 -17 431 -17 q 257 7 311 -17 q 162 75 203 31 q 97 184 121 119 q 72 332 72 249 m 136 332 q 154 213 136 267 q 203 119 172 158 q 278 59 235 81 q 371 38 321 38 q 465 59 421 38 q 540 119 508 81 q 589 213 571 158 q 607 332 607 267 q 589 453 607 399 q 540 547 571 507 q 465 608 508 586 q 371 629 421 629 q 278 608 321 629 q 203 547 235 586 q 154 453 172 507 q 136 332 136 399 m 214 892 l 528 892 l 528 842 l 214 842 l 214 892 z "},"ő":{"ha":743,"x_min":72,"x_max":671,"o":"m 72 332 q 97 481 72 415 q 162 592 121 547 q 257 660 203 636 q 371 683 311 683 q 485 660 431 683 q 581 592 540 636 q 647 481 622 547 q 671 332 671 415 q 647 184 671 249 q 581 75 622 119 q 485 7 540 31 q 371 -17 431 -17 q 257 7 311 -17 q 162 75 203 31 q 97 184 121 119 q 72 332 72 249 m 136 332 q 154 213 136 267 q 203 119 172 158 q 278 59 235 81 q 371 38 321 38 q 465 59 421 38 q 540 119 508 81 q 589 213 571 158 q 607 332 607 267 q 589 453 607 399 q 540 547 571 507 q 465 608 508 586 q 371 629 421 629 q 278 608 321 629 q 203 547 235 586 q 154 453 172 507 q 136 332 136 399 m 357 983 l 419 983 l 304 792 l 257 792 l 357 983 m 542 983 l 606 983 l 489 792 l 442 792 l 542 983 z "},"ǒ":{"ha":743,"x_min":72,"x_max":671,"o":"m 72 332 q 97 481 72 415 q 162 592 121 547 q 257 660 203 636 q 371 683 311 683 q 485 660 431 683 q 581 592 540 636 q 647 481 622 547 q 671 332 671 415 q 647 184 671 249 q 581 75 622 119 q 485 7 540 31 q 371 -17 431 -17 q 257 7 311 -17 q 162 75 203 31 q 97 184 121 119 q 72 332 72 249 m 136 332 q 154 213 136 267 q 203 119 172 158 q 278 59 235 81 q 371 38 321 38 q 465 59 421 38 q 540 119 508 81 q 589 213 571 158 q 607 332 607 267 q 589 453 607 399 q 540 547 571 507 q 465 608 508 586 q 371 629 421 629 q 278 608 321 629 q 203 547 235 586 q 154 453 172 507 q 136 332 136 399 m 213 983 l 264 983 l 368 846 l 374 846 l 478 983 l 529 983 l 397 794 l 344 794 l 213 983 z "},"ọ":{"ha":743,"x_min":72,"x_max":671,"o":"m 72 332 q 97 481 72 415 q 162 592 121 547 q 257 660 203 636 q 371 683 311 683 q 485 660 431 683 q 581 592 540 636 q 647 481 622 547 q 671 332 671 415 q 647 184 671 249 q 581 75 622 119 q 485 7 540 31 q 371 -17 431 -17 q 257 7 311 -17 q 162 75 203 31 q 97 184 121 119 q 72 332 72 249 m 136 332 q 154 213 136 267 q 203 119 172 158 q 278 59 235 81 q 371 38 321 38 q 465 59 421 38 q 540 119 508 81 q 589 213 571 158 q 607 332 607 267 q 589 453 607 399 q 540 547 571 507 q 465 608 508 586 q 371 629 421 629 q 278 608 321 629 q 203 547 235 586 q 154 453 172 507 q 136 332 136 399 m 372 -269 q 334 -254 349 -269 q 319 -212 319 -239 q 334 -174 319 -189 q 372 -158 349 -158 q 410 -174 396 -158 q 425 -212 425 -189 q 410 -254 425 -239 q 372 -269 396 -269 z "},"ỏ":{"ha":743,"x_min":72,"x_max":671,"o":"m 72 332 q 97 481 72 415 q 162 592 121 547 q 257 660 203 636 q 371 683 311 683 q 485 660 431 683 q 581 592 540 636 q 647 481 622 547 q 671 332 671 415 q 647 184 671 249 q 581 75 622 119 q 485 7 540 31 q 371 -17 431 -17 q 257 7 311 -17 q 162 75 203 31 q 97 184 121 119 q 72 332 72 249 m 136 332 q 154 213 136 267 q 203 119 172 158 q 278 59 235 81 q 371 38 321 38 q 465 59 421 38 q 540 119 508 81 q 589 213 571 158 q 607 332 607 267 q 589 453 607 399 q 540 547 571 507 q 465 608 508 586 q 371 629 421 629 q 278 608 321 629 q 203 547 235 586 q 154 453 172 507 q 136 332 136 399 m 326 801 q 389 830 364 813 q 414 878 414 847 q 296 944 414 940 l 301 989 q 367 981 336 988 q 420 961 397 974 q 456 930 443 949 q 469 885 469 911 q 458 838 469 857 q 428 804 447 818 q 386 781 410 790 q 338 765 363 772 l 326 801 z "},"ố":{"ha":743,"x_min":72,"x_max":671,"o":"m 72 332 q 97 481 72 415 q 162 592 121 547 q 257 660 203 636 q 371 683 311 683 q 485 660 431 683 q 581 592 540 636 q 647 481 622 547 q 671 332 671 415 q 647 184 671 249 q 581 75 622 119 q 485 7 540 31 q 371 -17 431 -17 q 257 7 311 -17 q 162 75 203 31 q 97 184 121 119 q 72 332 72 249 m 136 332 q 154 213 136 267 q 203 119 172 158 q 278 59 235 81 q 371 38 321 38 q 465 59 421 38 q 540 119 508 81 q 589 213 571 158 q 607 332 607 267 q 589 453 607 399 q 540 547 571 507 q 465 608 508 586 q 371 629 421 629 q 278 608 321 629 q 203 547 235 586 q 154 453 172 507 q 136 332 136 399 m 344 953 l 397 953 l 514 794 l 464 794 l 374 903 l 368 903 l 278 794 l 228 794 l 344 953 m 586 1039 l 650 1039 l 525 885 l 479 885 l 586 1039 z "},"ồ":{"ha":743,"x_min":72,"x_max":671,"o":"m 72 332 q 97 481 72 415 q 162 592 121 547 q 257 660 203 636 q 371 683 311 683 q 485 660 431 683 q 581 592 540 636 q 647 481 622 547 q 671 332 671 415 q 647 184 671 249 q 581 75 622 119 q 485 7 540 31 q 371 -17 431 -17 q 257 7 311 -17 q 162 75 203 31 q 97 184 121 119 q 72 332 72 249 m 136 332 q 154 213 136 267 q 203 119 172 158 q 278 59 235 81 q 371 38 321 38 q 465 59 421 38 q 540 119 508 81 q 589 213 571 158 q 607 332 607 267 q 589 453 607 399 q 540 547 571 507 q 465 608 508 586 q 371 629 421 629 q 278 608 321 629 q 203 547 235 586 q 154 453 172 507 q 136 332 136 399 m 344 953 l 397 953 l 514 794 l 464 794 l 374 903 l 368 903 l 278 794 l 228 794 l 344 953 m 611 885 l 565 885 l 439 1039 l 504 1039 l 611 885 z "},"ổ":{"ha":743,"x_min":72,"x_max":671,"o":"m 72 332 q 97 481 72 415 q 162 592 121 547 q 257 660 203 636 q 371 683 311 683 q 485 660 431 683 q 581 592 540 636 q 647 481 622 547 q 671 332 671 415 q 647 184 671 249 q 581 75 622 119 q 485 7 540 31 q 371 -17 431 -17 q 257 7 311 -17 q 162 75 203 31 q 97 184 121 119 q 72 332 72 249 m 136 332 q 154 213 136 267 q 203 119 172 158 q 278 59 235 81 q 371 38 321 38 q 465 59 421 38 q 540 119 508 81 q 589 213 571 158 q 607 332 607 267 q 589 453 607 399 q 540 547 571 507 q 465 608 508 586 q 371 629 421 629 q 278 608 321 629 q 203 547 235 586 q 154 453 172 507 q 136 332 136 399 m 344 953 l 397 953 l 514 794 l 464 794 l 374 903 l 368 903 l 278 794 l 228 794 l 344 953 m 503 907 q 551 933 532 918 q 571 971 571 947 q 472 1035 571 1031 l 476 1075 q 581 1050 539 1072 q 624 978 624 1028 q 614 937 624 954 q 588 907 604 919 q 553 886 572 894 q 514 872 533 878 l 503 907 z "},"ỗ":{"ha":743,"x_min":72,"x_max":671,"o":"m 72 332 q 97 481 72 415 q 162 592 121 547 q 257 660 203 636 q 371 683 311 683 q 485 660 431 683 q 581 592 540 636 q 647 481 622 547 q 671 332 671 415 q 647 184 671 249 q 581 75 622 119 q 485 7 540 31 q 371 -17 431 -17 q 257 7 311 -17 q 162 75 203 31 q 97 184 121 119 q 72 332 72 249 m 136 332 q 154 213 136 267 q 203 119 172 158 q 278 59 235 81 q 371 38 321 38 q 465 59 421 38 q 540 119 508 81 q 589 213 571 158 q 607 332 607 267 q 589 453 607 399 q 540 547 571 507 q 465 608 508 586 q 371 629 421 629 q 278 608 321 629 q 203 547 235 586 q 154 453 172 507 q 136 332 136 399 m 343 931 l 399 931 l 525 792 l 475 792 l 374 888 l 368 888 l 267 792 l 217 792 l 343 931 m 203 981 q 210 1019 204 1000 q 228 1054 217 1039 q 258 1078 240 1069 q 300 1088 276 1088 q 344 1078 325 1088 q 378 1056 363 1068 q 408 1035 393 1044 q 442 1025 424 1025 q 500 1088 489 1025 l 539 1088 q 531 1049 538 1068 q 513 1014 525 1029 q 483 990 501 999 q 442 981 465 981 q 398 990 417 981 q 363 1012 379 1000 q 333 1033 347 1024 q 300 1043 318 1043 q 242 981 251 1043 l 203 981 z "},"ộ":{"ha":743,"x_min":72,"x_max":671,"o":"m 72 332 q 97 481 72 415 q 162 592 121 547 q 257 660 203 636 q 371 683 311 683 q 485 660 431 683 q 581 592 540 636 q 647 481 622 547 q 671 332 671 415 q 647 184 671 249 q 581 75 622 119 q 485 7 540 31 q 371 -17 431 -17 q 257 7 311 -17 q 162 75 203 31 q 97 184 121 119 q 72 332 72 249 m 136 332 q 154 213 136 267 q 203 119 172 158 q 278 59 235 81 q 371 38 321 38 q 465 59 421 38 q 540 119 508 81 q 589 213 571 158 q 607 332 607 267 q 589 453 607 399 q 540 547 571 507 q 465 608 508 586 q 371 629 421 629 q 278 608 321 629 q 203 547 235 586 q 154 453 172 507 q 136 332 136 399 m 344 983 l 397 983 l 529 794 l 478 794 l 374 932 l 368 932 l 264 794 l 213 794 l 344 983 m 372 -269 q 334 -254 349 -269 q 319 -212 319 -239 q 334 -174 319 -189 q 372 -158 349 -158 q 410 -174 396 -158 q 425 -212 425 -189 q 410 -254 425 -239 q 372 -269 396 -269 z "},"ø":{"ha":743,"x_min":64,"x_max":679,"o":"m 213 106 q 371 36 278 36 q 465 58 421 36 q 540 118 508 79 q 590 211 572 157 q 608 331 608 265 q 558 522 608 444 l 213 106 m 531 560 q 371 631 467 631 q 277 609 321 631 q 202 548 233 588 q 153 453 171 508 q 135 333 135 399 q 185 143 135 221 l 531 560 m 599 571 q 651 467 632 526 q 671 332 671 407 q 647 184 671 249 q 581 75 622 119 q 485 7 540 31 q 371 -17 431 -17 q 175 61 257 -17 l 100 -31 l 64 -1 l 144 96 q 92 199 111 140 q 72 332 72 257 q 97 481 72 415 q 162 592 121 547 q 257 660 203 636 q 371 683 311 683 q 477 664 426 683 q 568 606 528 644 l 643 696 l 679 667 l 599 571 z "},"œ":{"ha":1178,"x_min":72,"x_max":1126,"o":"m 136 332 q 153 213 136 267 q 201 119 171 158 q 274 59 232 81 q 365 38 317 38 q 458 59 415 38 q 530 119 500 81 q 577 213 560 158 q 594 332 594 267 q 577 453 594 399 q 530 547 560 507 q 458 608 500 586 q 365 629 415 629 q 274 608 317 629 q 201 547 232 586 q 153 453 171 507 q 136 332 136 399 m 72 332 q 96 481 72 415 q 160 592 119 547 q 254 660 201 636 q 365 683 307 683 q 517 634 446 683 q 624 486 588 585 q 726 631 660 578 q 872 683 792 683 q 1058 603 990 683 q 1126 375 1126 522 q 1122 325 1126 350 l 654 325 q 673 210 654 263 q 724 119 692 157 q 800 59 756 81 q 894 38 844 38 q 992 53 949 38 q 1072 97 1035 69 l 1099 49 q 1010 4 1058 25 q 888 -17 963 -17 q 731 36 800 -17 q 625 179 661 89 q 519 33 586 82 q 365 -17 453 -17 q 254 7 307 -17 q 160 75 201 31 q 96 184 119 119 q 72 332 72 249 m 1068 372 q 1015 566 1068 501 q 872 631 961 631 q 793 612 831 631 q 726 559 756 593 q 678 477 697 525 q 654 372 660 429 l 1068 372 z "},"ơ":{"ha":743,"x_min":72,"x_max":675,"o":"m 371 38 q 465 59 421 38 q 540 119 508 81 q 589 213 571 158 q 607 332 607 267 q 589 453 607 399 q 540 547 571 507 q 465 608 508 586 q 371 629 421 629 q 278 608 321 629 q 203 547 235 586 q 154 453 172 507 q 136 332 136 399 q 154 213 136 267 q 203 119 172 158 q 278 59 235 81 q 371 38 321 38 m 647 831 q 675 753 675 792 q 665 701 675 724 q 637 664 654 679 q 597 638 619 649 q 550 621 574 628 q 638 504 604 576 q 671 332 671 432 q 647 184 671 249 q 581 75 622 119 q 485 7 540 31 q 371 -17 431 -17 q 257 7 311 -17 q 162 75 203 31 q 97 184 121 119 q 72 332 72 249 q 97 481 72 415 q 162 592 121 547 q 257 660 203 636 q 371 683 311 683 q 499 654 440 683 q 619 749 619 669 q 599 803 619 775 l 647 831 z "},"ớ":{"ha":743,"x_min":72,"x_max":675,"o":"m 371 38 q 465 59 421 38 q 540 119 508 81 q 589 213 571 158 q 607 332 607 267 q 589 453 607 399 q 540 547 571 507 q 465 608 508 586 q 371 629 421 629 q 278 608 321 629 q 203 547 235 586 q 154 453 172 507 q 136 332 136 399 q 154 213 136 267 q 203 119 172 158 q 278 59 235 81 q 371 38 321 38 m 647 831 q 675 753 675 792 q 665 701 675 724 q 637 664 654 679 q 597 638 619 649 q 550 621 574 628 q 638 504 604 576 q 671 332 671 432 q 647 184 671 249 q 581 75 622 119 q 485 7 540 31 q 371 -17 431 -17 q 257 7 311 -17 q 162 75 203 31 q 97 184 121 119 q 72 332 72 249 q 97 481 72 415 q 162 592 121 547 q 257 660 203 636 q 371 683 311 683 q 499 654 440 683 q 619 749 619 669 q 599 803 619 775 l 647 831 m 346 794 l 293 794 l 421 983 l 493 983 l 346 794 z "},"ờ":{"ha":743,"x_min":72,"x_max":675,"o":"m 371 38 q 465 59 421 38 q 540 119 508 81 q 589 213 571 158 q 607 332 607 267 q 589 453 607 399 q 540 547 571 507 q 465 608 508 586 q 371 629 421 629 q 278 608 321 629 q 203 547 235 586 q 154 453 172 507 q 136 332 136 399 q 154 213 136 267 q 203 119 172 158 q 278 59 235 81 q 371 38 321 38 m 647 831 q 675 753 675 792 q 665 701 675 724 q 637 664 654 679 q 597 638 619 649 q 550 621 574 628 q 638 504 604 576 q 671 332 671 432 q 647 184 671 249 q 581 75 622 119 q 485 7 540 31 q 371 -17 431 -17 q 257 7 311 -17 q 162 75 203 31 q 97 184 121 119 q 72 332 72 249 q 97 481 72 415 q 162 592 121 547 q 257 660 203 636 q 371 683 311 683 q 499 654 440 683 q 619 749 619 669 q 599 803 619 775 l 647 831 m 249 983 l 321 983 l 449 794 l 396 794 l 249 983 z "},"ở":{"ha":743,"x_min":72,"x_max":675,"o":"m 371 38 q 465 59 421 38 q 540 119 508 81 q 589 213 571 158 q 607 332 607 267 q 589 453 607 399 q 540 547 571 507 q 465 608 508 586 q 371 629 421 629 q 278 608 321 629 q 203 547 235 586 q 154 453 172 507 q 136 332 136 399 q 154 213 136 267 q 203 119 172 158 q 278 59 235 81 q 371 38 321 38 m 647 831 q 675 753 675 792 q 665 701 675 724 q 637 664 654 679 q 597 638 619 649 q 550 621 574 628 q 638 504 604 576 q 671 332 671 432 q 647 184 671 249 q 581 75 622 119 q 485 7 540 31 q 371 -17 431 -17 q 257 7 311 -17 q 162 75 203 31 q 97 184 121 119 q 72 332 72 249 q 97 481 72 415 q 162 592 121 547 q 257 660 203 636 q 371 683 311 683 q 499 654 440 683 q 619 749 619 669 q 599 803 619 775 l 647 831 m 326 801 q 389 830 364 813 q 414 878 414 847 q 296 944 414 940 l 301 989 q 367 981 336 988 q 420 961 397 974 q 456 930 443 949 q 469 885 469 911 q 458 838 469 857 q 428 804 447 818 q 386 781 410 790 q 338 765 363 772 l 326 801 z "},"ỡ":{"ha":743,"x_min":72,"x_max":675,"o":"m 371 38 q 465 59 421 38 q 540 119 508 81 q 589 213 571 158 q 607 332 607 267 q 589 453 607 399 q 540 547 571 507 q 465 608 508 586 q 371 629 421 629 q 278 608 321 629 q 203 547 235 586 q 154 453 172 507 q 136 332 136 399 q 154 213 136 267 q 203 119 172 158 q 278 59 235 81 q 371 38 321 38 m 647 831 q 675 753 675 792 q 665 701 675 724 q 637 664 654 679 q 597 638 619 649 q 550 621 574 628 q 638 504 604 576 q 671 332 671 432 q 647 184 671 249 q 581 75 622 119 q 485 7 540 31 q 371 -17 431 -17 q 257 7 311 -17 q 162 75 203 31 q 97 184 121 119 q 72 332 72 249 q 97 481 72 415 q 162 592 121 547 q 257 660 203 636 q 371 683 311 683 q 499 654 440 683 q 619 749 619 669 q 599 803 619 775 l 647 831 m 199 807 q 206 851 200 829 q 223 891 211 874 q 252 919 235 908 q 294 931 269 931 q 340 919 319 931 q 379 892 361 907 q 414 866 397 878 q 449 854 431 854 q 483 874 471 854 q 501 931 496 894 l 543 931 q 536 886 542 908 q 519 847 531 864 q 490 818 507 829 q 447 807 472 807 q 401 819 422 807 q 363 845 381 831 q 328 872 346 860 q 293 883 311 883 q 240 807 251 883 l 199 807 l 199 807 z "},"ợ":{"ha":743,"x_min":72,"x_max":675,"o":"m 371 38 q 465 59 421 38 q 540 119 508 81 q 589 213 571 158 q 607 332 607 267 q 589 453 607 399 q 540 547 571 507 q 465 608 508 586 q 371 629 421 629 q 278 608 321 629 q 203 547 235 586 q 154 453 172 507 q 136 332 136 399 q 154 213 136 267 q 203 119 172 158 q 278 59 235 81 q 371 38 321 38 m 647 831 q 675 753 675 792 q 665 701 675 724 q 637 664 654 679 q 597 638 619 649 q 550 621 574 628 q 638 504 604 576 q 671 332 671 432 q 647 184 671 249 q 581 75 622 119 q 485 7 540 31 q 371 -17 431 -17 q 257 7 311 -17 q 162 75 203 31 q 97 184 121 119 q 72 332 72 249 q 97 481 72 415 q 162 592 121 547 q 257 660 203 636 q 371 683 311 683 q 499 654 440 683 q 619 749 619 669 q 599 803 619 775 l 647 831 m 372 -269 q 334 -254 349 -269 q 319 -212 319 -239 q 334 -174 319 -189 q 372 -158 349 -158 q 410 -174 396 -158 q 425 -212 425 -189 q 410 -254 425 -239 q 372 -269 396 -269 z "},"ǫ":{"ha":743,"x_min":72,"x_max":671,"o":"m 296 -169 q 303 -119 296 -143 q 323 -76 311 -96 q 349 -42 335 -57 q 374 -17 363 -26 q 256 8 311 -15 q 160 77 201 32 q 96 186 119 122 q 72 332 72 250 q 97 481 72 415 q 162 592 121 547 q 257 660 203 636 q 371 683 311 683 q 485 660 431 683 q 581 592 540 636 q 647 481 622 547 q 671 332 671 415 q 655 207 671 261 q 610 112 639 153 q 542 42 582 71 q 453 -10 501 13 q 378 -74 407 -31 q 349 -161 349 -117 q 369 -215 349 -197 q 417 -233 390 -233 q 476 -214 451 -233 l 499 -250 q 458 -273 483 -264 q 408 -282 432 -282 q 328 -254 361 -282 q 296 -169 296 -226 m 136 332 q 154 213 136 267 q 203 119 172 158 q 278 59 235 81 q 371 38 321 38 q 465 59 421 38 q 540 119 508 81 q 589 213 571 158 q 607 332 607 267 q 589 453 607 399 q 540 547 571 507 q 465 608 508 586 q 371 629 421 629 q 278 608 321 629 q 203 547 235 586 q 154 453 172 507 q 136 332 136 399 z "},"ŕ":{"ha":440,"x_min":128,"x_max":446,"o":"m 128 667 l 181 667 l 186 543 l 190 543 q 272 644 224 606 q 379 683 319 683 q 414 681 399 683 q 446 669 429 678 l 432 614 q 403 623 415 621 q 371 625 390 625 q 277 587 326 625 q 189 454 228 549 l 189 0 l 128 0 l 128 667 m 253 794 l 200 794 l 328 983 l 400 983 l 253 794 z "},"ŗ":{"ha":440,"x_min":51,"x_max":446,"o":"m 128 667 l 181 667 l 186 543 l 190 543 q 272 644 224 606 q 379 683 319 683 q 414 681 399 683 q 446 669 429 678 l 432 614 q 403 623 415 621 q 371 625 390 625 q 277 587 326 625 q 189 454 228 549 l 189 0 l 128 0 l 128 667 m 119 -71 q 206 -106 176 -82 q 235 -172 235 -129 q 220 -220 235 -200 q 181 -254 206 -240 q 126 -277 157 -268 q 61 -290 94 -286 l 51 -249 q 145 -224 110 -240 q 181 -179 181 -207 q 156 -133 181 -147 q 101 -111 132 -118 l 119 -71 l 119 -71 z "},"ř":{"ha":440,"x_min":119,"x_max":446,"o":"m 128 667 l 181 667 l 186 543 l 190 543 q 272 644 224 606 q 379 683 319 683 q 414 681 399 683 q 446 669 429 678 l 432 614 q 403 623 415 621 q 371 625 390 625 q 277 587 326 625 q 189 454 228 549 l 189 0 l 128 0 l 128 667 m 119 983 l 171 983 l 275 846 l 281 846 l 385 983 l 436 983 l 304 794 l 251 794 l 119 983 z "}}}
